<svg xmlns="http://www.w3.org/2000/svg" viewBox="0 0 1244.06 1007.32"><defs><style>.cls-1{fill:#a4ccea;}.cls-2{fill:#011176;}.cls-3{fill:#3498da;}.cls-4{opacity:0.25;}.cls-5{fill:#fff;}.cls-6{opacity:0.55;}.cls-7{opacity:0.3;}</style></defs><title>brain</title><g id="Layer_2" data-name="Layer 2"><g id="Layer_1-2" data-name="Layer 1"><path class="cls-1" d="M1220.28,578s-8.64,88.8-76.57,148.48c0,0-18.73,79.43-103.72,92.62,0,0-4.18,87-99.8,83.21,0,0-25.91.69-58.16,28.59-44.61,38.6-102.94,57.93-161.47,50.49a303,303,0,0,1-83.89-23.64,55.11,55.11,0,0,0-49.51,3c-28,16.05-78.23,37-135.65,24.36,0,0-105,36.48-165.17-25-94.23-24.59-146.17-70.17-158-135.67a166.48,166.48,0,0,1-2.59-25.27Q14.11,779,25.45,667.48C1.25,612,6.39,565.15,51.5,532c-9.88-33.26,1.55-61.49,43.19-82.49-15.61-49.65.61-88.09,54.59-105.9,10.66-42.79,30.49-76.74,78.79-83.13,14.8-46,45.62-77.31,91-95.17,21.28-36.52,51.55-62.91,103.33-65.18,27.82-58.31,73.1-86.26,145.48-66.95,40.92-29.33,92.68-26.91,133-6.45,41.94-3.43,78.54,4,104.21,33.46,64.87-2.63,125.05,9.29,175.16,52.93a2,2,0,0,1,.33.28s2.06.64,5.71,1.94c1.23.44,2.46.89,3.68,1.36a284.91,284.91,0,0,1,28.48,12.84l.18.12c27.87,14.47,64.86,39.47,88.64,78.09,0,0,70.74,49.34,70.66,109.67,0,0,52.08,39.36,45.74,126.16C1223.63,443.6,1246.19,503.42,1220.28,578Z"/><path class="cls-2" d="M382.75,997.2c-32.23,0-69.48-7.61-97.18-35.71-93.31-24.44-146.7-70.44-158.71-136.73a167.92,167.92,0,0,1-2.57-24.3C50.26,786.62,16.5,742,24,667.71-1.52,609.1,7.18,563.26,49.8,531.45c-10-35,4.52-62.82,43.12-82.67-15.67-51.38,3.87-89.07,55.13-106.29,8.83-35.08,25.9-75.87,78.91-83.33,14.69-44.9,45.33-76.86,91.07-95,24.84-42.37,57.72-63.18,103.4-65.43,30.39-63.06,78.2-85,146.14-67.11,37.55-26.58,88.62-29,133.56-6.36,47.15-3.78,81.36,7.17,104.56,33.46,74.59-2.89,130.38,14,175.48,53.32l.1.08c.69.22,2.59.83,5.48,1.86,1.24.45,2.48.9,3.72,1.38a285,285,0,0,1,28.61,12.91l.26.15c27.23,14.14,64.82,39.24,89,78.33,4.66,3.34,70.57,51.74,71,110,5.74,4.73,51.57,45.25,45.76,126.65,1.7,4.82,21.34,63.54-3.39,134.93-.5,4.55-10.89,90.87-76.71,149-1.75,6.59-23,79.92-103.66,93.09-1,10.57-11.44,86.91-101.23,83.41-.15,0-25.72,1.06-57.14,28.23-45.8,39.63-105,58.15-162.62,50.84a305.87,305.87,0,0,1-84.29-23.75,53.87,53.87,0,0,0-48.19,3c-31.31,18-80.34,36.78-136.3,24.61A239,239,0,0,1,382.75,997.2ZM525.21,28.58c-45,0-78.45,23.88-101.5,72.21l-.38.79-.89,0c-45.2,2-77.65,22.46-102.12,64.45l-.26.44-.47.19c-45.45,17.89-75.77,49.6-90.12,94.25l-.29.88-.92.13c-40.85,5.41-64.77,30.71-77.55,82l-.2.79-.77.25C98.55,361.91,80,397.9,96.09,449.09l.38,1.19-1.12.56c-38.88,19.61-52.76,46-42.44,80.76l.29,1-.83.61c-42.16,31-50.77,75.94-25.57,133.68l.16.36,0,.38C19.46,740.7,52.79,784.49,126,797.78l1.17.22,0,1.19a165.56,165.56,0,0,0,2.56,25c11.8,65.16,64.6,110.41,157,134.51l.4.1.28.29c58.82,60.11,162.59,25,163.64,24.63l.39-.14.41.09c55.2,12.14,103.66-6.46,134.6-24.2a56.79,56.79,0,0,1,50.83-3.11,303,303,0,0,0,83.48,23.52c56.75,7.22,115.16-11.07,160.33-50.14,32.28-27.92,58-28.92,59.08-28.95,93.11,3.71,98.2-78.32,98.37-81.81l.06-1.2,1.18-.19c83-12.88,102.33-90.72,102.52-91.5l.11-.46.35-.31c66.68-58.59,76-146.63,76.08-147.51l.07-.35c25.42-73.17,3.59-132.8,3.36-133.39l-.11-.31,0-.32c6.2-84.93-44.64-124.48-45.15-124.87l-.59-.44v-.74c.07-58.88-69.33-108-70-108.47l-.41-.43c-23.81-38.66-61-63.52-88.07-77.56l-.25-.15a281.87,281.87,0,0,0-28.25-12.73c-1.23-.48-2.44-.92-3.66-1.36-3.59-1.28-5.62-1.91-5.64-1.91l-.63-.35-.24-.23c-44.64-38.88-100-55.57-174.13-52.57l-.71,0-.46-.53c-22.94-26.36-55.65-36.84-103-33l-.42,0-.37-.19C655.9,5.59,605.53,8,568.71,34.4l-.56.4-.67-.18Q544.83,28.59,525.21,28.58Z"/><path class="cls-3" d="M125.72,799.23Q14.09,779,25.45,667.48C1.25,612,6.39,565.14,51.5,532c-9.88-33.27,1.55-61.48,43.19-82.49-15.6-49.66.61-88.08,54.59-105.9,10.66-42.8,30.49-76.73,78.79-83.13,14.8-46.06,45.63-77.31,91-95.17,21.27-36.53,51.57-62.93,103.33-65.18,27.83-58.32,73.09-86.26,145.48-66.95,40.92-29.33,92.67-26.92,133-6.45,41.95-3.43,78.55,4,104.21,33.46,65-2.65,125.31,9.34,175.49,53.21,0,0,84.32,25.55,126.7,94.36,0,0,70.74,49.33,70.64,109.65,0,0,52.08,39.36,45.74,126.16,0,0,22.57,59.82-3.35,134.42,0,0-8.63,88.79-76.55,148.47,0,0-18.73,79.43-103.72,92.62,0,0-4.19,87-99.8,83.21,0,0-25.93.69-58.17,28.59-44.61,38.6-102.94,57.94-161.46,50.51a304.13,304.13,0,0,1-83.91-23.66,55.1,55.1,0,0,0-49.52,3c-28,16.07-78.21,37-135.63,24.36,0,0-105,36.5-165.16-25C180.43,932.53,127.92,878.37,125.72,799.23Z"/><path class="cls-3" d="M382.75,997.2c-32.23,0-69.47-7.61-97.16-35.72C181.27,934.17,127,880,124.29,800.46,50.27,786.62,16.51,742,24,667.72-1.52,609.09,7.17,563.25,49.8,531.45c-10-35,4.53-62.82,43.12-82.67-15.66-51.36,3.88-89.06,55.13-106.29,8.83-35.08,25.9-75.86,78.91-83.32,14.68-44.9,45.32-76.86,91.07-95,24.83-42.38,57.71-63.2,103.4-65.43,30.41-63,78.2-85,146.14-67.11C605.12,5,656.2,2.59,701.13,25.25c47.15-3.77,81.37,7.18,104.56,33.46,74.64-2.91,130.46,14.05,175.59,53.4,5.66,1.8,86.12,28.43,127.06,94.64,4.66,3.35,70.57,51.73,71,110,5.74,4.72,51.57,45.24,45.76,126.65,1.7,4.82,21.35,63.55-3.39,135-.5,4.54-10.88,90.86-76.69,148.95-1.75,6.59-23,79.92-103.66,93.09-1,10.57-11.51,87-101.23,83.41-.15,0-25.75,1.06-57.15,28.23-45.79,39.64-105.06,58.18-162.61,50.86a307,307,0,0,1-84.31-23.77,53.8,53.8,0,0,0-48.19,3c-25.62,14.7-77.32,37.41-136.28,24.6A239.1,239.1,0,0,1,382.75,997.2ZM525.21,28.58c-45,0-78.44,23.88-101.5,72.21l-.38.79-.89,0c-45.21,2-77.66,22.45-102.12,64.45l-.26.44-.47.19c-45.46,17.9-75.78,49.61-90.12,94.25l-.29.88-.92.13c-40.86,5.41-64.77,30.71-77.55,82l-.2.79-.77.25C98.57,361.93,80,397.91,96.09,449.09l.38,1.19-1.12.56c-38.87,19.62-52.75,46-42.44,80.76l.29,1-.83.61c-42.17,31-50.78,75.94-25.57,133.68l.16.36,0,.38C19.47,740.71,52.8,784.5,126,797.78l1.17.22,0,1.19c2.19,78.82,55.86,132.5,159.52,159.55l.4.1.28.29c58.8,60.11,162.59,25,163.63,24.63l.39-.14.41.09C510,996.5,561.11,974,586.41,959.52a56.78,56.78,0,0,1,50.84-3.12A303.86,303.86,0,0,0,720.75,980c56.71,7.21,115.16-11.08,160.32-50.16,32.26-27.92,58-28.92,59.09-28.95,93.17,3.69,98.33-81,98.37-81.81l.06-1.2,1.18-.19c83-12.87,102.33-90.72,102.52-91.5l.1-.46.36-.31c66.67-58.59,76-146.62,76.06-147.5l.07-.35c25.43-73.19,3.59-132.82,3.36-133.41l-.11-.31,0-.32c6.2-84.93-44.64-124.48-45.15-124.87l-.59-.45v-.73c.09-58.85-69.31-108-70-108.45l-.41-.43c-41.61-67.56-125-93.47-125.87-93.72l-.55-.3C934.86,75.44,879.4,58.64,805.11,61.68l-.71,0-.46-.53c-22.92-26.36-55.65-36.83-103-33l-.42,0-.37-.19C655.91,5.58,605.53,8,568.71,34.4l-.56.4-.67-.18Q544.85,28.59,525.21,28.58Z"/><g class="cls-4"><path class="cls-5" d="M607.59,266.24c-2.1,15.9-16.32,29.35-32.31,30.56s-32.07-9.95-36.53-25.35c9.61-2.47,20.72,4.79,29.22-.33,11.5-6.93,9.72-31.65,22.18-35.62C603.24,231.33,608.74,257.51,607.59,266.24Z"/></g><g class="cls-6"><path class="cls-5" d="M143.52,820.21l-17.68-22.59s-.66-43.58,23-83.32a44.32,44.32,0,0,0,5.29-31.77c-4.36-21.29-7.35-58.16,14.17-86.55a60.38,60.38,0,0,0,11.84-26.7c3.65-22.1,15.17-61.63,51.42-77.83,13.39-6,23.07-18.09,25-32.66,2.35-18,11-41.27,37.79-55.9a53.29,53.29,0,0,0,25.3-31.77c6.84-22.86,24.21-56.76,68.12-74.31a67.35,67.35,0,0,0,32.41-26.43c14.7-23.36,47.51-60.72,111.08-72.11a58.18,58.18,0,0,0,35.17-20.44c19.46-24,63.39-63,138.56-52.75a60,60,0,0,0,34.26-5.32c15.14-7.33,40.46-15.89,71-11.53a73.08,73.08,0,0,0,33-3c23.58-7.75,71.88-16.77,137,6.28,2,.69,4,1.42,6,2.22,1.23.44,2.45.89,3.68,1.37,9.17,3.64,18.69,7.89,28.47,12.84l.19.11c6.85,3.57,14.27,7.76,21.86,12.61l-7.93,8.12C950,108,888.56,118.76,861,127.83a73.09,73.09,0,0,1-33.05,3c-30.48-4.36-55.83,4.2-70.94,11.53a60,60,0,0,1-34.26,5.32c-75.17-10.27-119.13,28.73-138.59,52.75A58,58,0,0,1,549,220.83c-63.6,11.39-96.38,48.75-111.08,72.14a67.59,67.59,0,0,1-32.44,26.43c-43.91,17.55-61.25,51.41-68.12,74.31a53.41,53.41,0,0,1-25.3,31.77c-26.76,14.62-35.41,37.88-37.79,55.87-1.9,14.56-11.54,26.69-25,32.66-36.25,16.2-47.77,55.72-51.39,77.86A60.77,60.77,0,0,1,186,618.57C164.5,647,167.54,683.8,171.89,705.12a44.42,44.42,0,0,1-5.32,31.74C142.89,776.63,143.52,820.21,143.52,820.21Z"/></g><g class="cls-4"><path class="cls-5" d="M542.47,347.1c4.13.53,9.09,1.91,10.1,5.95,1.39,5.62-6,9.05-11.65,10.08-27.12,4.86-54.57,8.5-81,16.35s-52.12,20.32-71.14,40.27c-5.06,5.3-9.72,11.19-16,15s-14.87,4.93-20.7.49c-19.62-15,38.44-51.44,49.05-57.8a225.66,225.66,0,0,1,88-30.35A212.85,212.85,0,0,1,542.47,347.1Z"/></g><g class="cls-7"><path class="cls-2" d="M1223.63,443.6c6.34-86.8-45.74-126.16-45.74-126.16.08-60.33-70.66-109.67-70.66-109.67-17.39-28.26-41.85-49.21-64.64-64.09l-6.29,8.59s75.51,88.83,38.51,130.92-68.63,3.65-98.47,67.18S972.5,467.09,945.73,490.8s-35.23,28.78-52.85,59.81S833,581,795.13,637.2s-140.72,11.55-179.94,13.53-68.58,47.29-68,107.64-35.49,93-71.16,70.34-42.63-29.29-71.54-25.1c-28.51,4.12-154,132.84-276.14,20.89,11.86,65.5,63.8,111.08,158,135.67,60.15,61.47,165.17,25,165.17,25,57.42,12.62,107.65-8.31,135.65-24.36a55.11,55.11,0,0,1,49.51-3,303,303,0,0,0,83.89,23.64C779.09,988.83,837.42,969.5,882,930.9c32.25-27.9,58.16-28.59,58.16-28.59,95.62,3.75,99.8-83.21,99.8-83.21,85-13.19,103.72-92.62,103.72-92.62C1211.64,666.8,1220.28,578,1220.28,578,1246.19,503.42,1223.63,443.6,1223.63,443.6Zm-627.31,432c-8.85,7.83-20.59,9.26-28.58,18.7-7,8.31-10.72,18.93-18.22,26.92-13.07,13.91-34.28,16.63-53.26,14.6s-37.6-7.85-56.68-7.66c-13,.15-25.83,3.09-38.78,3.86-15.52,1-32.23-1.58-42.77-14-3.92-4.68-5.32-11.21-2.81-16.78,4.2-9.26,15.13-8.92,24-11.38,14.68-4.1,26-17.46,41.15-19.13,10.46-1.15,20.65,3.57,29.51,9.26s17.16,12.44,27,16.19c18.87,7.2,40.92,1.76,57.15-10.27,10.83-8,19.36-18.6,26.22-30.25,8.08-13.69,27.26-16.17,37.59-4.07C603.89,858.66,605.5,867.51,596.32,875.59ZM738.78,865.4c-7.95,5-17.12,8.77-26.46,7.93s-18.63-7.44-20-16.72c-1.3-8.72,4.3-16.81,9.05-24.29,9.37-14.66,17.25-31.35,21.24-48.38,3-12.87-1.62-29.66,14.12-35.75,8.51-3.29,18.54-.78,25.69,4.91s11.67,14.14,14.26,22.93C786.47,809.35,768.37,847.11,738.78,865.4Zm363-428.43a114.29,114.29,0,0,1,22.2-31.74c6-6.06,18-22.44,27.77-21.43,19.93,2,4.55,26.25-1.47,33.05a122.41,122.41,0,0,0-30.31,78.2c-.09,6.62.28,13.56-2.62,19.52s-10.51,10.29-16.25,7c-3.82-2.15-5.49-6.67-6.61-10.85C1087.94,486.31,1091.13,459.78,1101.78,437ZM873.45,640.17c2.14-9.38,10.94-17.1,18.64-22.88s16.4-9.95,24.5-15.11c22.64-14.48,45.8-40.32,52.58-66.33,1.79-6.82,3.66-13.89,8.19-19.34s12.44-8.7,18.81-5.74c7.85,3.67,9.45,14,9.27,22.65-1,55.07-31.85,108.73-79,137.19-9.33,5.65-19.57,10.46-30.48,11s-22.58-3.68-28.4-12.9S863.86,645.39,873.45,640.17Zm242.2,15.9c-4.13,17.28-17.18,32.26-32.51,41.26a67.06,67.06,0,0,1-51.45,6.56c-5.63,19.49-19.14,36.38-36.34,47.12a84.13,84.13,0,0,1-58.46,11.4c-9.58,13.07-22.08,25.38-35.95,33.77-9.83,5.91-20.64,10.49-32,12s-23.38-.22-33.23-6.08c-3.1-1.88-6.06-4.22-7.74-7.42s-1.75-7.46.53-10.27c7.06-8.63,22.68-5.68,33.17-9.47,20.28-7.34,33.09-26.87,44.44-45.21a96.1,96.1,0,0,0,51.6-6.86c6.58-2.88,13-6.65,17.26-12.45,8-10.88,7.16-27.14,16.95-36.44,18.64,5.43,40.81,1.42,57.59-8.34a73,73,0,0,0,33.77-45.53c12.59-9.13,30-13.36,42-23.18,11.14-9.07,18.34-22.28,22.57-36a226.56,226.56,0,0,0,8.41-43c4.83-1.1,9.85,1.82,12.62,5.93s3.7,9.16,4.24,14.08C1178.36,583.89,1155,631.86,1115.65,656.07Z"/></g><g class="cls-4"><path class="cls-5" d="M328.63,656.33c-1.17,4.29-2.34,8.68-2,13.12s2.51,9,6.48,11c2.63,1.32,5.68,1.38,8.62,1.41,22.31.18,46.8-1.24,63.18-16.38,6.68-6.17,11.62-14.88,11.1-24s-7.73-18-16.82-18.33c-7,10.85-18.82,18.93-30.91,23.46A182.29,182.29,0,0,1,328.63,656.33Z"/></g><g class="cls-4"><path class="cls-5" d="M272.92,653.64c-1.55,3.3-3.07,6.9-2.39,10.47a11.61,11.61,0,0,0,5.87,7.57,24.67,24.67,0,0,0,9.43,2.72c3.46.41,7.35.39,9.93-1.95,2.32-2.12,2.9-5.53,3-8.67C299.18,647.5,281.55,635.29,272.92,653.64Z"/></g><g class="cls-6"><path class="cls-5" d="M804.69,59.83c-22.55-12.93-49.93-16-80.07-13.57-40.29-20.46-92-22.88-133,6.46C519.27,33.41,474,61.36,446.16,119.66c-51.74,2.27-82.05,28.66-103.33,65.18-45.35,17.86-76.17,49.13-91,95.17-48.3,6.4-68.13,40.34-78.78,83.13-54,17.81-70.2,56.25-54.6,105.9-41.64,21-53.07,49.23-43.18,82.49C30.17,584.67,25,631.54,49.24,687q-6.12,60,23.42,93.6-55.38-33-47.21-113.11C1.25,612,6.39,565.15,51.5,532c-9.88-33.26,1.55-61.49,43.19-82.49-15.61-49.65.61-88.09,54.59-105.9,10.66-42.79,30.49-76.74,78.79-83.13,14.8-46,45.62-77.31,91-95.17,21.28-36.52,51.55-62.91,103.33-65.18,27.82-58.31,73.1-86.26,145.48-66.95,40.92-29.33,92.68-26.91,133-6.45C742.59,23.33,779,30.65,804.69,59.83Z"/></g><g class="cls-6"><path class="cls-5" d="M1075.73,169.56c-36.3-26-71.4-36.63-71.4-36.63-50.19-43.87-110.5-55.86-175.49-53.21a92.57,92.57,0,0,0-23.5-19.52c64.9-2.6,125.07,9.42,175.2,53.22C980.54,113.42,1032.81,129.26,1075.73,169.56Z"/><path class="cls-2" d="M1074.87,170.76c-35.67-25.54-70.62-36.31-71-36.42l-.54-.3C958.63,95,903.23,78.15,828.9,81.19l-.71,0-.46-.53A91.62,91.62,0,0,0,804.6,61.47l-4.37-2.54,5.06-.2c74.81-3,130.75,14,176,53.38,4.4,1.4,54.49,17.9,95.46,56.38Zm-69.81-39.14a272.27,272.27,0,0,1,51.72,23.87,281.37,281.37,0,0,0-70.57-38.56A212.38,212.38,0,0,1,1005.06,131.62ZM845.58,77.9c49.43,0,90.26,9.49,125.12,29.28-42.08-33-93.52-47.6-160.45-45.68a94.75,94.75,0,0,1,19.23,16.73Q837.69,77.9,845.58,77.9Z"/></g><g class="cls-6"><path class="cls-5" d="M125.72,799.23c.14,4.76.45,9.41,1,14q-34.65-10.62-54-32.64Q94.31,793.57,125.72,799.23Z"/><path class="cls-2" d="M128.38,815.29l-2.14-.65C103,807.5,84.56,796.37,71.55,781.56l-6.21-7.07,8.07,4.84c14.18,8.49,31.87,14.7,52.58,18.45l1.17.21,0,1.2c.14,4.84.44,9.38.94,13.88ZM80.57,786.56C92.11,797.13,107,805.38,125,811.16c-.33-3.48-.56-7-.69-10.7C107.73,797.37,93.08,792.71,80.57,786.56Z"/></g><g class="cls-6"><path class="cls-5" d="M805.34,60.2c-.09,0-.19,0-.29,0a4.43,4.43,0,0,0-.36-.38A6,6,0,0,1,805.34,60.2Z"/><path class="cls-2" d="M810.68,62l-5.37-.32h-.37l-.61,0-.4-.46a2.57,2.57,0,0,0-.21-.24l-9-8,10.69,5.55a8.06,8.06,0,0,1,.79.46Z"/></g><path class="cls-2" d="M382.58,1007.32c-33.39,0-72.09-7.94-102-37-104-27.87-159.66-82.25-165.63-161.74C42.13,792.29,7.31,744.32,14,669.28-16.87,596.2,8.77,552.42,38.76,527.65,33.34,501.81,38.21,469,81.4,443.9,68.88,393,89.83,353.81,139.88,335c9.06-33.23,27.71-74.45,79.71-84.53,15.94-43.82,46.74-75.46,91.7-94.15,25.39-41.81,58.6-63.25,103.88-67C447,27.52,497.62,4.56,565.69,21,605.11-4.77,657-7,703.07,15.27c47-3.25,82,7.72,106.79,33.49,74.21-2.15,130.4,15.28,176.33,54.62,14.47,4.82,88.59,32,129.45,96.54,11.72,8.63,70,54.37,73.37,112.2,13.13,12.06,50.77,53.62,46,129.94,4.1,12.43,20,69.07-3.68,138.43-1.43,12.09-13.29,93.81-77.64,152.19-4.82,16.18-28.45,80.2-103.65,96.05-4.38,24.16-24.15,88-109.76,84.87-2.33.2-24.09,2.64-50.89,25.83-47.9,41.45-110,60.83-170.26,53.17a316.45,316.45,0,0,1-87-24.52,44,44,0,0,0-39.37,2.5c-26.46,15.18-79.57,38.51-140.62,26.23A245.8,245.8,0,0,1,382.58,1007.32Zm142.49-969c-41.2,0-71.09,21.78-92.51,66.66a11.27,11.27,0,0,1-9.69,6.41c-42.13,1.83-71.14,20.21-94.08,59.59a11.26,11.26,0,0,1-5.61,4.82c-43.19,17-70.78,45.83-84.37,88.12a11.27,11.27,0,0,1-9.26,7.73c-36.77,4.88-57.5,27.21-69.32,74.67a11.26,11.26,0,0,1-7.41,8c-45.82,15.13-61.75,46-47.37,91.81a11.26,11.26,0,0,1-5.68,13.45c-45.21,22.82-43,50.43-37.46,69.21a11.29,11.29,0,0,1-4.13,12.31C19.67,569.39,12.34,609.25,35.8,663a11.31,11.31,0,0,1,.88,5.66c-6.94,68,22.85,107.12,91.06,119.5A11.27,11.27,0,0,1,137,798.92c2.09,75,51.87,124.15,152.2,150.33a11.22,11.22,0,0,1,5.21,3c54.34,55.55,152.42,22.56,153.41,22.22a11.28,11.28,0,0,1,6.12-.36c54.92,12.08,103.51-9.3,127.59-23.12a66.61,66.61,0,0,1,59.66-3.59A293.72,293.72,0,0,0,722,970.21c54,6.87,109.6-10.58,152.65-47.84,34.89-30.19,64-31.31,65.26-31.34.24,0,.49,0,.74,0,83.46,3.27,87.94-69.39,88.09-72.49a11.28,11.28,0,0,1,9.54-10.6c76.16-11.82,93.76-81.15,94.48-84.09a11.39,11.39,0,0,1,3.52-5.86c63.59-55.88,72.69-140.25,72.78-141.1a10.9,10.9,0,0,1,.57-2.59c24.14-69.52,3.65-126.2,3.44-126.77a11.26,11.26,0,0,1-.69-4.78c5.77-79.1-39.41-114.87-41.33-116.36a11.36,11.36,0,0,1-4.44-9c.09-53.81-65.15-99.93-65.81-100.39a11.16,11.16,0,0,1-3.15-3.34c-39.55-64.21-119.58-89.23-120.38-89.48a11.27,11.27,0,0,1-4.14-2.3c-42.71-37.32-95.94-53.36-167.61-50.43a11.35,11.35,0,0,1-9-3.86C775.84,43.82,745.71,34.4,701.75,38a11.2,11.2,0,0,1-6-1.18c-32.13-16.32-80.87-23.42-121.3,5.56A11.27,11.27,0,0,1,565,44.1Q543.44,38.37,525.07,38.35Z"/><path class="cls-2" d="M114.44,799.4c0-2.22.06-3.9.15-5.78s.22-3.63.37-5.42c.29-3.6.71-7.15,1.19-10.7a209.77,209.77,0,0,1,4.12-21,175.58,175.58,0,0,1,15.45-40.29l2.66-4.77,1.13-2c.33-.54.59-1.11.88-1.67a32.53,32.53,0,0,0,2.49-7.08,33.15,33.15,0,0,0,.82-7.5,36.88,36.88,0,0,0-.22-3.79c-.1-.63-.15-1.26-.28-1.88l-.41-2.23a152.93,152.93,0,0,1-2.49-43.55c1.44-14.72,5.63-29.76,13.66-43a54.42,54.42,0,0,1,3.16-4.85c1.09-1.57,2.3-3.32,3-4.27a55.4,55.4,0,0,0,4.37-7.17,48.72,48.72,0,0,0,3.09-7.57c.37-1.29.74-2.59,1-3.9l.86-4.68a145.1,145.1,0,0,1,14-41.5A110.8,110.8,0,0,1,196.15,506a92.48,92.48,0,0,1,17.13-15.53c6.06-4.42,14.8-7.92,18-10.06a31.4,31.4,0,0,0,10.28-10.58,29,29,0,0,0,3.62-10.25l.39-2.48c.15-.94.26-1.88.46-2.82a88.27,88.27,0,0,1,6.95-22,80,80,0,0,1,12.9-19.59,85.63,85.63,0,0,1,17.84-15l5-2.92c1.25-.72,2.29-1.33,3.41-2.09a39.92,39.92,0,0,0,6.05-5.05A43,43,0,0,0,307,374.31a35.75,35.75,0,0,0,1.42-3.78l1.57-4.88q1.75-5.25,3.92-10.34a129.27,129.27,0,0,1,10.43-19.56,115.08,115.08,0,0,1,13.82-17.48c2.5-2.76,5.31-5.21,8-7.75l4.31-3.53a51.82,51.82,0,0,1,4.44-3.37l4.55-3.21,4.73-2.89c3.11-2,6.46-3.55,9.71-5.29s6.8-3,9.95-4.44a62.82,62.82,0,0,0,7.69-3.75,56.8,56.8,0,0,0,13.15-10.46,52.7,52.7,0,0,0,5.14-6.53l2.76-4.21c1-1.54,2-3,3.09-4.48a168.17,168.17,0,0,1,66.1-54.72,189.14,189.14,0,0,1,40.77-13.49l9.6-2a49.31,49.31,0,0,0,7.81-2.59,46.19,46.19,0,0,0,13.55-8.85c1-.92,1.91-1.89,2.81-2.89l3.09-3.65c2.29-2.82,4.79-5.44,7.24-8.11a167.48,167.48,0,0,1,16.09-14.61,152.24,152.24,0,0,1,79.72-32.66,190.73,190.73,0,0,1,43.07.66l2.26.25c.68.09,1.37.12,2.06.19,1.37.08,2.75.13,4.12.1a48.66,48.66,0,0,0,8.18-.81A46.16,46.16,0,0,0,730,113c1.29-.46,2.53-1,3.77-1.58s3.23-1.55,4.85-2.23a141.84,141.84,0,0,1,42.45-11.39,132.67,132.67,0,0,1,22.2-.48c1.86.08,3.7.28,5.55.48l4.9.53a62.39,62.39,0,0,0,8.43.24,67.57,67.57,0,0,0,16.69-2.76c3.16-.91,6.89-2.09,10.35-2.81,3.52-.89,7.07-1.47,10.61-2.15A207.94,207.94,0,0,1,944,95.36,245,245,0,0,1,983.14,109c6.35,2.65,12.41,5.89,18.5,9s11.85,6.84,17.69,10.29a1.62,1.62,0,0,1-1.4,2.9l-.06,0C992.7,121.42,967,113.77,941,110.27a222.93,222.93,0,0,0-38.89-2.06,188.27,188.27,0,0,0-37.91,4.87c-6.22,1.47-12,3.21-18.19,5.27A80.93,80.93,0,0,1,823,122.48a84.4,84.4,0,0,1-11.79-.53l-5.15-.68c-1.5-.21-3-.42-4.52-.52a101.82,101.82,0,0,0-18.23-.11,111.54,111.54,0,0,0-35.51,9.17c-1.48.63-2.64,1.23-4.34,2s-3.67,1.66-5.56,2.34a69.12,69.12,0,0,1-11.61,3.2,71.57,71.57,0,0,1-11.94,1.18c-2,0-4,0-6-.15-1-.09-2-.14-3-.27l-2.77-.31a168.74,168.74,0,0,0-37.7-.6,129.75,129.75,0,0,0-68.09,27.89,143.29,143.29,0,0,0-13.86,12.57c-2.1,2.32-4.28,4.57-6.24,7l-3.46,4.08c-1.35,1.52-2.75,3-4.23,4.37a68.6,68.6,0,0,1-20.16,13.18,72,72,0,0,1-11.38,3.78l-10.21,2.16a166.67,166.67,0,0,0-35.92,11.86,145.54,145.54,0,0,0-57.27,47.37c-.91,1.27-1.83,2.53-2.66,3.85l-2.78,4.24a75.12,75.12,0,0,1-7.37,9.36,78.82,78.82,0,0,1-18.41,14.66,83.92,83.92,0,0,1-10.48,5.13c-3,1.35-5.73,2.45-8.54,3.8s-5.51,2.72-8.06,4.4l-3.9,2.38-3.72,2.63a40.23,40.23,0,0,0-3.63,2.75L361,327.52c-2.2,2.08-4.51,4.05-6.52,6.31a91.56,91.56,0,0,0-11.25,14.23,105.83,105.83,0,0,0-8.6,16.11c-1.19,2.82-2.29,5.68-3.25,8.59l-1.53,4.75a58.19,58.19,0,0,1-2.14,5.69,65.7,65.7,0,0,1-13.52,20.21,61.72,61.72,0,0,1-9.46,7.88c-1.68,1.15-3.54,2.25-5.22,3.2l-3.76,2.22a58.61,58.61,0,0,0-22.36,25.06,65.87,65.87,0,0,0-5.18,16.47c-.15.71-.23,1.45-.35,2.17l-.39,2.52a52.49,52.49,0,0,1-1.38,6.33A51.15,51.15,0,0,1,261,481.15a54.07,54.07,0,0,1-17.61,18.22c-3.43,2.28-8,4.22-9.94,5.31a62.12,62.12,0,0,0-7.4,4.32,70,70,0,0,0-12.77,11.59,88.72,88.72,0,0,0-9.94,14.72,123.08,123.08,0,0,0-11.72,35l-1,5.27c-.41,2-.94,4-1.52,5.9a70.2,70.2,0,0,1-4.54,11.15,77.6,77.6,0,0,1-6.15,10.11c-1.31,1.73-2,2.78-2.83,4a38.1,38.1,0,0,0-2.36,3.62c-6,9.88-9.34,21.47-10.53,33.55a130.74,130.74,0,0,0,2.16,37l.51,2.74c.21,1,.31,2.08.46,3.13a57.75,57.75,0,0,1,.37,6.31,55.64,55.64,0,0,1-5.58,24.54c-.48.95-.94,1.9-1.48,2.82l-1.34,2.38-2.26,4.08A153.15,153.15,0,0,0,142.14,762a187.43,187.43,0,0,0-3.64,18.66c-.43,3.14-.8,6.29-1.06,9.42-.13,1.57-.24,3.13-.31,4.67s-.12,3.19-.12,4.34v.35a11.28,11.28,0,0,1-22.56,0Z"/><path class="cls-2" d="M116.06,799.38c0-4.07.2-7.42.5-11s.71-7.09,1.19-10.61a209.73,209.73,0,0,1,4.08-20.88,175,175,0,0,1,15.31-39.92l2.63-4.72,1.15-2.05c.34-.57.62-1.17.92-1.75a34.56,34.56,0,0,0,3.47-15.3,35.23,35.23,0,0,0-.23-4c-.1-.65-.15-1.32-.29-2l-.42-2.26a150.93,150.93,0,0,1-2.46-43.09c1.42-14.53,5.55-29.32,13.43-42.33a54.63,54.63,0,0,1,3.1-4.76c1.08-1.55,2.25-3.24,3-4.25a57.92,57.92,0,0,0,4.49-7.38,49.34,49.34,0,0,0,3.2-7.83c.39-1.34.76-2.68,1-4l.87-4.73a143.87,143.87,0,0,1,13.84-41A110.19,110.19,0,0,1,197.38,507a90.76,90.76,0,0,1,16.82-15.24c6-4.36,14.38-7.7,17.94-10A33.32,33.32,0,0,0,243,470.59a30.74,30.74,0,0,0,3-7.07,29.79,29.79,0,0,0,.81-3.75l.39-2.48c.15-.93.26-1.85.45-2.77a86.69,86.69,0,0,1,6.83-21.64,78.53,78.53,0,0,1,12.64-19.2A84.15,84.15,0,0,1,284.57,399l4.87-2.87c1.28-.73,2.39-1.38,3.54-2.16a42.15,42.15,0,0,0,6.3-5.26A44.6,44.6,0,0,0,308.46,375a39.4,39.4,0,0,0,1.48-3.92l1.56-4.88c1.15-3.45,2.45-6.85,3.87-10.21a126.06,126.06,0,0,1,10.31-19.31,112.55,112.55,0,0,1,13.63-17.24c2.46-2.73,5.23-5.15,7.92-7.66l4.25-3.48a53.62,53.62,0,0,1,4.38-3.32l4.49-3.17L365,298.9c3.07-2,6.38-3.5,9.59-5.23,3.23-1.57,6.71-3,9.85-4.38a62.48,62.48,0,0,0,7.88-3.86,57.85,57.85,0,0,0,13.53-10.76,52.81,52.81,0,0,0,5.3-6.73l2.77-4.21c1-1.52,2-3,3.05-4.44a166.58,166.58,0,0,1,65.47-54.19,187.43,187.43,0,0,1,40.43-13.37l9.64-2A51.47,51.47,0,0,0,540.6,187a47.81,47.81,0,0,0,14-9.15c1-1,2-2,2.91-3l3.11-3.68c2.27-2.78,4.75-5.38,7.17-8a164.34,164.34,0,0,1,15.94-14.47,150.59,150.59,0,0,1,78.88-32.32,189.72,189.72,0,0,1,42.69.66l2.29.26c.71.09,1.42.12,2.13.19,1.42.09,2.84.13,4.26.11a51.91,51.91,0,0,0,8.44-.84,47.5,47.5,0,0,0,8.15-2.25c1.33-.47,2.62-1,3.89-1.63s3.21-1.54,4.82-2.22a139.89,139.89,0,0,1,42-11.23A130.3,130.3,0,0,1,803.18,99c1.83.08,3.66.28,5.48.48l4.92.54a64.16,64.16,0,0,0,8.66.26,68.31,68.31,0,0,0,17.15-2.86,167.88,167.88,0,0,1,20.76-5,208,208,0,0,1,83.59,4c27,6.55,52.27,18,75.49,32a1.39,1.39,0,0,1-1.21,2.48l0,0-9.45-3.6c-3.14-1.19-6.2-2.56-9.41-3.55-6.37-2.11-12.64-4.41-19.12-6.06a273.83,273.83,0,0,0-38.76-8.5,221.22,221.22,0,0,0-39.07-2.39,189.74,189.74,0,0,0-38.25,4.67c-6.27,1.45-12.15,3.18-18.38,5.25a80,80,0,0,1-22.62,4,84.1,84.1,0,0,1-11.55-.5l-5.13-.68c-1.52-.21-3-.42-4.59-.52a105.08,105.08,0,0,0-18.52-.06,113.4,113.4,0,0,0-36,9.33c-1.49.63-2.7,1.25-4.37,2s-3.59,1.61-5.44,2.28A69.07,69.07,0,0,1,726,135.77a71.66,71.66,0,0,1-11.68,1.15c-1.95,0-3.91,0-5.85-.15-1-.08-2-.14-2.92-.26l-2.73-.31a170.33,170.33,0,0,0-38.08-.6,131.24,131.24,0,0,0-68.92,28.23,145.58,145.58,0,0,0-14,12.72c-2.12,2.34-4.32,4.62-6.31,7.07l-3.42,4c-1.32,1.48-2.7,2.91-4.13,4.27a67.13,67.13,0,0,1-19.69,12.87,69.8,69.8,0,0,1-11.13,3.69l-10.16,2.16a167.89,167.89,0,0,0-36.27,12,147.11,147.11,0,0,0-57.9,47.89c-.92,1.29-1.85,2.56-2.69,3.9l-2.79,4.24a71.74,71.74,0,0,1-7.21,9.16,77.51,77.51,0,0,1-18,14.36,83.64,83.64,0,0,1-10.29,5c-3,1.35-5.8,2.47-8.64,3.85s-5.59,2.75-8.17,4.46l-4,2.41-3.77,2.67a38.79,38.79,0,0,0-3.69,2.79l-3.58,2.93c-2.23,2.11-4.57,4.11-6.62,6.41a93.44,93.44,0,0,0-11.43,14.46,106.85,106.85,0,0,0-8.73,16.36c-1.21,2.85-2.32,5.76-3.3,8.71L328.33,377a57,57,0,0,1-2.09,5.55,63.82,63.82,0,0,1-13.18,19.71,61.77,61.77,0,0,1-9.22,7.69c-1.64,1.12-3.44,2.18-5.09,3.12l-3.85,2.27a60.19,60.19,0,0,0-23,25.73,67.38,67.38,0,0,0-5.3,16.87c-.16.73-.25,1.48-.37,2.22l-.39,2.52a49.83,49.83,0,0,1-6.23,17.64A52.48,52.48,0,0,1,242.56,498c-3.35,2.22-7.67,4.07-9.8,5.23a63.94,63.94,0,0,0-7.59,4.43,72.37,72.37,0,0,0-13.08,11.87,91.17,91.17,0,0,0-10.13,15A124.41,124.41,0,0,0,190.08,570l-1,5.23c-.39,1.95-.92,3.86-1.48,5.76a70,70,0,0,1-4.43,10.89,78,78,0,0,1-6,9.9c-1.27,1.68-2,2.78-2.84,4a36.31,36.31,0,0,0-2.42,3.71c-6.14,10.12-9.55,21.95-10.75,34.23a132,132,0,0,0,2.18,37.47l.51,2.71c.19,1,.3,2,.44,3a57.12,57.12,0,0,1,.36,6.13,53.94,53.94,0,0,1-1.34,12.21,53.37,53.37,0,0,1-4.08,11.63c-.47.91-.92,1.84-1.44,2.73L156.47,722l-2.29,4.12a155.05,155.05,0,0,0-13.6,35.49c-1.52,6.21-2.78,12.5-3.68,18.84-.43,3.16-.8,6.34-1.06,9.51s-.43,6.48-.45,9.16v.38a9.67,9.67,0,0,1-19.33-.08Z"/><path class="cls-2" d="M431.35,103.76c-.79,1.27-1.75,3.23-2.58,4.95s-1.67,3.61-2.43,5.48c-1.56,3.72-3,7.55-4.28,11.44a187.79,187.79,0,0,0-6.18,24.07v0a2.78,2.78,0,0,1-5.51-.27,196.26,196.26,0,0,1-.53-26c.21-4.39.58-8.78,1.13-13.2.26-2.22.59-4.43,1-6.67s.76-4.33,1.48-7l.15-.56a9.82,9.82,0,0,1,19,5.11A10,10,0,0,1,431.35,103.76Z"/><path class="cls-2" d="M237.49,262.7c-1.48,4-2.89,8.65-4.13,13.08s-2.34,9-3.3,13.61a153.41,153.41,0,0,0-3.41,27.88v.05a2.78,2.78,0,0,1-5.49.54,162,162,0,0,1-3.49-29.49q-.25-7.44,0-14.91c.17-5,.42-9.85,1-15.16v0A9.74,9.74,0,0,1,238,260.41,10.77,10.77,0,0,1,237.49,262.7Z"/><path class="cls-2" d="M328.37,167.91c-.89,2.26-1.81,5.14-2.63,7.79s-1.59,5.49-2.3,8.28c-1.41,5.57-2.65,11.23-3.62,17a216.43,216.43,0,0,0-3.18,34.87v0a2.77,2.77,0,0,1-5.5.47A225.8,225.8,0,0,1,307.42,200c-.15-6.12,0-12.26.32-18.43a166.5,166.5,0,0,1,2-18.85v0A9.73,9.73,0,0,1,328.91,166,10.18,10.18,0,0,1,328.37,167.91Z"/><path class="cls-2" d="M158.94,344.18c-.4,3.07-.69,6.85-.8,10.35s-.15,7.18-.08,10.78a166.25,166.25,0,0,0,2,21.57,127.42,127.42,0,0,0,5.16,21.06,104.3,104.3,0,0,0,9.16,19.75l.08.14a2.76,2.76,0,0,1-4.53,3.13,111.34,111.34,0,0,1-12.95-19.45,138.86,138.86,0,0,1-9-21.69A182,182,0,0,1,142.26,367c-.68-3.88-1.28-7.77-1.72-11.71s-.8-7.75-.91-12.18a9.7,9.7,0,1,1,19.4-.51A9.92,9.92,0,0,1,159,344Z"/><path class="cls-2" d="M102.4,441.58c1.15,4.68,2.8,9.89,4.5,14.78s3.68,9.86,5.81,14.69a134.91,134.91,0,0,0,15.81,27.36l0,0a2.77,2.77,0,0,1-4,3.79A143.59,143.59,0,0,1,102,477.3q-5-6.84-9.38-14.07c-3-4.89-5.69-9.62-8.37-15.08a9.73,9.73,0,1,1,18.18-6.64Z"/><path class="cls-2" d="M60.82,529.44a7.74,7.74,0,0,0,.29,1.44c.13.59.35,1.23.54,1.86.41,1.27.84,2.58,1.39,3.87a70.28,70.28,0,0,0,3.62,7.75,103.59,103.59,0,0,0,9.76,14.74,127.77,127.77,0,0,0,12.34,13.32c2.19,2.15,4.6,4,6.91,6.09s4.88,3.79,7.34,5.7l.15.11a2.77,2.77,0,0,1-3,4.64c-2.84-1.47-5.74-2.9-8.58-4.44s-5.65-3.19-8.35-5a139.13,139.13,0,0,1-15.8-11.79,117.57,117.57,0,0,1-14-14.53,87,87,0,0,1-6-8.45c-1-1.47-1.84-3-2.71-4.63-.43-.82-.86-1.61-1.26-2.5a27.92,27.92,0,0,1-1.27-3L40,528.27a11.31,11.31,0,1,1,20.86,1.17Z"/><path class="cls-2" d="M32.29,660.64A172.93,172.93,0,0,0,58,685c9.47,7.16,19.86,13.33,31.38,15.86l.13,0a2.77,2.77,0,0,1-.67,5.48A74.52,74.52,0,0,1,69.47,703a125.76,125.76,0,0,1-18-7.41,177.81,177.81,0,0,1-16.83-9.71,176.75,176.75,0,0,1-16-11.58,9.72,9.72,0,0,1,12.34-15,9.31,9.31,0,0,1,1.26,1.25Z"/><path class="cls-2" d="M576.41,37.71c-.91,1.17-2,2.91-3,4.46s-1.95,3.25-2.86,4.92a102.27,102.27,0,0,0-4.92,10.36,62.85,62.85,0,0,0-4.93,22.3v.13a2.78,2.78,0,0,1-5.47.68,64.15,64.15,0,0,1-2.05-12.89,90.7,90.7,0,0,1,.35-13.08,116.22,116.22,0,0,1,2.09-12.92c.47-2.14,1-4.27,1.58-6.39s1.18-4.14,2.1-6.59l.19-.49a9.82,9.82,0,1,1,16.92,9.51Z"/><path class="cls-2" d="M716.81,63a83.83,83.83,0,0,1,7.12,20.74c1.4,7.28,1.88,15.19-.42,23.28a33.18,33.18,0,0,1-5.82,11.5,37.8,37.8,0,0,1-9.84,8.67,60.68,60.68,0,0,1-23.28,7.53l-.2,0a9.71,9.71,0,1,1-2.53-19.26,10.05,10.05,0,0,1,1.64-.07,44.24,44.24,0,0,0,17-2.29,20.44,20.44,0,0,0,11.35-10.38c2.47-5.06,3.37-11.46,3.17-18a76.86,76.86,0,0,0-3.27-19.59l0-.17a2.76,2.76,0,0,1,5.12-2Z"/><path class="cls-2" d="M410.8,216.43A138.4,138.4,0,0,1,415.51,239a112.49,112.49,0,0,1,.61,23.47,69.35,69.35,0,0,1-6.17,24,49.86,49.86,0,0,1-17.41,20.32l0,0a9.7,9.7,0,1,1-11-16,9.83,9.83,0,0,1,1.29-.75,35.41,35.41,0,0,0,7.28-4.63,36.34,36.34,0,0,0,6-6.76,55,55,0,0,0,7.74-18.19,101.94,101.94,0,0,0,2.7-21.07,132,132,0,0,0-1.11-21.69v-.13a2.76,2.76,0,0,1,5.38-1.17Z"/><path class="cls-2" d="M208,446.67a136.73,136.73,0,0,1,5.08,17.93,129.34,129.34,0,0,1,2.65,18.7,96.86,96.86,0,0,1-.8,19.6,66.43,66.43,0,0,1-6.63,19.93,9.72,9.72,0,0,1-17.19-9.06,9.37,9.37,0,0,1,1-1.51l.05-.06a49,49,0,0,0,7.36-13.14A81.67,81.67,0,0,0,203.34,483a120.51,120.51,0,0,0,.87-17.28,130.74,130.74,0,0,0-1.49-17.5l0-.12a2.77,2.77,0,0,1,5.34-1.38Z"/><path class="cls-2" d="M142.65,543.62a108.67,108.67,0,0,1,20,32.54c4.68,12.14,7.34,26.13,4.54,40.45a54,54,0,0,1-8.44,20,56.79,56.79,0,0,1-15.1,14.81,76.05,76.05,0,0,1-37,12.42,2.84,2.84,0,0,1-1.7-5.25l0,0c10.51-6.45,20.52-12.62,28.31-20.12s12.89-16,15-25.74,1.17-20.76-1.15-31.94c-1.12-5.6-2.61-11.26-4.21-17s-3.52-11.48-5.15-17.49l0-.07a2.83,2.83,0,0,1,2-3.47A2.79,2.79,0,0,1,142.65,543.62Z"/><path class="cls-2" d="M316.65,308.12a108.52,108.52,0,0,1,9.29,37.07c.81,13-.88,27.13-7.86,39.94A54.12,54.12,0,0,1,304,401.68a56.61,56.61,0,0,1-18.87,9.57,76,76,0,0,1-39,.68,2.84,2.84,0,0,1,0-5.51h0c12-3,23.38-5.83,33.06-10.64s17.12-11.37,22-20,7.39-19.44,8.54-30.79c.63-5.68.91-11.52,1.12-17.48s.11-12,.36-18.22v-.08a2.82,2.82,0,0,1,5.4-1Z"/><path class="cls-2" d="M585.38,129.59A108.5,108.5,0,0,1,577.45,167c-5,12-12.7,24-24.6,32.42a54.14,54.14,0,0,1-19.93,8.69,56.66,56.66,0,0,1-21.15.3,75.92,75.92,0,0,1-35.33-16.5,2.84,2.84,0,0,1,2.38-5h.06c12.06,2.59,23.56,5,34.37,5s20.37-2.69,28.58-8.33S557,169.34,563,159.65c3.06-4.83,5.88-10,8.68-15.22s5.37-10.74,8.33-16.22l0-.07a2.83,2.83,0,0,1,5.31,1.45Z"/><path class="cls-2" d="M216.37,861.58c11.06,6.7,23.37,7.34,36,6.39s26.14-4.24,41.32-4.44a89.36,89.36,0,0,1,11.58.66,75.08,75.08,0,0,1,11.66,2.55,69.61,69.61,0,0,1,20.76,10.81C350,886.88,359.06,900.38,362,915a3.26,3.26,0,0,1-6,2.31l-.06-.1c-6.84-11.41-16.07-20.59-27-26.47a65.43,65.43,0,0,0-16.87-6.56,67.76,67.76,0,0,0-18-1.44c-12.6.44-26.3,3.36-41.58,2.72A68.69,68.69,0,0,1,230,880.63c-7.22-3-14.09-7.91-18.22-14.57a3.3,3.3,0,0,1,4.5-4.56Z"/><path class="cls-2" d="M162,673.78a191.71,191.71,0,0,0,24.76,46.31c10.39,14,22.94,26.38,37.5,35.72a115.93,115.93,0,0,0,48.29,18,118.89,118.89,0,0,0,52.72-5.66,3.24,3.24,0,0,1,2.67,5.86h0A112.61,112.61,0,0,1,301,785.07a108.41,108.41,0,0,1-29.44,3.51,115.27,115.27,0,0,1-29.65-4.44,130.18,130.18,0,0,1-27.69-11.7,146.3,146.3,0,0,1-44.44-39.71,163.68,163.68,0,0,1-26.17-53,9.68,9.68,0,0,1,18.35-6.11Z"/><path class="cls-2" d="M242.76,609.22c15.58,9.22,31.8,17.59,48.34,23.63s33.6,10.08,49.75,8.61a65.65,65.65,0,0,0,22.81-6,67,67,0,0,0,19.13-14.06l4.12-4.56,4-5.07a115.51,115.51,0,0,0,7.13-10.6,104.13,104.13,0,0,0,10.19-23.08,110.8,110.8,0,0,0,4.32-25.23c.66-8.77.56-17.81,1.34-27.83a70.41,70.41,0,0,1,3-15.86,42.24,42.24,0,0,1,9-15.6,51.74,51.74,0,0,1,14-10.26,67.34,67.34,0,0,1,7.36-3.24,77.05,77.05,0,0,1,7.33-2.47c10.11-2.72,18.57-4.08,27.55-6,4.43-1,8.88-1.91,13.27-2.94s8.84-2,13.21-3.1c8.8-2,17.55-4.24,26.15-6.74,4.32-1.19,8.57-2.57,12.77-4,2.09-.73,4.15-1.51,6.18-2.32l3-1.29c.5-.21,1-.44,1.41-.67s1-.54,1.15-.57l2-.33a2.91,2.91,0,0,1,2.73,4.72c-.63.78-1,1.18-1.47,1.69s-.91,1-1.36,1.4c-.91.93-1.86,1.69-2.82,2.51a68.3,68.3,0,0,1-5.91,4.38,127.72,127.72,0,0,1-12.45,7.35c-4.27,2.17-8.59,4.15-13,6.05-4.4,1.72-8.8,3.55-13.25,5.09-8.91,3.12-17.92,5.79-27,8.15s-18.67,4.32-26.32,6.59a53.61,53.61,0,0,0-5.78,1.91,46,46,0,0,0-5.32,2.29,31.4,31.4,0,0,0-8.31,5.91,22.94,22.94,0,0,0-4.85,8.1A50.54,50.54,0,0,0,433.76,527c-.93,8.36-.89,17.8-1.74,27.42a151,151,0,0,1-5.16,29.17A123.93,123.93,0,0,1,415.1,611.1a136.54,136.54,0,0,1-8,12.52l-4.43,5.94-5,5.82a84.39,84.39,0,0,1-25.08,18.67,78.48,78.48,0,0,1-30.44,7.62A99.8,99.8,0,0,1,312,658.3a143.46,143.46,0,0,1-14.08-4.51c-4.55-1.8-9-3.76-13.31-5.94a169.46,169.46,0,0,1-24.47-15,154.83,154.83,0,0,1-21.49-18.69,3.25,3.25,0,0,1,4-5Z"/><path class="cls-2" d="M269.53,446.66c-.48,1.95-.93,4.58-1.29,6.94s-.67,4.9-.9,7.37a139.51,139.51,0,0,0-.63,14.88,109,109,0,0,0,4.17,29.22,68.92,68.92,0,0,0,13.75,25.55c6.35,7.44,14.78,13.08,24.06,17.06l.08,0a3.22,3.22,0,0,1-2.23,6,73,73,0,0,1-28.84-16.39c-8.35-7.69-14.57-17.53-18.94-27.91a122.53,122.53,0,0,1-8.13-32.53,154.87,154.87,0,0,1-1-16.67c0-2.79,0-5.59.15-8.39s.31-5.48.73-8.71a9.68,9.68,0,0,1,19.21,2.47C269.67,446,269.61,446.32,269.53,446.66Z"/><path class="cls-2" d="M536.33,347.67a321.3,321.3,0,0,0-36.66,2.26,235.4,235.4,0,0,0-35,7.15,228.61,228.61,0,0,0-33.48,12.52A310.1,310.1,0,0,0,399,387.2l0,0a3.29,3.29,0,0,1-4.43-4.68C402,371.69,412,362.6,423.05,355.21a132.81,132.81,0,0,1,75.86-21.87c13.3.37,26.59,2.78,38.71,8a3.29,3.29,0,0,1-1.26,6.31Z"/><path class="cls-2" d="M572.1,214.82a56.36,56.36,0,0,1,11.48,9.55,38.83,38.83,0,0,1,8.4,14.3,30.51,30.51,0,0,1,.13,18.78,33.23,33.23,0,0,1-10.71,15.44,41.69,41.69,0,0,1-15.56,8,46.4,46.4,0,0,1-16.54,1.26c-10.61-1.08-19.75-4.78-28.17-9.31a3.34,3.34,0,0,1,1.52-6.27c9.59-.18,18.67.49,26.69-.51a42.76,42.76,0,0,0,10.92-2.6,30.74,30.74,0,0,0,8.71-5.27,19.85,19.85,0,0,0,5.23-7,17.39,17.39,0,0,0,1.15-8.65,41.22,41.22,0,0,0-2.86-11c-1.47-4-3.61-8-5.36-12.6a3.41,3.41,0,0,1,2-4.4A3.47,3.47,0,0,1,572.1,214.82Z"/><path class="cls-2" d="M673.68,211.93a367.93,367.93,0,0,1,23.07,29.81,239.93,239.93,0,0,1,19.39,33.07,175.62,175.62,0,0,1,7.34,18.1,132.16,132.16,0,0,1,7.53,39,130,130,0,0,1-.93,20.1,118.27,118.27,0,0,1-4.32,19.84,92.07,92.07,0,0,1-8.31,18.77,84.25,84.25,0,0,1-12.37,16.57,89.22,89.22,0,0,1-15.88,12.94,104.36,104.36,0,0,1-17.8,9.07,139.06,139.06,0,0,1-18.52,6,268.88,268.88,0,0,1-37.36,6.36,3.24,3.24,0,0,1-1.34-6.31c11.87-3.83,23.74-7.3,35-11.73a167,167,0,0,0,16.3-7.3A120.23,120.23,0,0,0,680.13,407a72,72,0,0,0,12.18-11.5,68.3,68.3,0,0,0,9.28-13.67,94.67,94.67,0,0,0,9.52-32.13A128.09,128.09,0,0,0,710,315.43a170.67,170.67,0,0,0-9.62-33.83c-8.5-22.35-20.83-43.76-32.06-66.11a3.25,3.25,0,0,1,5.36-3.58Z"/><path class="cls-2" d="M811.27,238.55c11.93,34.14,15.32,71.39,11.48,107.77s-15.28,72-32.46,104.57l-3.23,6.1-3.53,5.94c-2.37,3.95-4.63,7.92-7.37,11.87-5.36,7.85-11.63,15.65-20.07,22.16a53.18,53.18,0,0,1-14.46,8l-2,.71a24.94,24.94,0,0,1-2.51.66,30.49,30.49,0,0,1-4.92.67,42.09,42.09,0,0,1-4.49,0l-3.67-.25a93.81,93.81,0,0,0-23.79,1.32c-16,2.8-31.85,8.94-46.48,16.89a119.85,119.85,0,0,0-36.68,31.49l-2,2.64c-.74,1-1.52,1.92-2.31,2.87-1.56,1.9-3.21,3.73-4.9,5.53a105,105,0,0,1-11,10,92.55,92.55,0,0,1-12.52,8.37c-2.2,1.24-4.47,2.36-6.78,3.41l-2.85,1.33c-.89.44-1.81.81-2.68,1.3-14.14,7.23-26.57,18.22-36.48,31.22a133.82,133.82,0,0,0-13.06,20.73,106.13,106.13,0,0,0-8.13,22.75,109.39,109.39,0,0,0-2.91,24.14,115.19,115.19,0,0,0,.55,12.18l.78,6.37c.33,2.46.54,4.94.65,7.42a94.47,94.47,0,0,1-3.23,29.46,92.58,92.58,0,0,1-5.06,14c-.5,1.13-1,2.25-1.6,3.35l-1.58,3.06c-1,1.83-1.9,3.7-2.8,5.58a152.59,152.59,0,0,0-8.84,23.46,159,159,0,0,0-5.15,24.61,111.73,111.73,0,0,0-.55,24.69A98.28,98.28,0,0,0,490.1,869c5.77,15.51,15.7,29.72,29.66,39.57l0,0a3.23,3.23,0,0,1-3.25,5.56c-16.9-8.06-30.33-22.93-38.5-40-1.07-2.12-1.91-4.34-2.88-6.52s-1.62-4.46-2.44-6.7c-.65-2.28-1.32-4.57-1.91-6.88s-1.07-4.65-1.45-7a113.05,113.05,0,0,1-1.23-28.46,162.87,162.87,0,0,1,13.58-54.36c1-2.16,1.94-4.3,3-6.42l1.41-2.89c.44-.88.84-1.77,1.23-2.67a75.51,75.51,0,0,0,3.82-11.11,74.74,74.74,0,0,0,2.19-23.31q-.17-2.94-.6-5.85l-.95-6.83a139,139,0,0,1-.87-14.41,130.26,130.26,0,0,1,3-28.71,127.07,127.07,0,0,1,9.35-27.45,148.8,148.8,0,0,1,14.95-24.5c11.5-15.27,26.18-28.59,43.66-37.67,1.07-.6,2.2-1.09,3.31-1.63l3.17-1.51c1.73-.8,3.44-1.64,5.1-2.6a71.72,71.72,0,0,0,9.56-6.48,84,84,0,0,0,8.61-8c1.34-1.45,2.65-2.92,3.9-4.46.63-.77,1.26-1.53,1.85-2.33l2-2.63a137.39,137.39,0,0,1,43.69-37.32c16.61-8.86,34.33-15.71,53.38-19a115.57,115.57,0,0,1,29.28-1.4l3,.22a19.75,19.75,0,0,0,2.16,0,13.87,13.87,0,0,0,1.68-.2,5.56,5.56,0,0,0,.71-.17l1.12-.38a31.52,31.52,0,0,0,8.81-4.75c5.73-4.25,11-10.29,15.69-17,2.39-3.32,4.59-7,6.84-10.67l3.37-5.45,3.08-5.63a281.15,281.15,0,0,0,20.51-47.07l3.78-12.31,3.2-12.49c1-4.17,1.79-8.4,2.71-12.6s1.42-8.48,2.16-12.72A358.19,358.19,0,0,0,805,240.08v0a3.24,3.24,0,0,1,6.26-1.51Z"/><path class="cls-2" d="M364.89,714.67c6.58-2.38,14.22-1.6,20.78,1.1a40.29,40.29,0,0,1,16.85,13.14,55.21,55.21,0,0,1,9,18.88,86.41,86.41,0,0,1,2.77,19.64c.43,12.83-1.05,24.59-1.24,35.63s.75,21.61,5.46,31.91l0,.1a3.31,3.31,0,0,1-5,4c-5.41-4-9.36-9.79-12.22-15.85a67.56,67.56,0,0,1-5.37-19.1c-1.75-12.91-.76-25.12-.93-36.26s-1.48-21.56-5.95-30.23C384.7,729.4,376.46,722,365.89,721h-.18a3.29,3.29,0,0,1-.82-6.36Z"/><path class="cls-2" d="M816.63,101.11a120.76,120.76,0,0,1,37.19,24.56,137.89,137.89,0,0,1,26.69,35.43,133.93,133.93,0,0,1,14,41.68,110.86,110.86,0,0,1-1.36,43.28,3.26,3.26,0,0,1-6.42-.56v0a164.75,164.75,0,0,0-7.26-39.21,158.43,158.43,0,0,0-16.19-35.35,152.61,152.61,0,0,0-24.21-29.82,150.31,150.31,0,0,0-30.79-22.52l-.07,0a9.68,9.68,0,0,1,8.38-17.42Z"/><path class="cls-2" d="M739.5,558.19c-.58,9.83-4,19.32-9,27.82A80.9,80.9,0,0,1,711,608.23a85,85,0,0,1-25.89,14.19c-9.35,3.09-19.28,4.56-29,3.37a3.34,3.34,0,0,1-1-6.35l.06,0a222.17,222.17,0,0,0,23.23-11.84,159.29,159.29,0,0,0,20.4-14.32,186.64,186.64,0,0,0,18-17.18c5.69-6.19,11-12.84,16.63-20.09l0-.05a3.37,3.37,0,0,1,6,2.26Z"/><path class="cls-2" d="M992.71,157.11c9.44,6.14,16.78,15.16,22.19,25.09a89.67,89.67,0,0,1,9.93,32.4,95.21,95.21,0,0,1-2.09,33.74,76.57,76.57,0,0,1-14.53,30,3.3,3.3,0,0,1-5.77-2.86v0a167.64,167.64,0,0,0,4.53-29.57,144.83,144.83,0,0,0-1.22-28.81,168.44,168.44,0,0,0-6.66-27.92,245.89,245.89,0,0,0-11.23-27.74l0-.06a3.35,3.35,0,0,1,4.87-4.2Z"/><path class="cls-2" d="M905.57,308.17c2.86,8.1,3.8,16.38,4,24.62a116.1,116.1,0,0,1-2.31,24.54A135.73,135.73,0,0,1,900.45,381a98,98,0,0,1-11.66,21.9,3.37,3.37,0,0,1-6.09-2.08v-.05C883,392.55,884,384.72,885,377s2.19-15.38,3.38-23,2.48-15.2,4.14-22.81a153.06,153.06,0,0,1,6.64-23.09v0a3.44,3.44,0,0,1,6.44.12Z"/><path class="cls-2" d="M875.64,451.22c-5,19.09-10.58,38-16.25,56.82s-11.48,37.57-17.91,56.43c-3.3,9.38-6.85,18.74-10.76,28a264.46,264.46,0,0,1-13.23,27.35,228.37,228.37,0,0,1-16.65,25.87,182.94,182.94,0,0,1-20.75,23.13,153.34,153.34,0,0,1-25,19A123.47,123.47,0,0,1,726,700.52a116.1,116.1,0,0,1-31.47,4.65,103.37,103.37,0,0,1-16-1.23c-2.65-.39-5.28-.94-7.89-1.54-2.4-.57-4.38-1-6.61-1.39a65.33,65.33,0,0,0-26.14.89,55.55,55.55,0,0,0-12.26,4.69,74.41,74.41,0,0,0-11.33,7.28c-13.83,11.26-23.29,28.81-25.51,47.46v0a3.23,3.23,0,0,1-6.43-.37,78,78,0,0,1,23.94-56.35A76.51,76.51,0,0,1,619.05,695a68.56,68.56,0,0,1,14.84-6.79,75.64,75.64,0,0,1,32.3-3c2.63.3,5.48.82,7.89,1.27,2.2.4,4.4.77,6.63,1a86,86,0,0,0,13.43.4,101.48,101.48,0,0,0,26.59-4.72C738,677.74,753.56,667.61,767,655a173.19,173.19,0,0,0,18.43-20.88A208.35,208.35,0,0,0,801,610.54a411.67,411.67,0,0,0,24.35-52.13c3.68-9,7.19-18.13,10.71-27.31s7.21-18.31,10.8-27.47c7.34-18.26,14.74-36.51,22.75-54.54a3.23,3.23,0,0,1,6.08,2.13Z"/><path class="cls-2" d="M724.65,738.12a57.27,57.27,0,0,1,6.89,22.54,76.06,76.06,0,0,1-1.39,23.64,72.06,72.06,0,0,1-8.64,22.07,54.55,54.55,0,0,1-16,17.41,3.44,3.44,0,0,1-5.24-3.71l0-.09c1.91-7.33,4-13.89,5.89-20.44s3.57-12.95,5.08-19.44,2.75-13,3.82-19.75l3.19-21v0a3.41,3.41,0,0,1,6.33-1.19Z"/><path class="cls-2" d="M1158,512.51a97.62,97.62,0,0,1-15.07,70.88,132.37,132.37,0,0,1-24.56,28c-9.71,8.15-21.5,14.91-34.92,17.78h0l8-8.93a68.14,68.14,0,0,1-10.88,32.55A67.43,67.43,0,0,1,1055.23,676c-10.63,5.44-22,7.51-33.26,7.5a72.52,72.52,0,0,1-33.15-7.8l-.1-.05,14.17-9.22a68.64,68.64,0,0,1-32.34,62.33,79.15,79.15,0,0,1-34,11.09c-12,1-24.93-.89-36.18-7.51l-.16-.08,14-4.88a106.55,106.55,0,0,1-50.8,56.54A100.88,100.88,0,0,1,826,794.12a117.25,117.25,0,0,1-38.18-3.23l-.18,0,12-8.23A120.41,120.41,0,0,1,772.71,840a117.28,117.28,0,0,1-50.53,35.25,3.23,3.23,0,0,1-2.44-6,107.52,107.52,0,0,0,42.71-37.09,104.06,104.06,0,0,0,18-51.8,9.16,9.16,0,0,1,11.07-8.44l.94.21.16,0a98.11,98.11,0,0,0,31.85,2.69,81.6,81.6,0,0,0,30.25-8.15,87.27,87.27,0,0,0,41.47-46.17,9.65,9.65,0,0,1,12.45-5.59c.34.13.67.28,1,.44l.54.28.1.05c7,4.14,15.83,5.67,24.73,4.9a59.81,59.81,0,0,0,25.56-8.36,49.34,49.34,0,0,0,23.08-44.45,9.66,9.66,0,0,1,13.72-9.43l.45.22.07,0c7,3.7,15.7,5.53,24.25,5.57s17.2-1.69,24.24-5.33a48.07,48.07,0,0,0,18-16.59,48.85,48.85,0,0,0,7.83-23.25v-.11a9.54,9.54,0,0,1,8-8.82h0c9.82-1.13,19.58-5.37,28.43-11.51a117.93,117.93,0,0,0,24-22.81,87.94,87.94,0,0,0,19.07-62.39,3.23,3.23,0,0,1,6.39-.85Z"/><path class="cls-2" d="M1218.68,454.31a16.2,16.2,0,0,0-8.14-7,24.83,24.83,0,0,0-12.61-1.71c-9.07,1.12-18.14,7-25.2,14.72v0a3.24,3.24,0,0,1-5.16-3.86,61.74,61.74,0,0,1,11.17-13.72,46.14,46.14,0,0,1,16-9.66,39.36,39.36,0,0,1,20.08-1.32A34.24,34.24,0,0,1,1234,442.47l.71.8a9.79,9.79,0,0,1-14.65,13A10.54,10.54,0,0,1,1218.68,454.31Z"/><path class="cls-2" d="M1150.19,388.27a189.37,189.37,0,0,0-21.74,21.3,129.67,129.67,0,0,0-27,51,189.06,189.06,0,0,0-5.43,29.95v.05a3.32,3.32,0,0,1-6.37.88c-4.25-10.53-5.5-22.22-4.51-33.71A87.84,87.84,0,0,1,1117,397.64c9-7.26,19.34-12.78,30.44-15.17a3.32,3.32,0,0,1,2.85,5.77Z"/><path class="cls-2" d="M1102.58,277.68a58.89,58.89,0,0,1,12.86,35.52,65.83,65.83,0,0,1-2.6,19.45l-1.55,4.71c-.59,1.54-1.29,3.05-2,4.58s-1.53,3-2.31,4.48c-.94,1.47-1.72,2.94-2.82,4.4l-1.62,2.18-2,2.23a27.29,27.29,0,0,1-2.81,2.4c-.87.61-1.57,1.05-2.38,1.55a43.23,43.23,0,0,1-10,4.32,59.11,59.11,0,0,1-20.69,2.06c-3.32-.21-7-.88-9.17-1.1a47.75,47.75,0,0,0-7.46-.37,52.71,52.71,0,0,0-14.63,2.35,49.24,49.24,0,0,0-24,16.24c-.78.95-1.46,2-2.22,2.95s-1.49,2.22-2.21,3.34c-1.43,2.29-2.78,4.63-4,7A110.62,110.62,0,0,0,994.64,411c-7.13,21.06-9.42,44.23-11.85,67.69a3.25,3.25,0,0,1-6.45.07c-3-23.52-3.74-48.07,2.35-72.41a95.08,95.08,0,0,1,6.22-18c1.31-2.91,2.76-5.76,4.3-8.55.79-1.41,1.54-2.75,2.45-4.17s1.85-2.88,2.87-4.27a65,65,0,0,1,33.2-23.29,68.44,68.44,0,0,1,20.17-3c6.63-.12,14.25,1.47,18.47,2.12a41.11,41.11,0,0,0,14.36-.62,32.86,32.86,0,0,0,6.34-2.26l1.39-.73c.17-.19.25-.1.59-.41l1-.95,1.12-1.29c3.11-3.54,5.6-8.29,7.68-13a55.07,55.07,0,0,0,3.9-15.14,56.27,56.27,0,0,0,.4-7.91,63.55,63.55,0,0,0-.94-7.95c-.79-5.37-2.92-10.47-5.12-15.68l-.08-.2a3.24,3.24,0,0,1,1.72-4.24A3.27,3.27,0,0,1,1102.58,277.68Z"/><path class="cls-2" d="M972.9,529.25a42.14,42.14,0,0,1,1.32,11.08,55.81,55.81,0,0,1-1.53,11.18,66.66,66.66,0,0,1-9.29,20.35,90.42,90.42,0,0,1-14.5,16.55,173.32,173.32,0,0,1-16.53,13c-11.2,7.91-22.28,14.61-31.88,22.57S882.4,640.94,877,652.62l0,.08a3.28,3.28,0,0,1-6.25-1.5,48.61,48.61,0,0,1,1.74-10.85,65,65,0,0,1,4-10.31,82.06,82.06,0,0,1,12.56-17.92c9.82-10.77,21.43-18.81,32.15-26.46s20.95-14.93,29-23.93,14.42-19.43,16.28-32l0-.11a3.28,3.28,0,0,1,6.41-.36Z"/><path class="cls-2" d="M1040.36,828.39A243.88,243.88,0,0,0,932.06,816a3.23,3.23,0,0,1-1.08-6.36,256.87,256.87,0,0,1,114.76.19h0a9.69,9.69,0,1,1-4.36,18.88C1041.06,828.61,1040.7,828.51,1040.36,828.39Z"/><path class="cls-2" d="M951.73,909.65c-42.71-19.06-95.2-18.52-139,2.89a3.22,3.22,0,0,1-3.08-5.66c43.5-26.11,99.27-32.38,149.13-15.24h.05a9.68,9.68,0,0,1-6.3,18.31C952.26,909.87,952,909.76,951.73,909.65Z"/><path class="cls-2" d="M609.31,815.45a155.66,155.66,0,0,0,8.36,55.87,138.16,138.16,0,0,0,27.79,47.41,170.92,170.92,0,0,0,20.35,18.59l5.66,4,2.83,2,3,1.83,5.89,3.72,6.14,3.36c16.41,8.94,34.19,15.67,52.49,21.27h0a9.68,9.68,0,0,1-4.9,18.71A219.75,219.75,0,0,1,679.12,971a176.64,176.64,0,0,1-26.21-17.17,162.06,162.06,0,0,1-22.55-22.13,136.79,136.79,0,0,1-27.77-56.14,138.81,138.81,0,0,1-3.48-30.83c.1-10.34,1-20.45,3.88-30.58a3.23,3.23,0,0,1,6.33,1Z"/><g class="cls-7"><path class="cls-2" d="M674.23,224.41c-12.62,2-20.76,15.2-22.09,27.9s2.32,25.32,4.21,37.94c5.12,34.27-4.58,72.45-31.64,94.09C578.84,421,504.23,398.56,458.88,435.86c-25.57,21-57,34-68.92,64.94-12.53,32.54-10.37,72.79-35.6,96.86C339.28,612,315.89,617,296.28,609.94c-9.89-3.56-18.7-9.84-28.83-12.63s-22.92-.8-27.92,8.44a24.41,24.41,0,0,0,9.22,12.32c23.08,15.26,47.84,33.46,75.37,36.24s57.31-7.34,73.35-29.88c11.72-16.46,15.07-37.29,17.6-57.33s4.79-40.81,14.84-58.33,30.36-31,50-26.31C537.68,459.33,600.1,442.53,660.6,428c32.1-7.71,51.18-41.73,61.44-73.11,6.64-20.29-2.35-44.24-9-64.53C705.17,266.45,688.1,245.43,674.23,224.41Z"/></g><g class="cls-7"><path class="cls-2" d="M201.38,680.21c11.81,1.91,20.9,11,29.84,19,15.66,13.93,33.67,25.66,53.75,31.68s42.41,6,61.49-2.75c5.32-2.42,10.46-5.52,16.22-6.48s12.55.89,15.19,6.1c3.93,7.73-3.22,16.37-10.13,21.61-31.08,23.57-71.43,35.4-110,29.68-29.7-4.41-57.9-19.57-77.55-42.33-8.44-9.77-16.25-19.73-11.88-32.94C173.07,689.38,185.29,677.62,201.38,680.21Z"/></g><g class="cls-7"><path class="cls-2" d="M811.14,250.24c-10.36-.76-19.72,7.27-23.95,16.75s-4.48,20.18-4.83,30.56c-.83,24.84-2.67,49.85-9.28,73.82s-18.28,47-36.44,64C703.86,466,656,472.57,615.12,491.13c-33.84,15.38-63.27,39.31-95.38,57.84-33.31,19.23-56.54,52.19-62.13,90.24-.1.71-.21,1.43-.3,2.14-4,29.29-2.12,59.06-.69,88.54a30.69,30.69,0,0,0,4.26,14.64c12,19.46,33.83,7.36,39.35-8.42,4.37-12.46,1.94-26.11,1-39.29a169.67,169.67,0,0,1,13-78.26c22.66-7.34,44-23.26,62-38.89s34.66-32.79,53.65-47.18,40.8-26.09,64.48-28.74c19.08-2.13,41.29-4.23,56.57-15.87,11.16-8.5,18-21.35,24.47-33.78q14.1-27,28.21-54.1C826.62,355.84,818.22,299.54,811.14,250.24Z"/></g><g class="cls-7"><path class="cls-2" d="M574.33,134.26c-.27,6.12,2.14,17.39,2.21,23.49,13.26-16.25,33.65-29,54.31-32.55,20.16-3.49,40.79.12,61.24-.13,34.09-.43,69-13.35,101.28-24.35A134.27,134.27,0,0,0,756.86,70c-9.55-5.46-22.29-9.48-30.88-2.61-3.87,3.09-6,7.86-9.64,11.28-8.06,7.65-20.75,6.66-31.77,5.17l-48.11-6.51c-9.94-1.34-20.26-2.66-29.84.34-14,4.38-23.85,17.44-28.29,31.4-2.78,8.73-1.68,18.65-4.5,27-3,9-11.58,19.24-18.37,25.68-8.17,7.75-19.35,13.11-30.52,11.67-20.31-2.62-35.7-26.3-55.81-22.43-16.77,3.23-24.42,23.79-40,30.87-10.55,4.8-23.18,2.63-33.94,7-9.63,3.88-16.58,12.52-21.36,21.73s-7.8,19.23-12.23,28.61a105.33,105.33,0,0,1-54.52,51.87,39.58,39.58,0,0,0-22,23.61c-3.32,10.36-3.69,21.4-5.64,32.1s-5.9,21.72-14.45,28.45c-9.73,7.65-23.22,8.16-34.42,13.43A44.08,44.08,0,0,0,206.26,421c-.71,4.42-2.7,7-6.73,8.92s-8.54,2.67-12.64,4.46c-9.61,4.2-15.92,13.72-19.46,23.59s-4.81,20.39-7.52,30.51-7.22,20.31-15.51,26.71c-17.6,13.59-38.89,27.2-38.51,49.42.2,11.77,4.59,23.64,1.86,35.09-4.42,18.52-25.31,28.43-33.26,45.74C66,663.88,76.74,688.53,96,694.91c4.55,1.51,7.32,5.49,9.57,9.72s3.38,9,4.37,13.64a292.43,292.43,0,0,1,6.31,55.64c12-19.91,23.93-38.48,30.7-60.72,10.3-33.8,7.6-70,4.81-105.21,18.42-25.53,23.92-58.09,39.74-85.31A113.43,113.43,0,0,1,239.64,478c15.42-7.49,20.08-29.75,26.8-45.51a220.67,220.67,0,0,1,52.64-74.93c21.45-20,37.16-45.79,60.36-63.68l52.69-40.64c31.29-24.13,65.39-49.33,104.88-50.79,10.25-15.05,26-29.7,40.09-41.3C582.13,157,574.5,140.79,574.33,134.26Z"/></g><g class="cls-7"><path class="cls-2" d="M762.48,162c8.14,4,13,12.44,17,20.61,3.39,7,6.49,14.37,6.57,22.13.06,5.93-2.45,12.67-8.08,14.5-5,1.61-10.35-1.26-14-5-5.31-5.37-8.46-12.44-12.14-19s-8.35-13.15-15.26-16.19c-2.81-1.24-6-1.87-8.38-3.77-8.86-6.94,3-11.64,8.38-13.28C744.94,159.47,754.29,158,762.48,162Z"/></g><g class="cls-7"><path class="cls-2" d="M845.54,140.44c-6,7.27-7.28,17.53-5.78,26.85s5.43,18,8.82,26.84c16.2,42.12,20.49,88.18,17.27,133.19s-13.78,89.21-26.47,132.52c-6.63,22.64-16.87,47.34-29,67.56s-26.52,39.08-38,59.69c-3.62,6.5-7,13.35-7.72,20.75s1.71,15.51,7.78,19.8,15.9,3.13,19.42-3.42c13-3.73,25.14-14.19,30.36-26.69s7-26.12,9.76-39.37,6.94-26.75,15.94-36.87C876.77,488.83,874,439,887.21,397.65c18.85-58.88,19.54-123.86,3.91-183.68-4.06-15.54-3.17-31.05-9.57-45.78S861.29,143.63,845.54,140.44Z"/></g><g class="cls-7"><path class="cls-2" d="M972.05,290.62c16.5,4.74,30.59-6.39,36.93-20.11,4.69-10.15,5.72-21.6,5.81-32.79.23-31.45-7.45-64.49-27.49-88.25-7-8.31-20.24-8.45-26.75.25a15.62,15.62,0,0,0-.88,1.3c-3.74,6.15-4.31,13.81-3.1,20.9s4,13.8,6.76,20.47c9.45,23.22,17.75,49.27,9.33,72.89-1.43,4-3.33,7.88-4.25,12-.86,3.9-.74,8.24,1.33,11.63A4,4,0,0,0,972.05,290.62Z"/></g><g class="cls-4"><path class="cls-5" d="M929.75,346.78a15.28,15.28,0,0,0,1.26,8,8.53,8.53,0,0,0,6.27,4.81c3.94.5,7.52-2.48,9.69-5.8,3.82-5.85,7.27-21.45-1.14-25.36C936.66,324.2,930.27,340.2,929.75,346.78Z"/></g><g class="cls-4"><path class="cls-5" d="M897.48,472.61c2,7.15,11.25,9.1,16.79,4.14,9.18-8.23,15.5-19.55,19.37-31.35,4.58-14,6.05-28.81,7.48-43.48.74-7.52,1.4-15.54-3.68-21.88a11,11,0,0,0-10.87-4.1c-10.33,2.5-8.61,18-8.29,27.83a85,85,0,0,1-12.4,46.91c-3.48,5.68-7.76,11.24-8.69,17.84A9.81,9.81,0,0,0,897.48,472.61Z"/></g><g class="cls-4"><path class="cls-5" d="M326.44,469.11c-2.31,4.42-3.56,9.66-2.14,14.44s6.07,8.77,11,8.3c4.37-.41,7.9-4.06,9.48-8.16s1.59-8.61,1.58-13c0-2.05,0-4.23-1.18-5.92C339.93,456.93,329.56,463.13,326.44,469.11Z"/></g></g></g></svg>