<svg xmlns="http://www.w3.org/2000/svg" fill-opacity="0.8" xmlns:xlink="http://www.w3.org/1999/xlink" preserveAspectRatio="xMidYMid" viewBox="0 0 1531 754">
<g transform="translate(765.5,377) scale(1,1) translate(-765.5,-377)"><path id="path0" d="M 670.9878519710659 720.3777068912798
c 0 29.56516119153108 -7.234028802183135 8.492120767780204 -15.72614956996334 8.492120767780204
S 639.5355528311392 749.9428680828108 639.5355528311392 720.3777068912798
s 7.234028802183135 -8.492120767780204 15.72614956996334 -8.492120767780204
S 670.9878519710659 690.8125456997487 670.9878519710659 720.3777068912798
z" fill="none" stroke="none"></path>
<circle cx="0" cy="0" r="5.616661292542487" fill="#ffffff">
  <animateMotion begin="-4.882249719425995s" dur="10s" repeatCount="indefinite">
    <mpath xlink:href="#path0"></mpath>
  </animateMotion>
</circle><path id="path1" d="M 1320.6833194616067 379.0081780997818
c 0 36.9874977702321 -9.050132433141895 10.624068508470923 -19.674200941612817 10.624068508470923
S 1281.3349175783812 415.9956758700139 1281.3349175783812 379.0081780997818
s 9.050132433141895 -10.624068508470923 19.674200941612817 -10.624068508470923
S 1320.6833194616067 342.0206803295497 1320.6833194616067 379.0081780997818
z" fill="none" stroke="none"></path>
<circle cx="0" cy="0" r="4.045916051438552" fill="#0074e4">
  <animateMotion begin="-1.3317459478851146s" dur="10s" repeatCount="indefinite">
    <mpath xlink:href="#path1"></mpath>
  </animateMotion>
</circle><path id="path2" d="M 118.24497405553517 93.77439155422968
c 0 23.642199658235697 -5.784793533398095 6.790844582684722 -12.575638116082818 6.790844582684722
S 93.09369782336954 117.41659121246538 93.09369782336954 93.77439155422968
s 5.784793533398095 -6.790844582684722 12.575638116082818 -6.790844582684722
S 118.24497405553517 70.13219189599398 118.24497405553517 93.77439155422968
z" fill="none" stroke="none"></path>
<circle cx="0" cy="0" r="7.149276687279874" fill="#74c005">
  <animateMotion begin="-3.824714928385875s" dur="10s" repeatCount="indefinite">
    <mpath xlink:href="#path2"></mpath>
  </animateMotion>
</circle><path id="path3" d="M 173.6355546552524 173.79381281681623
c 0 25.92448246357704 -6.34322443257736 7.446393899112555 -13.789618331689915 7.446393899112555
S 146.05631799187256 199.71829528039328 146.05631799187256 173.79381281681623
s 6.34322443257736 -7.446393899112555 13.789618331689915 -7.446393899112555
S 173.6355546552524 147.86933035323918 173.6355546552524 173.79381281681623
z" fill="none" stroke="none"></path>
<circle cx="0" cy="0" r="5.629299231998324" fill="#ffffff">
  <animateMotion begin="-5.4382308350554105s" dur="10s" repeatCount="indefinite">
    <mpath xlink:href="#path3"></mpath>
  </animateMotion>
</circle><path id="path4" d="M 527.6878654362357 99.8984084585364
c 0 30.111444163342075 -7.367693784647527 8.649031834151447 -16.016725618798976 8.649031834151447
S 495.65441419863777 130.00985262187848 495.65441419863777 99.8984084585364
s 7.367693784647527 -8.649031834151447 16.016725618798976 -8.649031834151447
S 527.6878654362357 69.78696429519432 527.6878654362357 99.8984084585364
z" fill="none" stroke="none"></path>
<circle cx="0" cy="0" r="5.272402026149378" fill="#74c005">
  <animateMotion begin="-3.907971465325364s" dur="10s" repeatCount="indefinite">
    <mpath xlink:href="#path4"></mpath>
  </animateMotion>
</circle><path id="path5" d="M 833.3266472330857 383.5790623778391
c 0 25.181457493282256 -6.161420450483956 7.232971833176818 -13.394392283660775 7.232971833176818
S 806.5378626657642 408.76051987112135 806.5378626657642 383.5790623778391
s 6.161420450483956 -7.232971833176818 13.394392283660775 -7.232971833176818
S 833.3266472330857 358.3976048845568 833.3266472330857 383.5790623778391
z" fill="none" stroke="none"></path>
<circle cx="0" cy="0" r="6.242692860921196" fill="#0074e4">
  <animateMotion begin="-0.06077890702838484s" dur="10s" repeatCount="indefinite">
    <mpath xlink:href="#path5"></mpath>
  </animateMotion>
</circle><path id="path6" d="M 1264.480745108098 676.6216311952422
c 0 27.931260132065635 -6.834244500399038 8.022808761338002 -14.85705326173704 8.022808761338002
S 1234.766638584624 704.5528913273079 1234.766638584624 676.6216311952422
s 6.834244500399038 -8.022808761338002 14.85705326173704 -8.022808761338002
S 1264.480745108098 648.6903710631766 1264.480745108098 676.6216311952422
z" fill="none" stroke="none"></path>
<circle cx="0" cy="0" r="7.252557688316897" fill="#0074e4">
  <animateMotion begin="-9.356883585160453s" dur="10s" repeatCount="indefinite">
    <mpath xlink:href="#path6"></mpath>
  </animateMotion>
</circle><path id="path7" d="M 380.7286007214148 199.2094569288858
c 0 30.852425234159995 -7.548997663677445 8.861866822577872 -16.410864486255317 8.861866822577872
S 347.90687174890417 230.0618821630458 347.90687174890417 199.2094569288858
s 7.548997663677445 -8.861866822577872 16.410864486255317 -8.861866822577872
S 380.7286007214148 168.3570316947258 380.7286007214148 199.2094569288858
z" fill="none" stroke="none"></path>
<circle cx="0" cy="0" r="5.5486187355503755" fill="#74c005">
  <animateMotion begin="-9.923388365865264s" dur="10s" repeatCount="indefinite">
    <mpath xlink:href="#path7"></mpath>
  </animateMotion>
</circle><path id="path8" d="M 457.1278644276756 476.41378331884016
c 0 31.877052235234643 -7.799704270323369 9.156174578205695 -16.955878848529064 9.156174578205695
S 423.2161067306175 508.2908355540748 423.2161067306175 476.41378331884016
s 7.799704270323369 -9.156174578205695 16.955878848529064 -9.156174578205695
S 457.1278644276756 444.5367310836055 457.1278644276756 476.41378331884016
z" fill="none" stroke="none"></path>
<circle cx="0" cy="0" r="5.31767628462374" fill="#ffffff">
  <animateMotion begin="-9.86866842795049s" dur="10s" repeatCount="indefinite">
    <mpath xlink:href="#path8"></mpath>
  </animateMotion>
</circle><path id="path9" d="M 607.495508629459 446.18339193297334
c 0 29.42478784574078 -7.199682132468488 8.45180076420214 -15.651482896670627 8.45180076420214
S 576.1925428361178 475.6081797787141 576.1925428361178 446.18339193297334
s 7.199682132468488 -8.45180076420214 15.651482896670627 -8.45180076420214
S 607.495508629459 416.7586040872326 607.495508629459 446.18339193297334
z" fill="none" stroke="none"></path>
<circle cx="0" cy="0" r="5.4715358768404325" fill="#ffffff">
  <animateMotion begin="-5.133120373306214s" dur="10s" repeatCount="indefinite">
    <mpath xlink:href="#path9"></mpath>
  </animateMotion>
</circle><path id="path10" d="M 659.2168976878788 62.04875427616214
c 0 30.63115706665134 -7.494857580138094 8.798311072336023 -16.293168652474115 8.798311072336023
S 626.6305603829305 92.67991134281348 626.6305603829305 62.04875427616214
s 7.494857580138094 -8.798311072336023 16.293168652474115 -8.798311072336023
S 659.2168976878788 31.417597209510802 659.2168976878788 62.04875427616214
z" fill="none" stroke="none"></path>
<circle cx="0" cy="0" r="7.309476000969546" fill="#74c005">
  <animateMotion begin="-4.16697391805627s" dur="10s" repeatCount="indefinite">
    <mpath xlink:href="#path10"></mpath>
  </animateMotion>
</circle><path id="path11" d="M 950.9948383676546 505.19822907460514
c 0 20.582969100687503 -5.036258396976729 5.9121294225379 -10.948387819514629 5.9121294225379
S 929.0980627286252 525.7811981752926 929.0980627286252 505.19822907460514
s 5.036258396976729 -5.9121294225379 10.948387819514629 -5.9121294225379
S 950.9948383676546 484.61525997391766 950.9948383676546 505.19822907460514
z" fill="none" stroke="none"></path>
<circle cx="0" cy="0" r="5.37587306316786" fill="#0074e4">
  <animateMotion begin="-0.2766111043327846s" dur="10s" repeatCount="indefinite">
    <mpath xlink:href="#path11"></mpath>
  </animateMotion>
</circle><path id="path12" d="M 1108.816848997749 85.82661157343537
c 0 24.499528238250626 -5.994565419997493 7.037098536518798 -13.03166395651629 7.037098536518798
S 1082.7535210847166 110.326139811686 1082.7535210847166 85.82661157343537
s 5.994565419997493 -7.037098536518798 13.03166395651629 -7.037098536518798
S 1108.816848997749 61.327083335184746 1108.816848997749 85.82661157343537
z" fill="none" stroke="none"></path>
<circle cx="0" cy="0" r="4.6763658801942025" fill="#ffffff">
  <animateMotion begin="-2.0717985624833823s" dur="10s" repeatCount="indefinite">
    <mpath xlink:href="#path12"></mpath>
  </animateMotion>
</circle><path id="path13" d="M 1292.0479209881848 176.10265187739193
c 0 24.120896047411602 -5.901921373302837 6.928342481703332 -12.83026385500617 6.928342481703332
S 1266.3873932781723 200.22354792480354 1266.3873932781723 176.10265187739193
s 5.901921373302837 -6.928342481703332 12.83026385500617 -6.928342481703332
S 1292.0479209881848 151.98175582998033 1292.0479209881848 176.10265187739193
z" fill="none" stroke="none"></path>
<circle cx="0" cy="0" r="5.8001816430599" fill="#74c005">
  <animateMotion begin="-9.80567823719943s" dur="10s" repeatCount="indefinite">
    <mpath xlink:href="#path13"></mpath>
  </animateMotion>
</circle><path id="path14" d="M 1120.2409248506024 186.28649377608693
c 0 30.849034781675396 -7.5481680848780215 8.860892969204635 -16.409061054082656 8.860892969204635
S 1087.422802742437 217.1355285577623 1087.422802742437 186.28649377608693
s 7.5481680848780215 -8.860892969204635 16.409061054082656 -8.860892969204635
S 1120.2409248506024 155.43745899441154 1120.2409248506024 186.28649377608693
z" fill="none" stroke="none"></path>
<circle cx="0" cy="0" r="5.236387687059875" fill="#74c005">
  <animateMotion begin="-3.9381586128935764s" dur="10s" repeatCount="indefinite">
    <mpath xlink:href="#path14"></mpath>
  </animateMotion>
</circle><path id="path15" d="M 174.09850405674158 278.2583633632848
c 0 19.561082769964482 -4.786222379884926 5.618608880734479 -10.404831260619405 5.618608880734479
S 153.28884153550277 297.81944613324924 153.28884153550277 278.2583633632848
s 4.786222379884926 -5.618608880734479 10.404831260619405 -5.618608880734479
S 174.09850405674158 258.69728059332033 174.09850405674158 278.2583633632848
z" fill="none" stroke="none"></path>
<circle cx="0" cy="0" r="6.125665080709795" fill="#ffffff">
  <animateMotion begin="-5.420529607932549s" dur="10s" repeatCount="indefinite">
    <mpath xlink:href="#path15"></mpath>
  </animateMotion>
</circle><path id="path16" d="M 74.08296389205225 459.83219472508625
c 0 32.03322228446421 -7.83791609087954 9.201031932771635 -17.038948023651173 9.201031932771635
S 40.0050678447499 491.86541700955047 40.0050678447499 459.83219472508625
s 7.83791609087954 -9.201031932771635 17.038948023651173 -9.201031932771635
S 74.08296389205225 427.79897244062204 74.08296389205225 459.83219472508625
z" fill="none" stroke="none"></path>
<circle cx="0" cy="0" r="4.68582972089471" fill="#74c005">
  <animateMotion begin="-7.707655525090895s" dur="10s" repeatCount="indefinite">
    <mpath xlink:href="#path16"></mpath>
  </animateMotion>
</circle><path id="path17" d="M 1374.375868770349 474.02620656010566
c 0 25.466864589583384 -6.231254101706572 7.3149504672207595 -13.546204568927331 7.3149504672207595
S 1347.2834596324942 499.49307114968906 1347.2834596324942 474.02620656010566
s 6.231254101706572 -7.3149504672207595 13.546204568927331 -7.3149504672207595
S 1374.375868770349 448.55934197052227 1374.375868770349 474.02620656010566
z" fill="none" stroke="none"></path>
<circle cx="0" cy="0" r="5.401733432258161" fill="#ffffff">
  <animateMotion begin="-0.6239191201875371s" dur="10s" repeatCount="indefinite">
    <mpath xlink:href="#path17"></mpath>
  </animateMotion>
</circle><path id="path18" d="M 1392.0906896210242 485.66202412208946
c 0 34.50047717814719 -8.441606118057292 9.909711529893343 -18.351317647950637 9.909711529893343
S 1355.3880543251228 520.1625013002366 1355.3880543251228 485.66202412208946
s 8.441606118057292 -9.909711529893343 18.351317647950637 -9.909711529893343
S 1392.0906896210242 451.16154694394226 1392.0906896210242 485.66202412208946
z" fill="none" stroke="none"></path>
<circle cx="0" cy="0" r="6.995678463765286" fill="#0074e4">
  <animateMotion begin="-5.989426199361814s" dur="10s" repeatCount="indefinite">
    <mpath xlink:href="#path18"></mpath>
  </animateMotion>
</circle><path id="path19" d="M 1423.922152308618 650.11276820957
c 0 29.947698154530627 -7.3276282718532375 8.601998406088585 -15.929626677941823 8.601998406088585
S 1392.0628989527345 680.0604663641006 1392.0628989527345 650.11276820957
s 7.3276282718532375 -8.601998406088585 15.929626677941823 -8.601998406088585
S 1423.922152308618 620.1650700550395 1423.922152308618 650.11276820957
z" fill="none" stroke="none"></path>
<circle cx="0" cy="0" r="5.936441145778081" fill="#74c005">
  <animateMotion begin="-3.5759787725838366s" dur="10s" repeatCount="indefinite">
    <mpath xlink:href="#path19"></mpath>
  </animateMotion>
</circle><path id="path20" d="M 1505.1508364395902 13.430449697950749
c 0 29.805862019244923 -7.292923685559927 8.56125823957035 -15.854181925130277 8.56125823957035
S 1473.4424725893298 43.236311717195676 1473.4424725893298 13.430449697950749
s 7.292923685559927 -8.56125823957035 15.854181925130277 -8.56125823957035
S 1505.1508364395902 -16.375412321294174 1505.1508364395902 13.430449697950749
z" fill="none" stroke="none"></path>
<circle cx="0" cy="0" r="6.3860886693062495" fill="#ffffff">
  <animateMotion begin="-2.8357394830817717s" dur="10s" repeatCount="indefinite">
    <mpath xlink:href="#path20"></mpath>
  </animateMotion>
</circle><path id="path21" d="M 1363.7102497660558 61.08036675669606
c 0 35.10448779686923 -8.589395950297789 10.083203941653927 -18.672599891951716 10.083203941653927
S 1326.3650499821524 96.18485455356529 1326.3650499821524 61.08036675669606
s 8.589395950297789 -10.083203941653927 18.672599891951716 -10.083203941653927
S 1363.7102497660558 25.97587895982683 1363.7102497660558 61.08036675669606
z" fill="none" stroke="none"></path>
<circle cx="0" cy="0" r="4.760899414891106" fill="#ffffff">
  <animateMotion begin="-3.3687444258641475s" dur="10s" repeatCount="indefinite">
    <mpath xlink:href="#path21"></mpath>
  </animateMotion>
</circle><path id="path22" d="M 1365.911890823817 18.501870959633397
c 0 37.056044608963056 -9.066904531980322 10.643757494063857 -19.71066202604418 10.643757494063857
S 1326.4905667717285 55.55791556859646 1326.4905667717285 18.501870959633397
s 9.066904531980322 -10.643757494063857 19.71066202604418 -10.643757494063857
S 1365.911890823817 -18.55417364932966 1365.911890823817 18.501870959633397
z" fill="none" stroke="none"></path>
<circle cx="0" cy="0" r="6.701088639834075" fill="#ffffff">
  <animateMotion begin="-0.8521186569354189s" dur="10s" repeatCount="indefinite">
    <mpath xlink:href="#path22"></mpath>
  </animateMotion>
</circle><path id="path23" d="M 556.923262572747 701.2759683633785
c 0 36.795723728470165 -9.003208997391635 10.568984475198878 -19.572193472590513 10.568984475198878
S 517.7788756275661 738.0716920918487 517.7788756275661 701.2759683633785
s 9.003208997391635 -10.568984475198878 19.572193472590513 -10.568984475198878
S 556.923262572747 664.4802446349083 556.923262572747 701.2759683633785
z" fill="none" stroke="none"></path>
<circle cx="0" cy="0" r="7.026078472716424" fill="#ffffff">
  <animateMotion begin="-7.321183765956267s" dur="10s" repeatCount="indefinite">
    <mpath xlink:href="#path23"></mpath>
  </animateMotion>
</circle><path id="path24" d="M 1243.7576795886819 515.4424944186751
c 0 34.99842306573624 -8.563443941616313 10.052738540158282 -18.616182481774594 10.052738540158282
S 1206.5253146251328 550.4409174844113 1206.5253146251328 515.4424944186751
s 8.563443941616313 -10.052738540158282 18.616182481774594 -10.052738540158282
S 1243.7576795886819 480.44407135293886 1243.7576795886819 515.4424944186751
z" fill="none" stroke="none"></path>
<circle cx="0" cy="0" r="4.11178640338562" fill="#0074e4">
  <animateMotion begin="-1.4378479405290134s" dur="10s" repeatCount="indefinite">
    <mpath xlink:href="#path24"></mpath>
  </animateMotion>
</circle><path id="path25" d="M 148.38698120780438 694.7885068168409
c 0 27.17517570240587 -6.649245118673775 7.805635574095303 -14.454880692769079 7.805635574095303
S 119.47721982226622 721.9636825192468 119.47721982226622 694.7885068168409
s 6.649245118673775 -7.805635574095303 14.454880692769079 -7.805635574095303
S 148.38698120780438 667.613331114435 148.38698120780438 694.7885068168409
z" fill="none" stroke="none"></path>
<circle cx="0" cy="0" r="5.265986758967113" fill="#ffffff">
  <animateMotion begin="-8.193221285372402s" dur="10s" repeatCount="indefinite">
    <mpath xlink:href="#path25"></mpath>
  </animateMotion>
</circle><path id="path26" d="M 915.5261187058795 117.54542733815813
c 0 30.867890039835956 -7.552781605491775 8.866308841229477 -16.419090446721253 8.866308841229477
S 882.687937812437 148.41331737799408 882.687937812437 117.54542733815813
s 7.552781605491775 -8.866308841229477 16.419090446721253 -8.866308841229477
S 915.5261187058795 86.67753729832218 915.5261187058795 117.54542733815813
z" fill="none" stroke="none"></path>
<circle cx="0" cy="0" r="7.003868570995105" fill="#ffffff">
  <animateMotion begin="-4.678816531983858s" dur="10s" repeatCount="indefinite">
    <mpath xlink:href="#path26"></mpath>
  </animateMotion>
</circle><path id="path27" d="M 1445.9024164362547 176.08019542163296
c 0 31.979091502133407 -7.824671324990088 9.185483729336191 -17.01015505432628 9.185483729336191
S 1411.882106327602 208.05928692376636 1411.882106327602 176.08019542163296
s 7.824671324990088 -9.185483729336191 17.01015505432628 -9.185483729336191
S 1445.9024164362547 144.10110391949956 1445.9024164362547 176.08019542163296
z" fill="none" stroke="none"></path>
<circle cx="0" cy="0" r="4.329977914521851" fill="#74c005">
  <animateMotion begin="-2.588721025790297s" dur="10s" repeatCount="indefinite">
    <mpath xlink:href="#path27"></mpath>
  </animateMotion>
</circle><path id="path28" d="M 667.1988993671556 422.9480534003335
c 0 25.992170794944403 -6.359786471103417 7.465836292164882 -13.8256227632683 7.465836292164882
S 639.5476538406191 448.9402241952779 639.5476538406191 422.9480534003335
s 6.359786471103417 -7.465836292164882 13.8256227632683 -7.465836292164882
S 667.1988993671556 396.9558826053891 667.1988993671556 422.9480534003335
z" fill="none" stroke="none"></path>
<circle cx="0" cy="0" r="5.179224638107155" fill="#ffffff">
  <animateMotion begin="-8.075123040318841s" dur="10s" repeatCount="indefinite">
    <mpath xlink:href="#path28"></mpath>
  </animateMotion>
</circle><path id="path29" d="M 409.92115775754627 687.1435003535672
c 0 29.317328920259285 -7.173388991127271 8.420934902627668 -15.594323893754938 8.420934902627668
S 378.73250997003635 716.4608292738264 378.73250997003635 687.1435003535672
s 7.173388991127271 -8.420934902627668 15.594323893754938 -8.420934902627668
S 409.92115775754627 657.826171433308 409.92115775754627 687.1435003535672
z" fill="none" stroke="none"></path>
<circle cx="0" cy="0" r="6.411279968156211" fill="#74c005">
  <animateMotion begin="-4.783315435156488s" dur="10s" repeatCount="indefinite">
    <mpath xlink:href="#path29"></mpath>
  </animateMotion>
</circle><path id="path30" d="M 406.80450325264314 484.8381402617572
c 0 23.899438689777277 -5.847734998562525 6.8647323896168775 -12.712467388179402 6.8647323896168775
S 381.37956847628436 508.7375789515345 381.37956847628436 484.8381402617572
s 5.847734998562525 -6.8647323896168775 12.712467388179402 -6.8647323896168775
S 406.80450325264314 460.9387015719799 406.80450325264314 484.8381402617572
z" fill="none" stroke="none"></path>
<circle cx="0" cy="0" r="6.20401241643555" fill="#74c005">
  <animateMotion begin="-0.020648114684262975s" dur="10s" repeatCount="indefinite">
    <mpath xlink:href="#path30"></mpath>
  </animateMotion>
</circle><path id="path31" d="M 968.4969822302393 637.6426507832828
c 0 36.666575036061644 -8.971608785419338 10.53188857418792 -19.50349735960726 10.53188857418792
S 929.4899875110247 674.3092258193444 929.4899875110247 637.6426507832828
s 8.971608785419338 -10.53188857418792 19.50349735960726 -10.53188857418792
S 968.4969822302393 600.9760757472211 968.4969822302393 637.6426507832828
z" fill="none" stroke="none"></path>
<circle cx="0" cy="0" r="6.717866220627219" fill="#ffffff">
  <animateMotion begin="-0.0893739175226882s" dur="10s" repeatCount="indefinite">
    <mpath xlink:href="#path31"></mpath>
  </animateMotion>
</circle><path id="path32" d="M 400.6624359272094 18.370899083619744
c 0 32.40742600382665 -7.929476575404393 9.30851597982255 -17.237992555226942 9.30851597982255
S 366.18645081675555 50.77832508744639 366.18645081675555 18.370899083619744
s 7.929476575404393 -9.30851597982255 17.237992555226942 -9.30851597982255
S 400.6624359272094 -14.036526920206907 400.6624359272094 18.370899083619744
z" fill="none" stroke="none"></path>
<circle cx="0" cy="0" r="7.359622822788299" fill="#0074e4">
  <animateMotion begin="-6.248486802654791s" dur="10s" repeatCount="indefinite">
    <mpath xlink:href="#path32"></mpath>
  </animateMotion>
</circle><path id="path33" d="M 296.09433863027635 20.71649131881935
c 0 27.101465500786396 -6.631209643809436 7.784463494906731 -14.415673138716167 7.784463494906731
S 267.26299235284404 47.81795681960575 267.26299235284404 20.71649131881935
s 6.631209643809436 -7.784463494906731 14.415673138716167 -7.784463494906731
S 296.09433863027635 -6.384974181967046 296.09433863027635 20.71649131881935
z" fill="none" stroke="none"></path>
<circle cx="0" cy="0" r="5.435309186551858" fill="#74c005">
  <animateMotion begin="-5.673720515216296s" dur="10s" repeatCount="indefinite">
    <mpath xlink:href="#path33"></mpath>
  </animateMotion>
</circle><path id="path34" d="M 619.2437519964824 104.23459046728748
c 0 34.53117597938846 -8.449117526871644 9.918529270675409 -18.367646797547053 9.918529270675409
S 582.5084584013882 138.76576644667594 582.5084584013882 104.23459046728748
s 8.449117526871644 -9.918529270675409 18.367646797547053 -9.918529270675409
S 619.2437519964824 69.70341448789901 619.2437519964824 104.23459046728748
z" fill="none" stroke="none"></path>
<circle cx="0" cy="0" r="5.0839214682612015" fill="#ffffff">
  <animateMotion begin="-2.6202011353938937s" dur="10s" repeatCount="indefinite">
    <mpath xlink:href="#path34"></mpath>
  </animateMotion>
</circle><path id="path35" d="M 1482.7281314439247 234.29916183861354
c 0 24.8243434535066 -6.074041483304805 7.130396523879555 -13.204438007184361 7.130396523879555
S 1456.319255429556 259.12350529212017 1456.319255429556 234.29916183861354
s 6.074041483304805 -7.130396523879555 13.204438007184361 -7.130396523879555
S 1482.7281314439247 209.47481838510694 1482.7281314439247 234.29916183861354
z" fill="none" stroke="none"></path>
<circle cx="0" cy="0" r="5.963093436387117" fill="#ffffff">
  <animateMotion begin="-3.460328434405313s" dur="10s" repeatCount="indefinite">
    <mpath xlink:href="#path35"></mpath>
  </animateMotion>
</circle><path id="path36" d="M 214.76259383775934 101.4897576742178
c 0 24.17043542953966 -5.914042711483107 6.942571878697561 -12.85661459018067 6.942571878697561
S 189.049364657398 125.66019310375745 189.049364657398 101.4897576742178
s 5.914042711483107 -6.942571878697561 12.85661459018067 -6.942571878697561
S 214.76259383775934 77.31932224467815 214.76259383775934 101.4897576742178
z" fill="none" stroke="none"></path>
<circle cx="0" cy="0" r="5.0350500847606225" fill="#74c005">
  <animateMotion begin="-6.328691998817648s" dur="10s" repeatCount="indefinite">
    <mpath xlink:href="#path36"></mpath>
  </animateMotion>
</circle><path id="path37" d="M 284.2439992712144 89.53658864280092
c 0 35.925071548677266 -8.79017708105933 10.318903529939215 -19.109080610998543 10.318903529939215
S 246.02583804921733 125.46166019147819 246.02583804921733 89.53658864280092
s 8.79017708105933 -10.318903529939215 19.109080610998543 -10.318903529939215
S 284.2439992712144 53.611517094123656 284.2439992712144 89.53658864280092
z" fill="none" stroke="none"></path>
<circle cx="0" cy="0" r="5.714270684410683" fill="#0074e4">
  <animateMotion begin="-3.022275539393884s" dur="10s" repeatCount="indefinite">
    <mpath xlink:href="#path37"></mpath>
  </animateMotion>
</circle><path id="path38" d="M 387.17529467995615 706.0579228334319
c 0 31.86019336189243 -7.795579226846019 9.15133213586272 -16.94691136270874 9.15133213586272
S 353.28147195453863 737.9181161953244 353.28147195453863 706.0579228334319
s 7.795579226846019 -9.15133213586272 16.94691136270874 -9.15133213586272
S 387.17529467995615 674.1977294715394 387.17529467995615 706.0579228334319
z" fill="none" stroke="none"></path>
<circle cx="0" cy="0" r="4.455398154565535" fill="#74c005">
  <animateMotion begin="-8.729215953432742s" dur="10s" repeatCount="indefinite">
    <mpath xlink:href="#path38"></mpath>
  </animateMotion>
</circle><path id="path39" d="M 747.1202904056831 207.65282017683512
c 0 33.82993347423688 -8.277536913909024 9.717108551110595 -17.99464546501962 9.717108551110595
S 711.1309994756439 241.48275365107202 711.1309994756439 207.65282017683512
s 8.277536913909024 -9.717108551110595 17.99464546501962 -9.717108551110595
S 747.1202904056831 173.82288670259823 747.1202904056831 207.65282017683512
z" fill="none" stroke="none"></path>
<circle cx="0" cy="0" r="4.330272408085601" fill="#ffffff">
  <animateMotion begin="-1.0069527008566337s" dur="10s" repeatCount="indefinite">
    <mpath xlink:href="#path39"></mpath>
  </animateMotion>
</circle><path id="path40" d="M 1403.046173203223 434.99465058195625
c 0 33.49526814190892 -8.195650715573459 9.620981274803627 -17.816631990377086 9.620981274803627
S 1367.4129092224687 468.4899187238652 1367.4129092224687 434.99465058195625
s 8.195650715573459 -9.620981274803627 17.816631990377086 -9.620981274803627
S 1403.046173203223 401.4993824400473 1403.046173203223 434.99465058195625
z" fill="none" stroke="none"></path>
<circle cx="0" cy="0" r="5.959311090089474" fill="#ffffff">
  <animateMotion begin="-2.5913694414886956s" dur="10s" repeatCount="indefinite">
    <mpath xlink:href="#path40"></mpath>
  </animateMotion>
</circle><path id="path41" d="M 384.95314385775515 61.40644767480616
c 0 27.79617412296566 -6.80119154072564 7.9840074608518385 -14.785199001577478 7.9840074608518385
S 355.38274585460016 89.20262179777183 355.38274585460016 61.40644767480616
s 6.80119154072564 -7.9840074608518385 14.785199001577478 -7.9840074608518385
S 384.95314385775515 33.6102735518405 384.95314385775515 61.40644767480616
z" fill="none" stroke="none"></path>
<circle cx="0" cy="0" r="4.818517920574362" fill="#ffffff">
  <animateMotion begin="-1.3596189616221932s" dur="10s" repeatCount="indefinite">
    <mpath xlink:href="#path41"></mpath>
  </animateMotion>
</circle><path id="path42" d="M 587.0239996237606 712.5828624428709
c 0 35.4627256258406 -8.677049887173762 10.186102041464853 -18.863151928638615 10.186102041464853
S 549.2976957664835 748.0455880687115 549.2976957664835 712.5828624428709
s 8.677049887173762 -10.186102041464853 18.863151928638615 -10.186102041464853
S 587.0239996237606 677.1201368170304 587.0239996237606 712.5828624428709
z" fill="none" stroke="none"></path>
<circle cx="0" cy="0" r="4.457016351579535" fill="#74c005">
  <animateMotion begin="-9.72139398269741s" dur="10s" repeatCount="indefinite">
    <mpath xlink:href="#path42"></mpath>
  </animateMotion>
</circle><path id="path43" d="M 155.23030123354178 301.6094351689659
c 0 19.523965717301373 -4.777140547850335 5.6079475996503945 -10.38508814750073 5.6079475996503945
S 134.4601249385403 321.1334008862673 134.4601249385403 301.6094351689659
s 4.777140547850335 -5.6079475996503945 10.38508814750073 -5.6079475996503945
S 155.23030123354178 282.0854694516645 155.23030123354178 301.6094351689659
z" fill="none" stroke="none"></path>
<circle cx="0" cy="0" r="4.2709012742266985" fill="#ffffff">
  <animateMotion begin="-9.50734557053485s" dur="10s" repeatCount="indefinite">
    <mpath xlink:href="#path43"></mpath>
  </animateMotion>
</circle><path id="path44" d="M 1272.7544529719012 68.51769955307921
c 0 26.523687611015614 -6.489838458014457 7.618506015930016 -14.108344473944474 7.618506015930016
S 1244.5377640240122 95.04138716409483 1244.5377640240122 68.51769955307921
s 6.489838458014457 -7.618506015930016 14.108344473944474 -7.618506015930016
S 1272.7544529719012 41.994011942063594 1272.7544529719012 68.51769955307921
z" fill="none" stroke="none"></path>
<circle cx="0" cy="0" r="5.60149840950072" fill="#0074e4">
  <animateMotion begin="-3.2467229181907187s" dur="10s" repeatCount="indefinite">
    <mpath xlink:href="#path44"></mpath>
  </animateMotion>
</circle><path id="path45" d="M 731.4999575595333 403.8260157162045
c 0 32.19247221707579 -7.876881499922798 9.246773934691982 -17.12365543461478 9.246773934691982
S 697.2526466903038 436.0184879332803 697.2526466903038 403.8260157162045
s 7.876881499922798 -9.246773934691982 17.12365543461478 -9.246773934691982
S 731.4999575595333 371.6335434991287 731.4999575595333 403.8260157162045
z" fill="none" stroke="none"></path>
<circle cx="0" cy="0" r="4.4027966418617455" fill="#0074e4">
  <animateMotion begin="-9.973319773573392s" dur="10s" repeatCount="indefinite">
    <mpath xlink:href="#path45"></mpath>
  </animateMotion>
</circle><path id="path46" d="M 1446.4899030471506 137.26531886186186
c 0 29.150784440410174 -7.132638746057808 8.373097658415688 -15.505736404473495 8.373097658415688
S 1415.4784302382036 166.41610330227203 1415.4784302382036 137.26531886186186
s 7.132638746057808 -8.373097658415688 15.505736404473495 -8.373097658415688
S 1446.4899030471506 108.11453442145168 1446.4899030471506 137.26531886186186
z" fill="none" stroke="none"></path>
<circle cx="0" cy="0" r="5.255139837533997" fill="#ffffff">
  <animateMotion begin="-5.109957902157676s" dur="10s" repeatCount="indefinite">
    <mpath xlink:href="#path46"></mpath>
  </animateMotion>
</circle><path id="path47" d="M 1309.7547581256501 517.7298203886163
c 0 20.080772482584464 -4.913380501057901 5.7678814577636235 -10.681261958821525 5.7678814577636235
S 1288.392234208007 537.8105928712008 1288.392234208007 517.7298203886163
s 4.913380501057901 -5.7678814577636235 10.681261958821525 -5.7678814577636235
S 1309.7547581256501 497.64904790603185 1309.7547581256501 517.7298203886163
z" fill="none" stroke="none"></path>
<circle cx="0" cy="0" r="6.099927272912398" fill="#0074e4">
  <animateMotion begin="-8.84811347343671s" dur="10s" repeatCount="indefinite">
    <mpath xlink:href="#path47"></mpath>
  </animateMotion>
</circle><path id="path48" d="M 455.39835198692685 143.20221069211354
c 0 34.707000814376244 -8.492138497134611 9.969032148810198 -18.461170645944808 9.969032148810198
S 418.4760106950372 177.90921150648978 418.4760106950372 143.20221069211354
s 8.492138497134611 -9.969032148810198 18.461170645944808 -9.969032148810198
S 455.39835198692685 108.4952098777373 455.39835198692685 143.20221069211354
z" fill="none" stroke="none"></path>
<circle cx="0" cy="0" r="6.75364979801784" fill="#ffffff">
  <animateMotion begin="-2.410586976945508s" dur="10s" repeatCount="indefinite">
    <mpath xlink:href="#path48"></mpath>
  </animateMotion>
</circle><path id="path49" d="M 308.6823600881964 204.67192646620688
c 0 32.15940907806204 -7.868791582930073 9.237277075613566 -17.106068658543638 9.237277075613566
S 274.47022277110915 236.83133554426894 274.47022277110915 204.67192646620688
s 7.868791582930073 -9.237277075613566 17.106068658543638 -9.237277075613566
S 308.6823600881964 172.51251738814483 308.6823600881964 204.67192646620688
z" fill="none" stroke="none"></path>
<circle cx="0" cy="0" r="5.8088921692527915" fill="#0074e4">
  <animateMotion begin="-5.201309852169982s" dur="10s" repeatCount="indefinite">
    <mpath xlink:href="#path49"></mpath>
  </animateMotion>
</circle><path id="path50" d="M 385.597680908051 577.8418543763721
c 0 31.124993696675226 -7.615689947058831 8.940157763938629 -16.55584771099746 8.940157763938629
S 352.4859854860561 608.9668480730473 352.4859854860561 577.8418543763721
s 7.615689947058831 -8.940157763938629 16.55584771099746 -8.940157763938629
S 385.597680908051 546.7168606796969 385.597680908051 577.8418543763721
z" fill="none" stroke="none"></path>
<circle cx="0" cy="0" r="4.993035628127992" fill="#74c005">
  <animateMotion begin="-9.661594699292158s" dur="10s" repeatCount="indefinite">
    <mpath xlink:href="#path50"></mpath>
  </animateMotion>
</circle><path id="path51" d="M 453.8578775710697 643.7069580721574
c 0 34.191351251786124 -8.365968923309369 9.820920040406651 -18.186888963716022 9.820920040406651
S 417.4840996436377 677.8983093239435 417.4840996436377 643.7069580721574
s 8.365968923309369 -9.820920040406651 18.186888963716022 -9.820920040406651
S 453.8578775710697 609.5156068203712 453.8578775710697 643.7069580721574
z" fill="none" stroke="none"></path>
<circle cx="0" cy="0" r="3.967883155592295" fill="#0074e4">
  <animateMotion begin="-8.275267187625685s" dur="10s" repeatCount="indefinite">
    <mpath xlink:href="#path51"></mpath>
  </animateMotion>
</circle><path id="path52" d="M 1005.3592115980026 534.3332136401252
c 0 33.90234865980068 -8.295255523142718 9.737908657602322 -18.03316418074504 9.737908657602322
S 969.2928832365125 568.235562299926 969.2928832365125 534.3332136401252
s 8.295255523142718 -9.737908657602322 18.03316418074504 -9.737908657602322
S 1005.3592115980026 500.43086498032454 1005.3592115980026 534.3332136401252
z" fill="none" stroke="none"></path>
<circle cx="0" cy="0" r="6.935944497941813" fill="#ffffff">
  <animateMotion begin="-7.727026747503116s" dur="10s" repeatCount="indefinite">
    <mpath xlink:href="#path52"></mpath>
  </animateMotion>
</circle></g>
</svg>