<svg xmlns="http://www.w3.org/2000/svg" xmlns:xlink="http://www.w3.org/1999/xlink" viewBox="0 0 2695.77 2690.73"><defs><style>.cls-1{isolation:isolate;}.cls-2{fill:#f4f7fa;}.cls-3{fill:url(#linear-gradient);}.cls-4{fill:url(#linear-gradient-2);}.cls-5{fill:url(#linear-gradient-3);}.cls-6{fill:#91d9fa;}.cls-7{fill:url(#linear-gradient-4);}.cls-38,.cls-39,.cls-51,.cls-65,.cls-68,.cls-8,.cls-9,.cls-90{opacity:0.3;}.cls-38,.cls-43,.cls-47,.cls-51,.cls-59,.cls-65,.cls-68,.cls-72,.cls-8,.cls-85,.cls-9,.cls-90{mix-blend-mode:multiply;}.cls-8{fill:url(#linear-gradient-5);}.cls-9{fill:url(#linear-gradient-6);}.cls-10{fill:url(#linear-gradient-7);}.cls-11{fill:url(#linear-gradient-8);}.cls-12{fill:url(#linear-gradient-9);}.cls-13{fill:url(#linear-gradient-10);}.cls-14{fill:url(#linear-gradient-11);}.cls-15{fill:url(#linear-gradient-12);}.cls-16{fill:url(#linear-gradient-13);}.cls-17{fill:url(#linear-gradient-14);}.cls-18{fill:url(#linear-gradient-15);}.cls-19{fill:url(#linear-gradient-16);}.cls-20{fill:url(#linear-gradient-17);}.cls-21{fill:url(#linear-gradient-18);}.cls-22{fill:url(#linear-gradient-19);}.cls-23{fill:url(#linear-gradient-20);}.cls-24{fill:url(#linear-gradient-21);}.cls-25{fill:url(#linear-gradient-22);}.cls-26{fill:url(#linear-gradient-23);}.cls-27{fill:url(#linear-gradient-24);}.cls-28{fill:url(#linear-gradient-25);}.cls-29{fill:url(#linear-gradient-26);}.cls-30{fill:url(#linear-gradient-27);}.cls-31{fill:url(#linear-gradient-28);}.cls-32{fill:url(#linear-gradient-29);}.cls-33{fill:url(#linear-gradient-30);}.cls-34{fill:url(#linear-gradient-31);}.cls-35{fill:url(#linear-gradient-32);}.cls-36{fill:url(#linear-gradient-33);}.cls-37{fill:url(#linear-gradient-34);}.cls-38{fill:url(#linear-gradient-35);}.cls-105,.cls-39{mix-blend-mode:soft-light;}.cls-39{fill:url(#linear-gradient-36);}.cls-40{fill:#8db2e2;}.cls-41{fill:url(#linear-gradient-37);}.cls-42{fill:url(#linear-gradient-38);}.cls-43{opacity:0.4;}.cls-44{fill:url(#linear-gradient-39);}.cls-45{fill:url(#linear-gradient-40);}.cls-46{fill:url(#linear-gradient-41);}.cls-47{fill:url(#linear-gradient-42);}.cls-48{fill:url(#linear-gradient-43);}.cls-49{fill:url(#linear-gradient-44);}.cls-50{fill:url(#linear-gradient-45);}.cls-51{fill:url(#linear-gradient-46);}.cls-52{fill:url(#linear-gradient-47);}.cls-53{fill:url(#linear-gradient-48);}.cls-54{fill:url(#linear-gradient-49);}.cls-55{fill:url(#linear-gradient-50);}.cls-56{fill:url(#linear-gradient-51);}.cls-57{fill:url(#linear-gradient-52);}.cls-105,.cls-58{fill:#fff;}.cls-59{opacity:0.2;}.cls-60{fill:url(#linear-gradient-53);}.cls-61{fill:url(#linear-gradient-54);}.cls-62{fill:url(#linear-gradient-55);}.cls-63{fill:url(#linear-gradient-56);}.cls-64{fill:url(#linear-gradient-57);}.cls-66{fill:url(#linear-gradient-58);}.cls-67{fill:url(#linear-gradient-59);}.cls-68{fill:url(#linear-gradient-60);}.cls-69{fill:url(#linear-gradient-61);}.cls-70{fill:url(#linear-gradient-62);}.cls-71{fill:url(#linear-gradient-63);}.cls-72{opacity:0.24;}.cls-73{fill:#552d63;}.cls-74{fill:url(#linear-gradient-64);}.cls-75{fill:url(#linear-gradient-65);}.cls-76{fill:url(#linear-gradient-66);}.cls-77{fill:url(#linear-gradient-67);}.cls-78{fill:url(#linear-gradient-68);}.cls-79{fill:url(#linear-gradient-69);}.cls-80{fill:url(#linear-gradient-70);}.cls-81{fill:url(#linear-gradient-71);}.cls-82{fill:url(#linear-gradient-72);}.cls-83{fill:url(#linear-gradient-73);}.cls-84{fill:url(#linear-gradient-74);}.cls-85{opacity:0.6;fill:url(#linear-gradient-75);}.cls-86{fill:url(#linear-gradient-76);}.cls-87{fill:url(#linear-gradient-77);}.cls-88{fill:url(#linear-gradient-78);}.cls-89{fill:url(#linear-gradient-79);}.cls-90{fill:url(#linear-gradient-80);}.cls-91{fill:url(#linear-gradient-81);}.cls-92{fill:url(#linear-gradient-82);}.cls-93{fill:url(#linear-gradient-83);}.cls-94{fill:url(#linear-gradient-84);}.cls-95{fill:#26264f;}.cls-96{fill:#444b8c;}.cls-97{fill:url(#linear-gradient-85);}.cls-98{fill:#1f1f44;}.cls-99{fill:url(#linear-gradient-86);}.cls-100{fill:url(#linear-gradient-87);}.cls-101{fill:url(#linear-gradient-88);}.cls-102{fill:url(#linear-gradient-89);}.cls-103{fill:url(#linear-gradient-90);}.cls-104{fill:url(#linear-gradient-91);}.cls-106{fill:url(#linear-gradient-92);}.cls-107{fill:url(#linear-gradient-93);}.cls-108{fill:url(#linear-gradient-94);}.cls-109{fill:url(#linear-gradient-95);}.cls-110{fill:url(#linear-gradient-96);}.cls-111{fill:url(#linear-gradient-97);}.cls-112{fill:url(#linear-gradient-98);}.cls-113{fill:url(#linear-gradient-99);}.cls-114{fill:url(#linear-gradient-100);}.cls-115{fill:url(#linear-gradient-101);}.cls-116{fill:url(#linear-gradient-102);}.cls-117{fill:url(#linear-gradient-103);}.cls-118{fill:url(#linear-gradient-104);}.cls-119{fill:url(#linear-gradient-105);}.cls-120{fill:url(#linear-gradient-106);}.cls-121{fill:url(#linear-gradient-107);}.cls-122{fill:url(#linear-gradient-108);}.cls-123{fill:url(#linear-gradient-109);}.cls-124{fill:url(#linear-gradient-110);}.cls-125{fill:url(#linear-gradient-111);}.cls-126{fill:url(#linear-gradient-112);}.cls-127{fill:url(#linear-gradient-113);}.cls-128{fill:url(#linear-gradient-114);}.cls-129{fill:url(#linear-gradient-115);}.cls-130{fill:url(#linear-gradient-116);}.cls-131{fill:url(#linear-gradient-117);}.cls-132{fill:url(#linear-gradient-118);}.cls-133{fill:url(#linear-gradient-119);}.cls-134{fill:url(#linear-gradient-120);}.cls-135{fill:url(#linear-gradient-121);}.cls-136{fill:url(#linear-gradient-122);}.cls-137{fill:url(#linear-gradient-123);}</style><linearGradient id="linear-gradient" x1="1903" y1="-251.35" x2="1796.93" y2="-25.96" gradientUnits="userSpaceOnUse"><stop offset="0" stop-color="#000a5d"/><stop offset="1" stop-color="#0f1e91"/></linearGradient><linearGradient id="linear-gradient-2" x1="1091.43" y1="152.2" x2="1208.55" y2="375.39" gradientUnits="userSpaceOnUse"><stop offset="0" stop-color="#4062e2"/><stop offset="1" stop-color="#4f75ff"/></linearGradient><linearGradient id="linear-gradient-3" x1="2058.07" y1="52.03" x2="1921.07" y2="215.55" xlink:href="#linear-gradient-2"/><linearGradient id="linear-gradient-4" x1="791.68" y1="610.3" x2="1823.69" y2="2526.89" gradientUnits="userSpaceOnUse"><stop offset="0" stop-color="#4179e8"/><stop offset="1" stop-color="#294391"/></linearGradient><linearGradient id="linear-gradient-5" x1="1105.91" y1="926.6" x2="1848.75" y2="926.6" gradientUnits="userSpaceOnUse"><stop offset="0" stop-color="#3f4ea6"/><stop offset="1" stop-color="#5544ab"/></linearGradient><linearGradient id="linear-gradient-6" x1="1954.74" y1="1583.69" x2="2463.54" y2="1060.44" xlink:href="#linear-gradient-4"/><linearGradient id="linear-gradient-7" x1="870.01" y1="1351.14" x2="446.01" y2="661.17" xlink:href="#linear-gradient-4"/><linearGradient id="linear-gradient-8" x1="861.96" y1="1465.16" x2="1349.85" y2="1465.16" xlink:href="#linear-gradient-4"/><linearGradient id="linear-gradient-9" x1="1062.95" y1="1057.54" x2="1089.93" y2="1308.08" xlink:href="#linear-gradient-4"/><linearGradient id="linear-gradient-10" x1="1138.99" y1="1360.17" x2="1093.22" y2="1782.52" xlink:href="#linear-gradient-4"/><linearGradient id="linear-gradient-11" x1="1129.95" y1="1309.06" x2="1125.79" y2="1671.07" xlink:href="#linear-gradient-4"/><linearGradient id="linear-gradient-12" x1="1615.78" y1="1434.69" x2="2068.39" y2="1434.69" xlink:href="#linear-gradient-4"/><linearGradient id="linear-gradient-13" x1="1793.84" y1="978.83" x2="1820.82" y2="1229.37" xlink:href="#linear-gradient-4"/><linearGradient id="linear-gradient-14" x1="1883.82" y1="1329.77" x2="1838.04" y2="1752.12" xlink:href="#linear-gradient-4"/><linearGradient id="linear-gradient-15" x1="1874.77" y1="1278.67" x2="1870.61" y2="1640.67" xlink:href="#linear-gradient-4"/><linearGradient id="linear-gradient-16" x1="952.82" y1="660.45" x2="1045.33" y2="929.31" gradientUnits="userSpaceOnUse"><stop offset="0" stop-color="#8caeff"/><stop offset="1" stop-color="#7196e9"/></linearGradient><linearGradient id="linear-gradient-17" x1="1772.02" y1="378.58" x2="1864.53" y2="647.43" xlink:href="#linear-gradient-16"/><linearGradient id="linear-gradient-18" x1="1010.38" y1="1225.27" x2="936.18" y2="1153.96" xlink:href="#linear-gradient-16"/><linearGradient id="linear-gradient-19" x1="869.15" y1="1372.23" x2="794.95" y2="1300.92" xlink:href="#linear-gradient-16"/><linearGradient id="linear-gradient-20" x1="868.84" y1="1372.55" x2="794.64" y2="1301.24" xlink:href="#linear-gradient-16"/><linearGradient id="linear-gradient-21" x1="1009.74" y1="1225.93" x2="935.54" y2="1154.63" xlink:href="#linear-gradient-16"/><linearGradient id="linear-gradient-22" x1="749.62" y1="996.67" x2="905.73" y2="1328.17" xlink:href="#linear-gradient-16"/><linearGradient id="linear-gradient-23" x1="635.02" y1="1050.64" x2="791.13" y2="1382.14" xlink:href="#linear-gradient-16"/><linearGradient id="linear-gradient-24" x1="579.27" y1="1076.9" x2="735.38" y2="1408.39" xlink:href="#linear-gradient-16"/><linearGradient id="linear-gradient-25" x1="803.8" y1="971.16" x2="959.91" y2="1302.66" xlink:href="#linear-gradient-16"/><linearGradient id="linear-gradient-26" x1="2374.89" y1="1303.57" x2="1923.9" y2="567.35" xlink:href="#linear-gradient-4"/><linearGradient id="linear-gradient-27" x1="2581.96" y1="1227.76" x2="2480.78" y2="1126.58" xlink:href="#linear-gradient-16"/><linearGradient id="linear-gradient-28" x1="2405.13" y1="1404.6" x2="2303.95" y2="1303.42" xlink:href="#linear-gradient-16"/><linearGradient id="linear-gradient-29" x1="2407.72" y1="1402.01" x2="2306.54" y2="1300.83" xlink:href="#linear-gradient-16"/><linearGradient id="linear-gradient-30" x1="2578.01" y1="1231.71" x2="2476.83" y2="1130.53" xlink:href="#linear-gradient-16"/><linearGradient id="linear-gradient-31" x1="2256.2" y1="954.06" x2="2438.33" y2="1578.5" xlink:href="#linear-gradient-16"/><linearGradient id="linear-gradient-32" x1="2161.13" y1="981.78" x2="2343.26" y2="1606.22" xlink:href="#linear-gradient-16"/><linearGradient id="linear-gradient-33" x1="2052.57" y1="1013.45" x2="2234.7" y2="1637.89" xlink:href="#linear-gradient-16"/><linearGradient id="linear-gradient-34" x1="2362.29" y1="923.11" x2="2544.42" y2="1547.55" xlink:href="#linear-gradient-16"/><linearGradient id="linear-gradient-35" x1="109.9" y1="977.42" x2="1141.91" y2="2894.01" xlink:href="#linear-gradient-4"/><linearGradient id="linear-gradient-36" x1="1105.91" y1="953.67" x2="1848.75" y2="953.67" xlink:href="#linear-gradient-16"/><linearGradient id="linear-gradient-37" x1="-764.1" y1="2238.42" x2="-718.32" y2="2508.95" gradientTransform="matrix(-1, 0, 0, 1, 1282, 0)" gradientUnits="userSpaceOnUse"><stop offset="0" stop-color="#444b8c"/><stop offset="1" stop-color="#26264f"/></linearGradient><linearGradient id="linear-gradient-38" x1="-365.48" y1="2284.64" x2="-404.91" y2="2531.49" gradientTransform="translate(2438.85)" gradientUnits="userSpaceOnUse"><stop offset="0" stop-color="#311944"/><stop offset="1" stop-color="#a03976"/></linearGradient><linearGradient id="linear-gradient-39" x1="-237.71" y1="1221.37" x2="-425.13" y2="1888.77" gradientTransform="translate(2438.85)" gradientUnits="userSpaceOnUse"><stop offset="0" stop-color="#ff9085"/><stop offset="1" stop-color="#fb6fbb"/></linearGradient><linearGradient id="linear-gradient-40" x1="-538.38" y1="1548.14" x2="-505.81" y2="1653.85" xlink:href="#linear-gradient-39"/><linearGradient id="linear-gradient-41" x1="-835.36" y1="1685.13" x2="-869.02" y2="2516.71" gradientTransform="matrix(-1, 0, 0, 1, 1282, 0)" gradientUnits="userSpaceOnUse"><stop offset="0" stop-color="#ffc444"/><stop offset="1" stop-color="#f36f56"/></linearGradient><linearGradient id="linear-gradient-42" x1="-130.6" y1="1251.45" x2="-318.02" y2="1918.85" xlink:href="#linear-gradient-39"/><linearGradient id="linear-gradient-43" x1="-890" y1="1572.17" x2="-1345.71" y2="1197.63" gradientTransform="matrix(-1, 0, 0, 1, 1282, 0)" xlink:href="#linear-gradient-39"/><linearGradient id="linear-gradient-44" x1="-601.83" y1="1568.6" x2="-766.06" y2="1444.86" xlink:href="#linear-gradient-37"/><linearGradient id="linear-gradient-45" x1="-480.76" y1="1447.01" x2="-402.67" y2="1587.82" gradientTransform="translate(2438.85)" xlink:href="#linear-gradient-37"/><linearGradient id="linear-gradient-46" x1="-776.18" y1="1405.15" x2="-654.61" y2="1699.52" xlink:href="#linear-gradient-37"/><linearGradient id="linear-gradient-47" x1="-283.65" y1="1092.81" x2="-317.31" y2="1924.38" gradientTransform="translate(2438.85)" xlink:href="#linear-gradient-41"/><linearGradient id="linear-gradient-48" x1="-463.01" y1="1331.45" x2="-496.67" y2="2163.03" gradientTransform="translate(2438.85)" xlink:href="#linear-gradient-41"/><linearGradient id="linear-gradient-49" x1="-772.25" y1="1115.7" x2="-808.04" y2="1222.12" xlink:href="#linear-gradient-37"/><linearGradient id="linear-gradient-50" x1="-333.45" y1="1336.7" x2="-367.11" y2="2168.28" gradientTransform="translate(2438.85)" xlink:href="#linear-gradient-41"/><linearGradient id="linear-gradient-51" x1="2008.64" y1="340.53" x2="2266.45" y2="857.89" gradientTransform="matrix(1, 0, 0, 1, 0, 0)" xlink:href="#linear-gradient-41"/><linearGradient id="linear-gradient-52" x1="2160.25" y1="680.35" x2="2410.66" y2="1144.79" gradientTransform="matrix(1, 0, 0, 1, 0, 0)" xlink:href="#linear-gradient-41"/><linearGradient id="linear-gradient-53" x1="2091.48" y1="711.22" x2="2334.75" y2="1199.4" gradientTransform="matrix(1, 0, 0, 1, 0, 0)" xlink:href="#linear-gradient-41"/><linearGradient id="linear-gradient-54" x1="177.83" y1="898.57" x2="435.64" y2="1415.93" gradientUnits="userSpaceOnUse"><stop offset="0" stop-color="#4475ff"/><stop offset="1" stop-color="#56f382"/></linearGradient><linearGradient id="linear-gradient-55" x1="329.44" y1="1238.38" x2="579.85" y2="1702.82" xlink:href="#linear-gradient-54"/><linearGradient id="linear-gradient-56" x1="260.67" y1="1269.25" x2="503.94" y2="1757.43" xlink:href="#linear-gradient-54"/><linearGradient id="linear-gradient-57" x1="534.78" y1="1700.51" x2="1370.15" y2="3485.04" gradientTransform="translate(-73.9)" gradientUnits="userSpaceOnUse"><stop offset="0" stop-color="#aa80f9"/><stop offset="1" stop-color="#6165d7"/></linearGradient><linearGradient id="linear-gradient-58" x1="918.5" y1="1966.13" x2="841.32" y2="2420.05" xlink:href="#linear-gradient-57"/><linearGradient id="linear-gradient-59" x1="534.78" y1="1700.51" x2="1370.15" y2="3485.04" xlink:href="#linear-gradient-57"/><linearGradient id="linear-gradient-60" x1="317.15" y1="2059.27" x2="1073.91" y2="2059.27" gradientTransform="matrix(1, 0, 0, 1, 0, 0)" xlink:href="#linear-gradient-57"/><linearGradient id="linear-gradient-61" x1="-2737.64" y1="3550.5" x2="-2564.14" y2="3550.5" gradientTransform="matrix(0.66, -0.75, 0.75, 0.66, 629.56, -1916.94)" gradientUnits="userSpaceOnUse"><stop offset="0" stop-color="#40447e"/><stop offset="1" stop-color="#3c3b6b"/></linearGradient><linearGradient id="linear-gradient-62" x1="1618.56" y1="1772.26" x2="3014.83" y2="3221.22" gradientTransform="translate(-230.71 134.62) rotate(5.62)" xlink:href="#linear-gradient-41"/><linearGradient id="linear-gradient-63" x1="554.11" y1="2275.07" x2="1411.99" y2="2730.73" gradientTransform="translate(20.92 -110.43) rotate(-3.5)" gradientUnits="userSpaceOnUse"><stop offset="0" stop-color="#311944"/><stop offset="1" stop-color="#6b3976"/></linearGradient><linearGradient id="linear-gradient-64" x1="229.27" y1="2479.2" x2="1007.17" y2="2334.67" gradientTransform="translate(20.92 -110.43) rotate(-3.5)" gradientUnits="userSpaceOnUse"><stop offset="0" stop-color="#311944"/><stop offset="1" stop-color="#893976"/></linearGradient><linearGradient id="linear-gradient-65" x1="823.95" y1="1905.34" x2="741.25" y2="2180.99" gradientTransform="matrix(1, 0, 0, 1, 0, 0)" xlink:href="#linear-gradient-41"/><linearGradient id="linear-gradient-66" x1="508.51" y1="2257.17" x2="162.34" y2="3515.61" gradientTransform="translate(20.92 -110.43) rotate(-3.5)" xlink:href="#linear-gradient-41"/><linearGradient id="linear-gradient-67" x1="555.01" y1="2398.32" x2="469.99" y2="2065.81" gradientTransform="translate(20.92 -110.43) rotate(-3.5)" xlink:href="#linear-gradient-41"/><linearGradient id="linear-gradient-68" x1="422.38" y1="2233.47" x2="76.21" y2="3491.91" gradientTransform="translate(20.92 -110.43) rotate(-3.5)" xlink:href="#linear-gradient-41"/><linearGradient id="linear-gradient-69" x1="551.16" y1="1844.38" x2="646.84" y2="1844.38" gradientTransform="matrix(1, 0, 0, 1, 0, 0)" xlink:href="#linear-gradient-41"/><linearGradient id="linear-gradient-70" x1="654.77" y1="2213.65" x2="868.01" y2="2213.65" gradientTransform="matrix(1, 0, 0, 1, 0, 0)" xlink:href="#linear-gradient-41"/><linearGradient id="linear-gradient-71" x1="1213.77" y1="1471.31" x2="1199.49" y2="1491.68" gradientTransform="translate(-369.77 170.47) rotate(6.1)" xlink:href="#linear-gradient-41"/><linearGradient id="linear-gradient-72" x1="1187.78" y1="1503.59" x2="1215.45" y2="1446.71" gradientTransform="translate(-369.77 170.47) rotate(6.1)" xlink:href="#linear-gradient-41"/><linearGradient id="linear-gradient-73" x1="1207.98" y1="1480.12" x2="1212.68" y2="1477.2" gradientTransform="translate(-534.85 288.91)" xlink:href="#linear-gradient-41"/><linearGradient id="linear-gradient-74" x1="1212.27" y1="1464.88" x2="1197.9" y2="1481.9" gradientTransform="translate(2146.08 586.22) rotate(90)" xlink:href="#linear-gradient-41"/><linearGradient id="linear-gradient-75" x1="1183.02" y1="1489.19" x2="1200.47" y2="1489.19" gradientTransform="translate(-369.77 170.47) rotate(6.1)" xlink:href="#linear-gradient-41"/><linearGradient id="linear-gradient-76" x1="-11070.49" y1="2010.61" x2="-11069.32" y2="2010.61" gradientTransform="matrix(-0.95, -0.31, -0.31, 0.95, 2922.1, 402.54)" xlink:href="#linear-gradient-38"/><linearGradient id="linear-gradient-77" x1="-11070.37" y1="2041.76" x2="-11069.2" y2="2041.76" gradientTransform="matrix(-0.95, -0.31, -0.31, 0.95, 2922.1, 402.54)" xlink:href="#linear-gradient-38"/><linearGradient id="linear-gradient-78" x1="1041.83" y1="1132.79" x2="1068.65" y2="1077.65" gradientTransform="matrix(1.03, 0.11, -0.12, 1.09, -323.6, 418.45)" xlink:href="#linear-gradient-41"/><linearGradient id="linear-gradient-79" x1="1060.01" y1="1064" x2="1054.23" y2="1083.19" gradientTransform="matrix(1.03, 0.11, -0.12, 1.09, -323.6, 418.45)" xlink:href="#linear-gradient-41"/><linearGradient id="linear-gradient-80" x1="1060.04" y1="1063.91" x2="1054.24" y2="1083.14" gradientTransform="matrix(1.03, 0.11, -0.12, 1.09, -323.6, 418.45)" xlink:href="#linear-gradient-41"/><linearGradient id="linear-gradient-81" x1="1106.14" y1="1488.66" x2="1138.58" y2="1488.66" gradientTransform="translate(-369.77 170.47) rotate(6.1)" xlink:href="#linear-gradient-41"/><linearGradient id="linear-gradient-82" x1="1109.27" y1="1494.42" x2="1083.23" y2="1509.58" gradientTransform="translate(2073.44 650.56) rotate(90)" xlink:href="#linear-gradient-41"/><linearGradient id="linear-gradient-83" x1="1090.76" y1="1488.66" x2="1126.43" y2="1488.66" gradientTransform="translate(-369.77 170.47) rotate(6.1)" xlink:href="#linear-gradient-41"/><linearGradient id="linear-gradient-84" x1="1090.76" y1="1488.21" x2="1112.21" y2="1488.21" gradientTransform="translate(-369.77 170.47) rotate(6.1)" xlink:href="#linear-gradient-41"/><linearGradient id="linear-gradient-85" x1="654.79" y1="2262.52" x2="933.89" y2="2262.52" gradientTransform="translate(20.92 -110.43) rotate(-3.5)" xlink:href="#linear-gradient-61"/><linearGradient id="linear-gradient-86" x1="-368.99" y1="3060.27" x2="-230.37" y2="3060.27" gradientTransform="translate(439.32 -784.3) rotate(-22.13)" xlink:href="#linear-gradient-61"/><linearGradient id="linear-gradient-87" x1="1064.03" y1="2305.74" x2="2460.37" y2="3754.77" gradientTransform="translate(20.92 -110.43) rotate(-3.5)" xlink:href="#linear-gradient-41"/><linearGradient id="linear-gradient-88" x1="484.61" y1="2404.84" x2="1124.12" y2="2342.49" xlink:href="#linear-gradient-63"/><linearGradient id="linear-gradient-89" x1="238.73" y1="2530.11" x2="1016.63" y2="2385.59" xlink:href="#linear-gradient-64"/><linearGradient id="linear-gradient-90" x1="516.2" y1="2428.73" x2="986.82" y2="2328.14" xlink:href="#linear-gradient-63"/><linearGradient id="linear-gradient-91" x1="-1281.83" y1="1155.22" x2="-973.25" y2="1480.51" gradientTransform="matrix(-1, 0, 0, 1, 720.25, 0)" xlink:href="#linear-gradient-57"/><linearGradient id="linear-gradient-92" x1="-1082.97" y1="1190.9" x2="-957.25" y2="1323.44" gradientTransform="matrix(-1, 0, 0, 1, 720.25, 0)" xlink:href="#linear-gradient-57"/><linearGradient id="linear-gradient-93" x1="-1119.33" y1="1181.11" x2="-1272.12" y2="1328.29" gradientTransform="matrix(-1, 0, 0, 1, 720.25, 0)" xlink:href="#linear-gradient-57"/><linearGradient id="linear-gradient-94" x1="-1112.4" y1="1196.49" x2="-1258.83" y2="1337.53" gradientTransform="matrix(-1, 0, 0, 1, 720.25, 0)" xlink:href="#linear-gradient-57"/><linearGradient id="linear-gradient-95" x1="-1105.52" y1="1210.6" x2="-1246.04" y2="1345.97" gradientTransform="matrix(-1, 0, 0, 1, 720.25, 0)" xlink:href="#linear-gradient-57"/><linearGradient id="linear-gradient-96" x1="-1098.7" y1="1223.6" x2="-1233.75" y2="1353.7" gradientTransform="matrix(-1, 0, 0, 1, 720.25, 0)" xlink:href="#linear-gradient-57"/><linearGradient id="linear-gradient-97" x1="1096.53" y1="1721.68" x2="1398.85" y2="2040.38" gradientTransform="translate(-208.27)" xlink:href="#linear-gradient-41"/><linearGradient id="linear-gradient-98" x1="1297.87" y1="1751.31" x2="1428.15" y2="1888.66" gradientTransform="translate(-208.27)" xlink:href="#linear-gradient-41"/><linearGradient id="linear-gradient-99" x1="-235.1" y1="1809.23" x2="-214.71" y2="1809.23" gradientTransform="matrix(-1, 0, 0, 1, 720.25, 0)" xlink:href="#linear-gradient-41"/><linearGradient id="linear-gradient-100" x1="1240.29" y1="1748.97" x2="1094.03" y2="1889.85" gradientTransform="translate(-208.27)" xlink:href="#linear-gradient-41"/><linearGradient id="linear-gradient-101" x1="1250.39" y1="1762.04" x2="1107.61" y2="1899.57" gradientTransform="translate(-208.27)" xlink:href="#linear-gradient-41"/><linearGradient id="linear-gradient-102" x1="1260.38" y1="1774.47" x2="1120.93" y2="1908.8" gradientTransform="translate(-208.27)" xlink:href="#linear-gradient-41"/><linearGradient id="linear-gradient-103" x1="1270.26" y1="1786.31" x2="1134" y2="1917.56" gradientTransform="translate(-208.27)" xlink:href="#linear-gradient-41"/><linearGradient id="linear-gradient-104" x1="1363.09" y1="716.47" x2="1709.8" y2="716.47" gradientTransform="translate(2360.95 -752.53) rotate(90)" gradientUnits="userSpaceOnUse"><stop offset="0" stop-color="#fe7062"/><stop offset="1" stop-color="#ff928e"/></linearGradient><linearGradient id="linear-gradient-105" x1="1408.54" y1="652.43" x2="1316.3" y2="742.19" gradientTransform="translate(3117.14 140.76) rotate(135)" xlink:href="#linear-gradient-104"/><linearGradient id="linear-gradient-106" x1="1381.5" y1="666.89" x2="1261.81" y2="847.69" xlink:href="#linear-gradient-104"/><linearGradient id="linear-gradient-107" x1="2196.01" y1="-89.65" x2="1898.01" y2="190.35" gradientTransform="translate(3114.51 1076.72) rotate(170.78)" gradientUnits="userSpaceOnUse"><stop offset="0" stop-color="#ff928e"/><stop offset="1" stop-color="#feb3b1"/></linearGradient><linearGradient id="linear-gradient-108" x1="1223.49" y1="656.78" x2="1131.25" y2="746.53" gradientTransform="translate(3025.81 403.77) rotate(148.28)" xlink:href="#linear-gradient-104"/><linearGradient id="linear-gradient-109" x1="1196.45" y1="671.24" x2="1076.76" y2="852.04" gradientTransform="translate(2985.02 89.63) rotate(135)" xlink:href="#linear-gradient-104"/><linearGradient id="linear-gradient-110" x1="2123.1" y1="-190.66" x2="1825.1" y2="89.34" gradientTransform="translate(2360.95 -752.53) rotate(90)" xlink:href="#linear-gradient-107"/><linearGradient id="linear-gradient-111" x1="1343.67" y1="766.78" x2="1251.44" y2="856.53" gradientTransform="translate(2993.5 1037.38) rotate(166.72)" xlink:href="#linear-gradient-104"/><linearGradient id="linear-gradient-112" x1="1316.63" y1="781.24" x2="1196.95" y2="962.04" gradientTransform="translate(2993.5 1037.38) rotate(166.72)" xlink:href="#linear-gradient-104"/><linearGradient id="linear-gradient-113" x1="2234.34" y1="-72.26" x2="1936.34" y2="207.74" gradientTransform="translate(2360.95 -752.53) rotate(90)" xlink:href="#linear-gradient-107"/><linearGradient id="linear-gradient-114" x1="1363.09" y1="1033.02" x2="1709.8" y2="1033.02" gradientTransform="matrix(0, 1, 1, 0, 259.11, -752.53)" xlink:href="#linear-gradient-104"/><linearGradient id="linear-gradient-115" x1="1408.54" y1="968.97" x2="1316.3" y2="1058.73" gradientTransform="matrix(-0.71, 0.71, 0.71, 0.71, 1518.18, -1073.31)" xlink:href="#linear-gradient-104"/><linearGradient id="linear-gradient-116" x1="1381.5" y1="983.43" x2="1261.81" y2="1164.24" gradientTransform="matrix(0, 1, 1, 0, 259.11, -752.53)" xlink:href="#linear-gradient-104"/><linearGradient id="linear-gradient-117" x1="2196.01" y1="226.9" x2="1898.01" y2="506.9" gradientTransform="matrix(-0.16, 0.99, 0.99, 0.16, 489.66, -897.55)" xlink:href="#linear-gradient-107"/><linearGradient id="linear-gradient-118" x1="1223.49" y1="973.32" x2="1131.25" y2="1063.08" gradientTransform="matrix(-0.53, 0.85, 0.85, 0.53, 1029.03, -1113.96)" xlink:href="#linear-gradient-104"/><linearGradient id="linear-gradient-119" x1="1196.45" y1="987.78" x2="1076.76" y2="1168.58" gradientTransform="matrix(-0.71, 0.71, 0.71, 0.71, 1388.61, -1130.58)" xlink:href="#linear-gradient-104"/><linearGradient id="linear-gradient-120" x1="2123.1" y1="125.88" x2="1825.1" y2="405.88" gradientTransform="matrix(0, 1, 1, 0, 259.11, -752.53)" xlink:href="#linear-gradient-107"/><linearGradient id="linear-gradient-121" x1="1343.67" y1="1083.32" x2="1251.44" y2="1173.08" gradientTransform="matrix(-0.23, 0.97, 0.97, 0.23, 586.8, -977.77)" xlink:href="#linear-gradient-104"/><linearGradient id="linear-gradient-122" x1="1316.63" y1="1097.78" x2="1196.95" y2="1278.58" gradientTransform="matrix(-0.23, 0.97, 0.97, 0.23, 586.81, -977.77)" xlink:href="#linear-gradient-104"/><linearGradient id="linear-gradient-123" x1="2234.34" y1="244.28" x2="1936.34" y2="524.28" gradientTransform="matrix(0, 1, 1, 0, 259.11, -752.53)" xlink:href="#linear-gradient-107"/></defs><title>play</title><g class="cls-1"><g id="Illustration"><path class="cls-2" d="M2358.11,1101.62C2301.6,731.8,2070,277.45,1612.3,229.9c0,0-347.47-42.27-690,21.79C719,289.71,540.75,402.88,428,565.53s-150.47,361-104.74,550.07c29.69,122.81,49.76,249.92,44.26,376.12-9.59,219.63-4.08,424.65,209.08,555.63,190.32,117,429.84,220.11,658.34,238.17,155.29,12.28,329.44-7.59,479.11-48C2476.76,2031.46,2414.61,1471.44,2358.11,1101.62Z"/><path class="cls-3" d="M1815.22,627.65a231.06,231.06,0,0,0,3.4-62.73c-4.51-51.94-27.46-95.29-66.67-126.32a124.9,124.9,0,0,0,1.61-41.28c-3.65-28.31-19.06-68.19-70.88-101-5.3-16.64-20.61-47-64.28-70.85-32.4-17.72-63.13-22-86.51-12a54.74,54.74,0,0,0-23.36,18.67,47.61,47.61,0,0,0-20.37,9c-7.94,6-14,14.47-18.27,25.16-4.24-10.69-10.32-19.12-18.26-25.16a47.66,47.66,0,0,0-20.37-9,54.76,54.76,0,0,0-23.37-18.67c-23.38-10-54.1-5.74-86.5,12-43.67,23.86-59,54.21-64.28,70.85-51.82,32.82-67.24,72.7-70.88,101a124.9,124.9,0,0,0,1.61,41.28c-39.22,31-62.17,74.38-66.67,126.32a230.65,230.65,0,0,0,3.4,62.73c-25.36,28.74-30.87,90.77-12.58,160.75,9.64,36.85,26.13,63.86,49,80.25a88.42,88.42,0,0,0,11.56,7,46.89,46.89,0,0,0,5.15,20.33c18.82,37.58,85.7,57.63,143.63,60.83,3,.16,5.83.24,8.66.24,28.49,0,51.1-8.24,67.28-24.55,12.64-12.73,18.5-27.66,21.19-39.74,22.86-2.79,39.54-11.1,49.74-24.79.6-.81,1.15-1.63,1.68-2.45.54.82,1.09,1.64,1.69,2.44,10.19,13.7,26.88,22,49.74,24.8,2.69,12.08,8.55,27,21.19,39.74,16.18,16.31,38.78,24.55,67.28,24.55q4.23,0,8.66-.24c57.93-3.2,124.81-23.25,143.63-60.83a46.73,46.73,0,0,0,5.14-20.33,87.84,87.84,0,0,0,11.57-7c22.88-16.39,39.37-43.4,49-80.25C1846.09,718.42,1840.58,656.39,1815.22,627.65Z"/><path class="cls-4" d="M1454.9,311.24V829.39s13.32,42.9-56.53,42.2c0,0,4.25,67.46-75.8,63s-146-39.27-123.16-73.58c0,0-45.92-1.84-65.9-78.28s-7.69-134.47,15.82-147c0,0-37.4-121.1,64.22-188.37,0,0-35-80.43,63-136.86,0,0,4.09-37.48,55.54-65.6,48.35-26.42,79.38-13,85.37,9.21C1417.42,254.18,1454.9,243.81,1454.9,311.24Z"/><path class="cls-5" d="M1484.89,311.24V829.39s-13.32,42.9,56.53,42.2c0,0-4.25,67.46,75.8,63s146-39.27,123.16-73.58c0,0,45.92-1.84,65.9-78.28s7.69-134.47-15.82-147c0,0,37.4-121.1-64.22-188.37,0,0,35-80.43-63-136.86,0,0-4.09-37.48-55.55-65.6-48.34-26.42-79.38-13-85.36,9.21C1522.37,254.18,1484.89,243.81,1484.89,311.24Z"/><path class="cls-6" d="M1412,317a1.27,1.27,0,0,1-.28,0c-.3-.06-29.9-6.11-26.32-35.87,3.38-28.16,31.58-28.43,32.06-28.43h0a1.47,1.47,0,1,1,0,2.94h0c-1.32,0-26.05.36-29.11,25.84-1.36,11.35,2.23,20.29,10.69,26.54a37,37,0,0,0,13.26,6.09A1.47,1.47,0,0,1,1412,317Z"/><path class="cls-6" d="M1352,415.16a46.43,46.43,0,0,1-16.51-3c-6.93-2.73-11.25-6.74-11.85-11a1.47,1.47,0,1,1,2.92-.4c.44,3.13,4.18,6.37,10,8.66,10.07,4,24.62,4.41,32.94-2.38,5.62-4.58,7.62-11.77,6-21.38-5.39-31.06-32.23-33.53-60.64-36.14-6.31-.57-12.83-1.17-19.17-2.09-11.88-1.72-19.42-5.92-22.41-12.51-4.24-9.31,2.32-19.67,2.6-20.1a1.47,1.47,0,0,1,2.48,1.59c-.11.17-6,9.5-2.4,17.31,2.56,5.6,9.34,9.23,20.15,10.79,6.27.91,12.75,1.51,19,2.08,29.57,2.71,57.49,5.28,63.27,38.57,2.32,13.37-2.52,20.52-7,24.17C1366.32,413.42,1359.21,415.16,1352,415.16Z"/><path class="cls-6" d="M1285.65,505.77c-6.32,0-11.72-2.59-13.59-6.92a1.47,1.47,0,0,1,2.7-1.17c1.8,4.16,8.92,6.2,15.88,4.55,4.13-1,17.51-5.71,16.38-25.62-.7-12.45-5-21.36-12.41-25.76-9.09-5.39-22.95-4.14-39,3.51-30.45,14.47-40.23-1.42-40.63-2.11a1.47,1.47,0,1,1,2.53-1.49c.36.58,9,14.18,36.84.94,17.25-8.2,31.7-9.37,41.8-3.38,8.3,4.92,13.09,14.65,13.85,28.12,1,17.64-9,26.37-18.64,28.66A25,25,0,0,1,1285.65,505.77Z"/><path class="cls-6" d="M1260.56,597a39.13,39.13,0,0,1-6.14-.48c-12.41-2-23.06-10.06-31.63-24s-11.18-27.53-7.71-40.24c5.88-21.52,26.85-32.83,27.73-33.3a1.48,1.48,0,1,1,1.38,2.61c-.2.11-20.74,11.21-26.27,31.49-3.24,11.88-.76,24.63,7.38,37.89s18,20.8,29.57,22.65a35.41,35.41,0,0,0,5.58.43c17.51,0,32.35-12.38,32.51-12.51a1.47,1.47,0,1,1,1.91,2.24C1294.17,584.34,1279.05,597,1260.56,597Z"/><path class="cls-6" d="M1398.31,606.49a1.43,1.43,0,0,1-.66-.16,1.47,1.47,0,0,1-.65-2c.08-.17,8.6-18-9.5-46.92s-52.44-22.59-52.78-22.52a1.48,1.48,0,0,1-.56-2.9,61.19,61.19,0,0,1,20.64.31c10.53,1.91,25.19,7.55,35.2,23.55,19,30.44,10,49,9.63,49.81A1.47,1.47,0,0,1,1398.31,606.49Z"/><path class="cls-6" d="M1356.6,702.83a1.47,1.47,0,0,1-.95-2.59c4.78-4.08,10.3-10.87,9.42-20-1.16-12-13.18-24.73-34.78-36.92-23.53-13.28-42.9-16.79-57.56-10.41-16.89,7.34-21.47,25.58-21.51,25.77a1.48,1.48,0,0,1-2.87-.69c.2-.81,5-19.86,23.2-27.78,15.56-6.77,35.81-3.22,60.19,10.54,22.79,12.87,35,26.06,36.26,39.21,1,10.41-5.12,18-10.44,22.54A1.51,1.51,0,0,1,1356.6,702.83Z"/><path class="cls-6" d="M1384.67,796.36a36.45,36.45,0,0,1-31.23-17.61,1.47,1.47,0,1,1,2.53-1.51A33.42,33.42,0,0,0,1397,791c17.42-7.07,24.15-26.78,18-52.72-8.46-35.64-8.74-57.61-.85-69.14,3.81-5.57,9.39-8.69,17.58-9.82,19.17-2.66,24.35,7.24,24.56,7.66a1.47,1.47,0,0,1-2.63,1.33c-.19-.37-4.62-8.42-21.53-6.08-7.3,1-12.24,3.74-15.55,8.57-7.28,10.65-6.86,32.5,1.29,66.8,3.47,14.6,3.09,27.14-1.12,37.3a33.62,33.62,0,0,1-18.62,18.83A35.42,35.42,0,0,1,1384.67,796.36Z"/><path class="cls-6" d="M1254.21,736.83c-28.18,0-42-37.54-53.29-68.39-3-8.12-5.8-15.79-8.68-22.3-4.69-10.59-10.65-16.72-17.72-18.22-10.18-2.16-19.48,6.1-19.57,6.19a1.47,1.47,0,0,1-2-2.18c.43-.39,10.48-9.36,22.14-6.9,8.06,1.71,14.73,8.41,19.83,19.92,2.92,6.59,5.75,14.31,8.75,22.48,6.26,17,13.35,36.35,23,49.63,10.83,14.88,23.29,19.8,38.09,15.05,12.51-4,20-10,22.09-17.7,3.47-12.47-8-25.75-8.11-25.89a1.47,1.47,0,1,1,2.22-1.94c.52.59,12.62,14.59,8.74,28.61-2.43,8.75-10.52,15.39-24,19.73A37.77,37.77,0,0,1,1254.21,736.83Z"/><path class="cls-6" d="M1202.6,859.53a1.55,1.55,0,0,1-.74-.2,1.48,1.48,0,0,1-.54-2c23.35-40.53,58.64-53.41,59-53.53a1.47,1.47,0,1,1,1,2.77c-.34.12-34.64,12.69-57.42,52.23A1.47,1.47,0,0,1,1202.6,859.53Z"/><path class="cls-6" d="M1395.15,869a1.44,1.44,0,0,1-1-.42c-15.24-14.89-31.35-12.55-46.93-10.29-14.36,2.08-27.93,4.05-39.71-7.14-8.91-8.47-13.26-17.76-12.91-27.63.63-18,16.51-31.3,17.19-31.86a1.47,1.47,0,1,1,1.87,2.27c-.15.13-15.54,13-16.12,29.71-.31,9,3.73,17.52,12,25.37,10.74,10.21,23.62,8.34,37.25,6.37,15.53-2.26,33.14-4.81,49.42,11.1a1.47,1.47,0,0,1,0,2.08A1.49,1.49,0,0,1,1395.15,869Z"/><path class="cls-6" d="M1553.6,320.84a43.36,43.36,0,0,1-17.37-3.93c-10.31-4.5-17.15-11.37-20.32-20.4-6.29-17.9,4-37.78,4.41-38.62a1.47,1.47,0,0,1,2-.62,1.49,1.49,0,0,1,.63,2c-.11.2-10.11,19.61-4.24,36.29,2.89,8.22,9.19,14.5,18.72,18.66,19.21,8.4,33.85,1.15,39.85-9.75,4.83-8.8,3.41-18.17-3.46-22.79a1.48,1.48,0,0,1,1.65-2.45c8.18,5.51,10,16.47,4.39,26.65C1575.19,314.33,1565.92,320.84,1553.6,320.84Z"/><path class="cls-6" d="M1581.55,374a1.47,1.47,0,0,1-1.39-1c-.22-.63-5.31-15.56,2.54-26.12,5.24-7.05,14.9-10.32,28.68-9.71,24.74,1.08,39.84-1.58,46.16-8.14,2.81-2.92,4-6.77,3.58-11.77a1.47,1.47,0,1,1,2.94-.24c.47,5.89-1,10.49-4.4,14.06-7,7.3-22.42,10.17-48.4,9-12.76-.56-21.57,2.31-26.19,8.53-6.93,9.31-2.18,23.25-2.13,23.39a1.47,1.47,0,0,1-.9,1.88A1.67,1.67,0,0,1,1581.55,374Z"/><path class="cls-6" d="M1516.7,442.79h-.35a1.47,1.47,0,0,1,0-2.94h0c8.87.16,18.89-7.52,24.33-18.68,6.25-12.83,5-26.57-3.21-36.74-6-7.39-12-11-17.84-10.73-7.9.36-13,7.85-13,7.92a1.47,1.47,0,1,1-2.45-1.63c.24-.36,5.94-8.79,15.33-9.24,6.84-.33,13.66,3.65,20.29,11.82,9,11.09,10.35,26,3.58,39.89C1537.43,434.66,1526.75,442.79,1516.7,442.79Z"/><path class="cls-6" d="M1646.25,468.17c-8.29,0-18.63-2.45-30.88-10-10.38-6.37-17.77-15.15-21.37-25.4a45.62,45.62,0,0,1-.83-27.29c3.66-12.94,12.29-21.63,21.47-21.63h0c7.45,0,12.76,2,15.8,5.81,3.85,4.87,2.47,10.89,2.41,11.14a1.47,1.47,0,1,1-2.86-.68c0-.07,1.08-4.93-1.88-8.66-2.46-3.09-7-4.66-13.48-4.67h0c-7.74,0-15.4,8-18.64,19.49-4.26,15.06-1,35.95,20.9,49.38,15.29,9.38,29.79,11.9,41.92,7.28a33,33,0,0,0,13.93-9.93,1.48,1.48,0,1,1,2.39,1.73,35.39,35.39,0,0,1-15.12,10.9A38.18,38.18,0,0,1,1646.25,468.17Z"/><path class="cls-6" d="M1644.11,601.48c-9.42,0-21.1-3.21-34.26-13.56-20.24-15.9-20.77-35.47-17.65-49.09a74.78,74.78,0,0,1,11.64-25.75,1.47,1.47,0,1,1,2.36,1.76,73.27,73.27,0,0,0-11.15,24.74c-4.22,18.56,1.37,34,16.62,46s30.3,15.74,44.46,11a40.74,40.74,0,0,0,16.7-10.76,1.47,1.47,0,0,1,2.25,1.9,43.29,43.29,0,0,1-18,11.65A40.49,40.49,0,0,1,1644.11,601.48Z"/><path class="cls-6" d="M1715.58,558c-7.87,0-16.49-3.49-24.76-10.31-17.82-14.69-22.73-36.48-19.69-51.56,2.45-12.14,9.81-20.9,20.2-24,24.78-7.44,29.78-20.39,29.83-20.52a1.47,1.47,0,0,1,2.77,1c-.21.59-5.4,14.44-31.75,22.35-9.32,2.79-15.93,10.73-18.16,21.78-2.87,14.21,1.79,34.78,18.67,48.69,12.42,10.24,25.49,12.46,35,5.95,6.35-4.36,9.3-11.83,7.19-18.14a1.47,1.47,0,1,1,2.79-.94c2.53,7.56-.89,16.4-8.32,21.51A23.87,23.87,0,0,1,1715.58,558Z"/><path class="cls-6" d="M1683.48,731h-.19c-9.76-.06-17.17-2.92-22-8.5-7.57-8.72-6-20.8-6-21.31a1.47,1.47,0,0,1,2.92.39h0c0,.12-1.41,11.31,5.29,19,4.27,4.9,10.93,7.41,19.8,7.47h.16c28.61,0,52.45-44.82,57.58-63.57.4-1.45.79-3,1.19-4.54,2.8-11,6.29-24.65,16.92-29.52,7.43-3.41,17.08-2.08,29.5,4.08a1.47,1.47,0,1,1-1.31,2.64c-11.41-5.66-20.48-7-27-4-9.35,4.29-12.51,16.66-15.3,27.58-.4,1.58-.8,3.13-1.2,4.59C1739.27,682.12,1715.44,731,1683.48,731Z"/><path class="cls-6" d="M1571.66,784.24a1.55,1.55,0,0,1-.37,0c-17.86-4.69-32.17-12.3-42.53-22.62A62.46,62.46,0,0,1,1511.25,729c-5.69-28.55,7.67-56.45,23.12-68.2,11.27-8.56,24.63-10.55,39.74-5.91,12,3.69,21.67,10.49,26.31,13.77.88.61,1.78,1.25,2.09,1.41A1.48,1.48,0,0,1,1602,673c-.63-.06-1.13-.42-3.23-1.9-25.15-17.7-46.2-20.36-62.57-7.91-15,11.36-27.28,38.89-22,65.28,3.61,18.15,16.59,42.07,57.89,52.92a1.47,1.47,0,0,1-.37,2.89ZM1602.24,670h0Z"/><path class="cls-6" d="M1542.19,869a1.47,1.47,0,0,1-1.47-1.44,26.81,26.81,0,0,1,7.91-18.06c7.26-7.34,18.65-11,33.79-10.85,28.24.26,48.09-5.92,53.12-16.52,3.29-6.92.49-15.79-8.3-26.36a1.47,1.47,0,1,1,2.26-1.89c9.6,11.54,12.52,21.47,8.7,29.52-5.61,11.83-26,18.47-55.8,18.19-14.33-.13-25,3.22-31.64,9.94a24.33,24.33,0,0,0-7.1,16,1.47,1.47,0,0,1-1.45,1.5Z"/><path class="cls-6" d="M1737.21,860.43a1.48,1.48,0,0,1-1.37-.91c-16.63-40.27-53.15-44.93-53.52-45a1.47,1.47,0,1,1,.33-2.92c.4,0,9.81,1.17,21.45,7.5,10.74,5.84,25.42,17.38,34.47,39.27a1.48,1.48,0,0,1-.8,1.93A1.59,1.59,0,0,1,1737.21,860.43Z"/><path class="cls-7" d="M2654.1,1778,2471,886.76C2434.69,709.83,2265.48,601,2097.86,649.61l-75.74,21.95a302.48,302.48,0,0,1-83.69,12l-169.13.36-695.9,1.49-183.26.4a352.61,352.61,0,0,1-92.92-12.28l-85.4-23.13c-193.58-52.43-395.7,66.79-440,262.82L43.5,1923.12C5.32,2092,101.32,2253.45,266.16,2299.79h0c183.37,51.56,381.48-63.11,432-247l78.39-285.62c16.26-59.25,69.73-102.19,130.38-105l1016.31-46.77c55-2.53,102.9,33.5,117.4,88l69.31,260.46c44.14,165.88,213.74,246.13,365.74,175.58h0C2608.39,2077.8,2684.05,1923.79,2654.1,1778Z"/><path class="cls-8" d="M1763.46,1153.65l-566.1,15.79c-50.4,1.41-91.45-45.14-91.45-104V685.58l742.84-1.85v365.14C1848.75,1105.42,1810.67,1152.33,1763.46,1153.65Z"/><path class="cls-9" d="M2227.58,1914.6c-1.78-66.49,29.89-100.74,23.13-202.36-3.16-47.51-12.15-182.56-101.18-251.52-85.3-66.06-203.15-39.77-355.58-5.78-196.42,43.81-188.81,90.85-326.68,109.86-201,27.71-272.66-64.61-419.18-17.35-73,23.57-128.82,70.29-170.7,119.41a138.19,138.19,0,0,1,29.5-4.71l1016.31-46.77c55-2.53,102.9,33.5,117.4,88l69.31,260.46c35.82,134.6,154.25,212.81,278.85,199.83C2261.23,2062.8,2229.28,1977.94,2227.58,1914.6Z"/><path class="cls-10" d="M1005,1063.1c0,165.11-135.12,303.35-304.07,308.85-171.53,5.58-312.5-127.39-312.5-297.08s141-308,312.5-309C869.89,764.9,1005,898,1005,1063.1Z"/><path class="cls-11" d="M1349.85,1456.05c0,133.46-107.36,246.84-241.26,253.32C973.05,1715.93,862,1610.7,862,1474.27s111.09-250,246.63-253.52C1242.49,1217.23,1349.85,1322.59,1349.85,1456.05Z"/><path class="cls-12" d="M1303.35,1457.79c0,107.73-86.77,199.08-194.76,204.08-109,5-198.25-79.74-198.25-189.4s89.2-201.11,198.25-204.21C1216.58,1265.18,1303.35,1350.05,1303.35,1457.79Z"/><path class="cls-13" d="M1264.8,1460c0,75-60.37,138.81-135.66,142.45-76.22,3.69-138.69-55.48-138.69-132.2s62.47-140.55,138.69-142.56C1204.43,1325.67,1264.8,1384.92,1264.8,1460Z"/><path class="cls-14" d="M1238.66,1460.94c0,60.58-48.8,112-109.52,114.76-61.33,2.83-111.48-44.84-111.48-106.51s50.15-113.08,111.48-114.83C1189.86,1352.64,1238.66,1400.36,1238.66,1460.94Z"/><path class="cls-15" d="M2068.39,1426.24c0,128.59-99.66,237.66-223.9,243.67-125.71,6.08-228.71-95.42-228.71-226.77s103-240.54,228.71-243.85C1968.73,1196,2068.39,1297.64,2068.39,1426.24Z"/><path class="cls-16" d="M2025.22,1427.85c0,103.8-80.54,191.67-180.73,196.3-101.15,4.68-183.86-77.09-183.86-182.69s82.71-193.54,183.86-196.42C1944.68,1242.19,2025.22,1324.05,2025.22,1427.85Z"/><path class="cls-17" d="M2009.63,1429.57c0,75-60.38,138.8-135.67,142.44-76.21,3.69-138.69-55.48-138.69-132.2s62.48-140.55,138.69-142.56C1949.25,1295.27,2009.63,1354.52,2009.63,1429.57Z"/><path class="cls-18" d="M1983.48,1430.54c0,60.58-48.8,112-109.52,114.76-61.32,2.83-111.48-44.84-111.48-106.5S1812.64,1325.71,1874,1324C1934.68,1322.24,1983.48,1370,1983.48,1430.54Z"/><path class="cls-19" d="M1005.08,882.52h0a37.13,37.13,0,0,1-37.67-37.14v-66a37.84,37.84,0,0,1,37.67-37.73h0a37.27,37.27,0,0,1,37.53,37.26v65.78A38,38,0,0,1,1005.08,882.52Z"/><path class="cls-20" d="M1918.55,871.46h0c-19,.21-34.33-15.67-34.33-35.47V773c0-19.8,15.38-35.92,34.33-36h0c18.91-.09,34.22,15.84,34.22,35.58v62.81C1952.77,855.09,1937.46,871.26,1918.55,871.46Z"/><path class="cls-21" d="M733.27,849.37l-64.76.6c-19.08.18-34.58,15.53-34.58,34.28v73.69a33,33,0,0,0,5.78,18.68L669,1019.44a34,34,0,0,0,28.73,14.65l6.43-.12a35.22,35.22,0,0,0,28.64-15.61l29-43.56a33.86,33.86,0,0,0,5.71-18.75V882.79A33.61,33.61,0,0,0,733.27,849.37Z"/><path class="cls-22" d="M733.27,1287.21l-64.76,1.86c-19.08.55-34.58-14.2-34.58-33v-73.69a34.1,34.1,0,0,1,5.78-18.91L669,1119.59a35.51,35.51,0,0,1,28.73-15.75l6.43-.13a33.72,33.72,0,0,1,28.64,14.52l29,42.46a32.8,32.8,0,0,1,5.71,18.53v73.25C767.54,1271.11,752.21,1286.66,733.27,1287.21Z"/><path class="cls-23" d="M475.72,1041.06v64.29c0,18.88,15.71,33.84,35.07,33.42l75.74-1.67a35.92,35.92,0,0,0,19.21-6.09l44.22-29.7a34.55,34.55,0,0,0,15.45-28.56v-6.33a33,33,0,0,0-15.45-28l-44.22-28a34.79,34.79,0,0,0-19.21-5.36l-75.74,1.22C491.43,1006.62,475.72,1022.18,475.72,1041.06Z"/><path class="cls-24" d="M921.74,1033.17v63a34.56,34.56,0,0,1-33.81,34.26l-73.73,1.62a33.8,33.8,0,0,1-18.87-5.21l-43.65-27.66a32.88,32.88,0,0,1-15.33-27.84v-6.31a34.36,34.36,0,0,1,15.33-28.42l43.65-29.33a34.9,34.9,0,0,1,18.87-5.93l73.73-1.19A33,33,0,0,1,921.74,1033.17Z"/><path class="cls-25" d="M747.72,852.57l-64.75.61c-19.09.18-34.58,15.52-34.58,34.27v73.69a33.06,33.06,0,0,0,5.78,18.69l29.28,42.82a34,34,0,0,0,28.73,14.64l6.42-.11a35.2,35.2,0,0,0,28.64-15.61l29-43.57A33.79,33.79,0,0,0,782,959.25V886A33.63,33.63,0,0,0,747.72,852.57Z"/><path class="cls-26" d="M747.72,1290.41,683,1292.28c-19.09.55-34.58-14.2-34.58-33v-73.69a34.1,34.1,0,0,1,5.78-18.91l29.28-43.94a35.5,35.5,0,0,1,28.73-15.74l6.42-.13a33.71,33.71,0,0,1,28.64,14.51l29,42.46a32.75,32.75,0,0,1,5.72,18.53v73.26C782,1274.32,766.66,1289.87,747.72,1290.41Z"/><path class="cls-27" d="M490.18,1044.26v64.3c0,18.88,15.71,33.84,35.06,33.41l75.74-1.66a35.88,35.88,0,0,0,19.22-6.1l44.22-29.7A34.53,34.53,0,0,0,679.86,1076v-6.32a33.06,33.06,0,0,0-15.44-28l-44.22-28a34.91,34.91,0,0,0-19.22-5.36l-75.74,1.23C505.89,1009.82,490.18,1025.38,490.18,1044.26Z"/><path class="cls-28" d="M936.2,1036.37v63a34.57,34.57,0,0,1-33.81,34.26l-73.74,1.63a33.91,33.91,0,0,1-18.86-5.21l-43.66-27.66a32.89,32.89,0,0,1-15.33-27.84v-6.31a34.38,34.38,0,0,1,15.33-28.43l43.66-29.32a34.84,34.84,0,0,1,18.86-5.93l73.74-1.2A33,33,0,0,1,936.2,1036.37Z"/><path class="cls-29" d="M1946.47,1043.45c0,157.48,121.48,281.19,269.43,276.38,145.89-4.75,262.67-133,262.67-286.54S2361.79,756,2215.9,756.78C2068,757.62,1946.47,886,1946.47,1043.45Z"/><path class="cls-30" d="M2283.44,860.75c0,39.48-30.18,71.91-67.54,72.44s-68-31.26-68-71,30.49-72.18,68-72.45S2283.44,821.27,2283.44,860.75Z"/><path class="cls-31" d="M2283.44,1213.28c0,39.48-30.18,72.42-67.54,73.58s-68-30.11-68-69.85,30.49-72.69,68-73.59S2283.44,1173.8,2283.44,1213.28Z"/><path class="cls-32" d="M2047.47,969.23c38-.6,68.63,31.18,68.63,71s-30.67,72.75-68.63,73.61-69.09-30.92-69.09-71S2009.37,969.82,2047.47,969.23Z"/><path class="cls-33" d="M2381.66,964c36.77-.58,66.49,30.71,66.49,69.88s-29.72,71.59-66.49,72.42-66.91-30.45-66.91-69.87S2344.76,964.57,2381.66,964Z"/><path class="cls-34" d="M2297.9,864c0,39.48-30.19,71.91-67.55,72.44s-68-31.26-68-71,30.49-72.17,68-72.44S2297.9,824.48,2297.9,864Z"/><path class="cls-35" d="M2297.9,1216.48c0,39.49-30.19,72.43-67.55,73.58s-68-30.11-68-69.84,30.49-72.69,68-73.6S2297.9,1177,2297.9,1216.48Z"/><path class="cls-36" d="M2061.92,972.43c38-.59,68.64,31.19,68.64,71s-30.68,72.75-68.64,73.6-69.08-30.92-69.08-71S2023.82,973,2061.92,972.43Z"/><path class="cls-37" d="M2396.12,967.19c36.77-.57,66.48,30.71,66.48,69.89s-29.71,71.59-66.48,72.42-66.92-30.45-66.92-69.88S2359.22,967.77,2396.12,967.19Z"/><path class="cls-38" d="M354.27,2186.35c5.78-73.17,104.3-84,124.31-176.35,27.42-126.51-139.32-190.7-124.31-326.67,14.67-133,187-188,161.89-268.86-12.49-40.14-57.35-34.1-118.53-89.62-86-78-105.57-188.18-109.86-219.71-26.69-196.2,130.56-343.41,159-370A508.56,508.56,0,0,1,594.53,639C442.85,649.51,307.15,756.88,271.81,913.2L43.5,1923.12C5.32,2092,101.32,2253.45,266.16,2299.79h0a336.15,336.15,0,0,0,156.71,5.76C365.21,2255.7,351.9,2216.27,354.27,2186.35Z"/><path class="cls-39" d="M1643.62,1024.2c-82-45.28-130.68,8.68-190.19-32.37-69.4-47.87-26.28-137.15-96-190.24-58.74-44.71-114.9-.83-199.78-34.17a209.61,209.61,0,0,1-51.73-29.56v327.61c0,58.83,41,105.38,91.45,104l566.1-15.79a74.61,74.61,0,0,0,33.51-9.14,234.13,234.13,0,0,1-40.11-18.8C1697,1090.28,1698.85,1054.68,1643.62,1024.2Z"/><path class="cls-40" d="M2125.15,1711.58c-55.7-27.2-164.33,71.32-217.2,165.69-21.07,37.61-45.8,81.76-39.73,134.25,10.75,93.05,114,174.68,256.06,201.93l12-42.86c-15.53-16.18-38.77-39.54-68.46-66.3-45.6-41.11-55-43.85-57.16-56.83-7.17-42.52,102.16-78.11,141-152.86C2185.14,1830.33,2167.93,1732.48,2125.15,1711.58Z"/><path class="cls-41" d="M2052,2459.49s9.15,22.56,4.6,31.4c-4.77,9.27-18.57,6.51-57.43,8-39.79,1.5-48.79,4.69-50.38.69-3.18-8,27.74-33.35,63.91-40.06A110,110,0,0,1,2052,2459.49Z"/><path class="cls-42" d="M2043.78,2425.77l-21.63,33.72s10,9.84,26.91,6.18l23.8-32Z"/><g class="cls-43"><path class="cls-40" d="M2151.71,1894.6c33.43-64.27,16.22-162.12-26.56-183-11.22-5.48-24.61-5.78-39.24-2.12,7.7,22.25,6.17,38.33,2.37,49.72-17,50.8-90.24,45-113.14,102.85-14.47,36.56,8.55,54.7-12,84-21.29,30.36-56.11,25.27-66.86,54.85-8,22,7.79,34.58,1.71,53.14-1.69,5.18-5,10.37-10.63,15.31,37.65,67.72,125.27,122.7,236.91,144.12l12-42.86c-15.53-16.18-38.77-39.54-68.46-66.3-45.6-41.11-55-43.85-57.16-56.83C2003.49,2004.94,2112.82,1969.35,2151.71,1894.6Z"/></g><path class="cls-40" d="M2087.14,1731.75c2.41,97.4,1.06,202.71-6,314.83a3597.9,3597.9,0,0,1-46.5,392.8l27.49,8.75c94.23-91.82,122.43-172.59,130.15-230.68,5.46-41.07-2.8-44.6,4.56-96,14-97.89,50.62-131.41,76.31-223,9.64-34.39,20.38-86.35,19.7-154.08Z"/><path class="cls-44" d="M2019.64,1557.29c1.71.39,9.14,2.86,12.07,33.89,7.09,74.84-31.87,105.13-22.28,145.71,9.21,39,56.17,57.85,104.51,77.31,32.31,13,132.22,53.2,190.33,8,24.45-19,27.13-42,44.57-126.44,44.33-214.54,61.5-233,42.86-279.42-32-79.75-117.73-112.78-132-118.28-152.07-58.59-331.65,49.1-402.61,172.83-9.34,16.29-65.15,113.58-25.94,159.73,23.72,27.92,78.23,32.43,114.2,13.39C1993.41,1618.56,2003.62,1553.62,2019.64,1557.29Z"/><path class="cls-45" d="M1853.43,1614a3.43,3.43,0,0,1-3.12-4.85c1.31-2.86,32.7-70.23,105.24-96.81a3.43,3.43,0,0,1,2.35,6.44c-69.77,25.57-101,92.54-101.34,93.21A3.43,3.43,0,0,1,1853.43,1614Z"/><path class="cls-46" d="M2138.22,1537.09c-.4-3.09-3.54-24.47-21.39-31.32-8.88-3.4-24.48-4.4-30.55,5.35-3.82,6.12-3.48,15.85,1.53,20.62,6.33,6,14.59-1.14,26,3.82,13.68,6,15.9,22.49,20.62,21.39C2138.12,1556.09,2139.28,1545.27,2138.22,1537.09Z"/><path class="cls-47" d="M2292.27,1388.91c-9.59,26.13,19.21,48.77,6.86,77.14-17.69,40.65-88,19.79-113.14,60-29.79,47.66,38.43,125.82,10.29,152.57-12.83,12.19-27.65-3.42-65.14,5.14-53.4,12.2-69.45,54.4-94.28,48-7.81-2-17.28-9.1-25.25-30.93-3.47,12.11-5.13,23.61-2.18,36.07,9.21,39,56.17,57.85,104.51,77.31,32.31,13,132.22,53.2,190.33,8,24.45-19,27.13-42,44.57-126.44,44.33-214.54,61.5-233,42.86-279.42-10.17-25.32-25.75-45.92-42.74-62.43C2312.34,1362,2297.3,1375.23,2292.27,1388.91Z"/><path class="cls-48" d="M2139.33,1517c4.11,3.73,50.11,53.14,100.16,40.63,43.58-10.9,70.34-53.27,75-88.93,11.15-84.79-99.33-156-85.71-173.13,8-10.1,50.66,8.63,80.57,27.42,24.52,15.41,127.26,80,124.51,188.23-.28,11-2,80.6-48.13,115.34-62.22,46.92-158.38,45.67-261.11-67.75C2130.33,1542.56,2133.64,1533.15,2139.33,1517Z"/><path class="cls-49" d="M1914.72,1413.06l49.53,158.23a12.85,12.85,0,0,0,11.78,9l64.77,9.41a12.81,12.81,0,0,0,13-15.52l-43.68-162a12.81,12.81,0,0,0-12.12-10.1l-70.63-5.68A12.82,12.82,0,0,0,1914.72,1413.06Z"/><path class="cls-50" d="M1917.1,1418.26l48.07,153.57a12.44,12.44,0,0,0,11.43,8.71l56.92,9.14a12.44,12.44,0,0,0,12.6-15.07l-42.67-157.28a12.43,12.43,0,0,0-11.76-9.79l-62.34-5.43A12.43,12.43,0,0,0,1917.1,1418.26Z"/><path class="cls-51" d="M2046.12,1574.61l-40.76-150.26a54,54,0,0,0-11.5,7.32c-16,13.77-25.25,38.69-19.95,58.62,6.76,25.42,32.7,26.21,36.29,47.36,2.8,16.56-10.63,34.09-21.72,44.8l45,7.23A12.44,12.44,0,0,0,2046.12,1574.61Z"/><path class="cls-52" d="M2117.94,1274.4a22.45,22.45,0,0,1-16.27,28c-15,3.62-33.31,8.63-41.2,13.15-14.5,8.29,44.15-1.29,98.1-2.55,33.69-.79,58.85-4.57,73-7.3a3.74,3.74,0,0,0,.42-7.24c-13.48-4.39-35.4-10.84-53.93-13.17-22.93-2.88-47.52-53.49-47.52-53.49l-19.66,17.85Z"/><path class="cls-53" d="M1944.61,1525.8l3-5a21.17,21.17,0,0,1,23.08-15.68l15.89,2a8.56,8.56,0,0,1,7.32,10.25c-1.48,7.1-5.29,15.59-15,14.93-16.59-1.12-27.2,23-27.2,23l-6.36-9A18.7,18.7,0,0,1,1944.61,1525.8Z"/><path class="cls-54" d="M2074.14,1248.47c-16.95-2.52-35.94-16.76-35.57-28.54.51-16.18,37.5-25,56.18-29.52s26.68-2.86,32,1.22,9.08,11.64,10.26,18.08c.64,3.51.67,8.34.07,18-.53,8.54-.37,8.16-.59,10.68-.54,6.06-2.19,16.72-8.1,31.49a76,76,0,0,0-9.83-9.09,67.45,67.45,0,0,0-15-8.82C2091.42,1247,2084.43,1250,2074.14,1248.47Z"/><path class="cls-55" d="M2137.45,1253.38s-1.1,23.61-23.35,34c-19.92,9.28-46.36-32.32-39.08-48.2,2.42-5.3,9.94-11.06,17.64-12.85,4.54-1,6.78-.14,14.17-2,6.83-1.72,8.15-3.31,10.79-2.78,3.29.67,7.49,4.42,10.63,19.09,1.64-5.73,5.26-9.57,9.19-9.8a7.49,7.49,0,0,1,3.93,1.09C2146.76,1235.36,2145.7,1244.11,2137.45,1253.38Z"/><path class="cls-56" d="M2415.15,805.65c0-89.4-82.46-159.19-180.69-156-55.93,1.82-104.6,27-135,64.26v0c-.19.23-.36.47-.55.7-.53.65-1,1.32-1.55,2q-1.41,1.8-2.76,3.63c-.53.73-1.06,1.45-1.58,2.19-.87,1.22-1.71,2.45-2.54,3.7-.47.71-1,1.42-1.42,2.14-.92,1.44-1.81,2.89-2.69,4.36-.31.53-.65,1-1,1.59-1.15,2-2.26,4-3.31,6-.29.54-.54,1.09-.82,1.63q-1.16,2.29-2.24,4.62c-.35.76-.68,1.53-1,2.3-.61,1.37-1.2,2.75-1.76,4.14-.33.81-.65,1.62-1,2.44-.55,1.43-1.07,2.87-1.57,4.31-.27.76-.54,1.51-.79,2.27-.6,1.83-1.16,3.66-1.69,5.51-.1.39-.23.76-.34,1.15q-.91,3.34-1.68,6.75c-.15.66-.27,1.34-.41,2-.34,1.62-.66,3.25-.94,4.89-.14.84-.27,1.68-.4,2.52-.23,1.52-.44,3-.63,4.58-.1.86-.2,1.72-.29,2.58-.16,1.62-.29,3.24-.4,4.87,0,.76-.11,1.52-.15,2.28-.12,2.38-.2,4.77-.2,7.18,0,57.37,34.75,108,86.84,135.07q7.18,3.74,14.8,6.87c2.55,1.05,5.12,2,7.73,3a191.89,191.89,0,0,0,59.28,11.1h0c2.89.09,5.76.1,8.63.06,1,0,1.92-.07,2.88-.1,1.9-.05,3.79-.11,5.67-.22,1.15-.06,2.29-.17,3.43-.25,1.68-.13,3.36-.26,5-.43,1.22-.12,2.43-.28,3.64-.42,1.58-.19,3.15-.39,4.72-.62,1.25-.18,2.48-.39,3.72-.59,1.52-.25,3-.51,4.53-.8,1.25-.24,2.5-.5,3.75-.76,1.46-.31,2.92-.64,4.38-1,1.25-.3,2.49-.6,3.73-.92,1.43-.37,2.86-.76,4.28-1.16,1.23-.35,2.45-.7,3.66-1.07.45-.13.91-.25,1.36-.39l0,0C2365.8,932.28,2415.15,874.58,2415.15,805.65Z"/><path class="cls-57" d="M2401.66,805.68c0,89.17-82,159.06-179.78,156.2-94.09-2.74-167.83-72.38-167.83-155.63s73.74-153.13,167.83-156.19C2319.61,646.88,2401.66,716.5,2401.66,805.68Z"/><path class="cls-58" d="M2210.64,714.05l-26.33,48.44-53.12,6.38c-7.66.91-11.28,10.47-6.13,16.2l35.87,39.9-12.23,54.92c-1.8,8.07,6,14.76,13.27,11.28l50-24,48.51,29.44a9.93,9.93,0,0,0,15-10L2268,829.36l42-38.28a10,10,0,0,0-5-17.19l-55.16-9.62-22.11-49.94C2224.57,707.15,2214.47,707,2210.64,714.05Z"/><g class="cls-59"><path class="cls-60" d="M2264.38,923.08c-21.2-46.69.24-89.83-28.4-119.78s-65.65-2-104.76-26c-14.95-9.21-31.47-26.82-43.68-63.15-21.06,25.86-33.49,57.74-33.49,92.13,0,83.25,73.74,152.89,167.83,155.63a191.65,191.65,0,0,0,63.09-8.63A107.75,107.75,0,0,1,2264.38,923.08Z"/></g><path class="cls-61" d="M584.34,1363.68c0-89.4-82.47-159.19-180.69-156-55.94,1.82-104.6,27-135,64.26v0c-.19.23-.37.47-.55.7-.53.66-1,1.32-1.55,2q-1.41,1.8-2.77,3.63c-.53.73-1,1.45-1.57,2.19-.87,1.22-1.71,2.45-2.54,3.7-.48.71-1,1.42-1.42,2.14-.93,1.44-1.82,2.89-2.69,4.36-.32.53-.65,1.05-1,1.59-1.15,2-2.26,4-3.32,6-.28.54-.54,1.09-.81,1.64-.77,1.52-1.53,3.06-2.24,4.61-.36.76-.69,1.53-1,2.3-.6,1.37-1.19,2.75-1.75,4.15-.33.8-.65,1.61-1,2.43-.55,1.43-1.07,2.87-1.57,4.31-.26.76-.53,1.51-.79,2.28-.6,1.82-1.15,3.65-1.68,5.5-.11.39-.24.77-.34,1.15-.62,2.23-1.17,4.48-1.68,6.75-.15.66-.27,1.34-.41,2-.34,1.62-.66,3.25-.95,4.9-.14.83-.27,1.67-.39,2.51-.24,1.52-.45,3-.63,4.58-.11.86-.21,1.72-.29,2.58-.17,1.62-.29,3.24-.4,4.87,0,.76-.12,1.52-.16,2.28-.12,2.38-.19,4.77-.19,7.18,0,57.37,34.74,108,86.83,135.07q7.19,3.75,14.81,6.88,3.81,1.56,7.73,3a191.54,191.54,0,0,0,59.28,11.1h0c2.89.09,5.77.1,8.63.06,1,0,1.93-.07,2.89-.1,1.89,0,3.79-.11,5.67-.22,1.15-.06,2.28-.17,3.43-.25,1.68-.13,3.36-.26,5-.43,1.22-.12,2.44-.28,3.65-.42,1.57-.19,3.15-.39,4.71-.62,1.25-.18,2.49-.38,3.73-.59,1.51-.25,3-.51,4.52-.8,1.26-.24,2.51-.49,3.75-.76,1.47-.31,2.93-.64,4.38-1,1.25-.29,2.5-.6,3.73-.92,1.44-.37,2.87-.76,4.29-1.16,1.22-.35,2.45-.7,3.66-1.07.45-.13.91-.25,1.35-.39l0,0C535,1490.31,584.34,1432.61,584.34,1363.68Z"/><path class="cls-62" d="M570.84,1363.71c0,89.17-82,159.06-179.77,156.21-94.09-2.75-167.84-72.39-167.84-155.64S297,1211.15,391.07,1208.09C488.8,1204.91,570.84,1274.53,570.84,1363.71Z"/><g class="cls-59"><path class="cls-63" d="M433.57,1481.11c-21.21-46.69.23-89.83-28.4-119.78s-65.66-2-104.76-26c-15-9.21-31.48-26.82-43.69-63.15-21.06,25.86-33.49,57.74-33.49,92.13,0,83.25,73.75,152.89,167.84,155.64a191.92,191.92,0,0,0,63.09-8.64A107.32,107.32,0,0,1,433.57,1481.11Z"/></g><path class="cls-58" d="M477.51,1352.76l-4.58-17.8a1.26,1.26,0,0,0-1.12-.94l-15.27-1.23a66.64,66.64,0,0,0-13-17.29l3.07-15a1.26,1.26,0,0,0-.6-1.34l-15.82-9.35a1.27,1.27,0,0,0-1.46.13l-11.67,9.93a66.78,66.78,0,0,0-21.42-3L387.2,1284a1.28,1.28,0,0,0-1.37-.53l-17.8,4.58a1.27,1.27,0,0,0-.95,1.12l-1.22,15.27a66.64,66.64,0,0,0-17.29,13l-15-3.07a1.26,1.26,0,0,0-1.34.59l-9.35,15.83a1.27,1.27,0,0,0,.13,1.46l9.93,11.67a66.74,66.74,0,0,0-3,21.42l-12.78,8.44a1.28,1.28,0,0,0-.53,1.37l4.58,17.8a1.25,1.25,0,0,0,1.12.94l15.27,1.23a66.64,66.64,0,0,0,13,17.29l-3.07,15a1.25,1.25,0,0,0,.59,1.33l15.83,9.36a1.27,1.27,0,0,0,1.46-.13l11.67-9.93a66.74,66.74,0,0,0,21.42,3l8.44,12.78a1.26,1.26,0,0,0,1.36.53l17.81-4.58a1.25,1.25,0,0,0,.94-1.12l1.23-15.27a66.64,66.64,0,0,0,17.29-13l15,3.07a1.25,1.25,0,0,0,1.33-.59l9.36-15.83a1.27,1.27,0,0,0-.13-1.46L461.16,1384a66.74,66.74,0,0,0,3-21.42l12.78-8.44A1.28,1.28,0,0,0,477.51,1352.76Zm-82,40.12a29.28,29.28,0,1,1,29.28-29.28A29.28,29.28,0,0,1,395.51,1392.88Z"/><path class="cls-64" d="M590.48,1628.16S449.73,1384.45,259.39,1798.9C111.18,2121.62,207,2480.65,549.86,2579.17s878.45-100.45,710.34-240.67C903.62,2041.07,633,1777.43,590.48,1628.16Z"/><g class="cls-65"><path class="cls-66" d="M413.87,1847.17c-10,29.51-12.29,113.61-8.06,210.31,3.77,86.27-4.06,131.37,133.19,194.12,47,21.51,79.58,89.75,151.61,130.35,32.65,18.41,155.68,85,314.55,58.1,105.12-17.81,183.39-69.37,236.1-117.41-347.16-290.92-609-547.88-650.78-694.48,0,0-51.43-89-134.13-67.91C476.41,1582.61,483.23,1642.85,413.87,1847.17Z"/></g><g class="cls-65"><path class="cls-67" d="M1098.68,2481.14c-162.17,89.54-433,144.2-634.78-5.67-186.83-138.76-203.47-371.15-209.7-442.08-10.88-123.94,13.33-231.87,48.25-318.93-14,24.53-28.4,52.52-43.06,84.44C111.18,2121.62,207,2480.65,549.86,2579.17c337.51,97,861.69-94.28,717.74-234C1226.68,2391.29,1171.48,2440.93,1098.68,2481.14Z"/></g><path class="cls-68" d="M843.21,2507.73c-4.81,0-9.63-.05-14.51-.16-125.24-2.8-301.07-44.4-427.5-226.69-106.78-154-92.49-327.72-61.7-446.37,33.32-128.42,92.65-221.74,93.24-222.67a2.23,2.23,0,0,1,3.75,2.41c-.59.92-59.58,93.75-92.71,221.5-30.52,117.72-44.71,290.06,61.08,442.59,125.36,180.75,299.73,222,423.94,224.77,134.77,3,241-37.26,242.08-37.67a2.23,2.23,0,1,1,1.6,4.16C1071.46,2470,971.83,2507.72,843.21,2507.73Z"/><path class="cls-69" d="M1515.75,2484.68c-8.93-9.62-25-51,4.26-59.55,29.37-8.56,45.69-19.39,86.14-51.81s50.83-4.58-6.29,48.07S1528.46,2498.36,1515.75,2484.68Z"/><path class="cls-70" d="M1477.49,2424.2l24,21a15.08,15.08,0,0,0,18,1.39,9.8,9.8,0,0,0,1.13-15.72l-35.16-30.09Z"/><path class="cls-71" d="M756.92,2221.93c-42.51,37.24,46.22,159.36,188,119.77,171.77-48,390.22-26.41,537.48,93.49,8.54-7.6,29.7-19.52,20-29.31-133-134.52-256.24-211.74-358.3-232.46C989.8,2142.09,878,2115.9,756.92,2221.93Z"/><g class="cls-72"><path class="cls-73" d="M1255.25,2273.08c24.92,14.49,30.23-15,43.08-34.33-55.18-33.89-107-55.74-154.23-65.33-154.3-31.33-266.14-57.52-387.18,48.51-42.51,37.24,46.22,159.36,188,119.77,51.26-14.31,106.71-22.28,163.16-23.44C1153.46,2289.71,1190.61,2224.19,1255.25,2273.08Z"/></g><path class="cls-74" d="M731.83,2349.14l-8.72,3.33s-56.44-53.28-66.5-66.86c-12.28-16.57,125.93-58.82,170.81-114.09,47.16-58.08,9.9,68.95,9.9,68.95Z"/><path class="cls-75" d="M680.65,1826.33s50.1,6.86,105,104.29c41.31,73.25,131,133.93,131,133.93l9.21,57.64-74.44,13.08-26.63-17.54L752.2,1963.19Z"/><path class="cls-76" d="M583.49,1820.11S460,1835.35,457.33,1977.46c-2.45,131.16,44.87,182,161,291.33,11.68,11,30.61,11,32,12.58q11.32,12.77,22.92,26.64c103.91-99.72,221.08-133.49,221.08-133.49S786,1950.34,738.34,1876C689.25,1799.41,615.21,1812.49,583.49,1820.11Z"/><g class="cls-65"><path class="cls-77" d="M788.56,2151.18c-52.14,27.9-126,24.75-153.21-9.78-20.46-26-23.78-35.68-48.69-76.51-20-32.84-29.8-38.11-73.58-65.76-16.53-10.44-35.29-25.54-53.68-48.18a222.31,222.31,0,0,0-2.07,26.51c-2.45,131.16,44.87,182,161,291.33,11.68,11,30.61,11,32,12.58q11.32,12.77,22.92,26.64c103.91-99.72,221.08-133.49,221.08-133.49s-18-35.26-41.8-84.84C835.25,2118.62,822,2133.29,788.56,2151.18Z"/></g><path class="cls-58" d="M703.4,2155.36s23.4,1.08,40-5.62,15.25-8.23,34.39-10.66c18.6-2.36,55.23-13.4,34.49-32.27-23.08-21-62.66-15.11-74-1.17-11,13.44-30,22-30,22Z"/><path class="cls-78" d="M494.62,1891s-68.6,8-28.57,228.88c20.76,114.57,123.38,98.44,247.3,51.1,8.38-17.55-2.41-54.74-2.41-54.74S557,2179.67,553,2087.06C548.54,1983.23,534.64,1880,494.62,1891Z"/><path class="cls-79" d="M612.23,1867.11c-29.36,0-59.18-21.74-60.61-22.8a1.11,1.11,0,1,1,1.32-1.79c.39.29,39.6,28.88,71.34,20.94,8.79-2.19,14.81-6.5,17.89-12.78,5.86-12-.78-27.32-.85-27.47a1.11,1.11,0,0,1,2-.9c.29.66,7.12,16.45.81,29.35-3.38,6.9-9.89,11.6-19.35,14A51.92,51.92,0,0,1,612.23,1867.11Z"/><path class="cls-80" d="M655.88,2276.83a1.12,1.12,0,0,1-.82-.37,1.1,1.1,0,0,1,.08-1.57c1.1-1,111.67-100,211.49-124.38a1.1,1.1,0,0,1,1.35.82,1.13,1.13,0,0,1-.82,1.35c-99.27,24.27-209.43,122.87-210.53,123.86A1.12,1.12,0,0,1,655.88,2276.83Z"/><path class="cls-58" d="M594.05,1765.94s-9.43,48.26-16.61,55.5,3.19,24.22,29.57,38.69,20.11-44.34,20.11-44.34Z"/><path class="cls-81" d="M664.74,1749l2.87.31c11.83,1.26,20,15.22,18.32,31.18l-.09.9c-1.71,16-12.68,27.87-24.5,26.6l-2.87-.3c-6-.64-9.4-14.29-7.67-30.5S658.77,1748.39,664.74,1749Z"/><path class="cls-82" d="M644.06,1776.49c-1.89,17.74,3.48,32.86,12.29,33.8s17.73-12.65,19.62-30.39-3.94-32.9-12.75-33.85S646,1758.75,644.06,1776.49Z"/><rect class="cls-83" x="656.87" y="1745.74" width="3.38" height="64.6" transform="translate(192.76 -59.94) rotate(6.1)"/><ellipse class="cls-84" cx="656.88" cy="1777.86" rx="32.3" ry="16.04" transform="translate(-1180.71 2242.11) rotate(-83.9)"/><path class="cls-85" d="M648.21,1776.93c-1,9.65,2,17.88,6.81,18.39s9.51-6.89,10.54-16.53-2-17.88-6.81-18.39S649.24,1767.29,648.21,1776.93Z"/><path class="cls-86" d="M658.33,1774c11.12-7.21,17.52-24.48,12.35-38.67-4.46-12.21-16.06-17.84-23-21.21-20.07-9.73-49.19-10.56-64.61,4.86-9.11,9.13-5.2,36.24-4.77,41,.49,5.4,3.7,8.35,6,13.12,3.16,6.61,8.06,17.1,16,34.54a84.75,84.75,0,0,1,9.37-12A75.72,75.72,0,0,1,625,1783C640.23,1774,647.81,1780.87,658.33,1774Z"/><path class="cls-58" d="M586.4,1790.43s6.26,26.74,34.06,34.85c25,7.29,46.69-44.81,34.87-61.75-3.94-5.64-13.85-10.94-23.12-11.65-5.47-.42-7.85,1-16.77.14-8.23-.78-10.09-2.37-13-1.31-3.65,1.33-7.69,6.32-8.18,23.59-3.09-6.24-8.07-10-12.63-9.6a8.58,8.58,0,0,0-4.27,1.92C571.91,1771.47,575,1781.27,586.4,1790.43Z"/><path class="cls-87" d="M602.41,1747.13c.89,1.28-4.15,4.27-6.46,10.22-4.49,11.55,2.93,30,15,35.67,7.12,3.35,10.61-.24,23.22,2.88a61.88,61.88,0,0,1,17.47,7.4c-.54,14.28-8.52,25.84-19.4,28.6-11.71,3-22.54-5.32-27.07-8.78-3-2.31-12.73-9.7-15.12-21.47-2.49-12.25,5.38-16.27.9-25.56-2.25-4.68-6.24-7.79-8.35-16a35,35,0,0,1-.95-5.39C590.08,1750.41,601.13,1745.29,602.41,1747.13Z"/><path class="cls-58" d="M641.09,1804.89s-6.19.78-15.14-3c-.44-.18-1-.23-1.1,0-.5.77,4.07,6.64,10,7.11,4.19.33,8.37-2.12,8.16-3.2C642.88,1805.31,642,1805.05,641.09,1804.89Z"/><path class="cls-88" d="M591.05,1751.06l-3.65-.42,1.29-11.28c2.22-19.45,17.43-33.94,34.63-33l18.41,1c9.62.53,18.29,5.38,24.41,13.65a42.19,42.19,0,0,1,7.69,29.72l-1,9-3.65-.39,1-9a37.74,37.74,0,0,0-6.87-26.6c-5.48-7.4-13.24-11.73-21.85-12.21l-18.41-1c-15.25-.84-28.73,12-30.71,29.24Z"/><path class="cls-89" d="M665.42,1730.63a5.24,5.24,0,0,1-3.83-2.46c-4.78-7.45-12.22-12-20.42-12.44l-18.41-1a23.72,23.72,0,0,0-17.73,6.83,5,5,0,0,1-7.76-.66,6.88,6.88,0,0,1,.8-8.83c7.2-6.86,16.27-10.36,25.53-9.84l18.41,1c11.47.64,21.88,7,28.57,17.4a6.88,6.88,0,0,1-1.29,8.76A5.15,5.15,0,0,1,665.42,1730.63Z"/><path class="cls-90" d="M659.06,1717.14c-13-5.9-12.63-10-19.63-11.06-13.1-2-19.92,11.51-32.54,8.28a19.39,19.39,0,0,1-7.27-3.71c-.53.45-1,.92-1.55,1.4a6.88,6.88,0,0,0-.8,8.83,5,5,0,0,0,7.76.66,23.72,23.72,0,0,1,17.73-6.83l18.41,1c8.2.46,15.64,5,20.42,12.44a5.24,5.24,0,0,0,3.83,2.46,5.15,5.15,0,0,0,3.87-1.24,6.89,6.89,0,0,0,1.73-8A79.38,79.38,0,0,1,659.06,1717.14Z"/><path class="cls-91" d="M604.07,1771.68c-1.91,17.93-10.69,31.7-19.6,30.75s-14.57-16.26-12.66-34.2,10.7-31.69,19.6-30.74S606,1753.75,604.07,1771.68Z"/><ellipse class="cls-92" cx="584.77" cy="1769.62" rx="32.66" ry="16.22" transform="translate(-1236.96 2163.05) rotate(-83.9)"/><path class="cls-93" d="M584.24,1739.56l-2.9-.31c-12-1.28-23,10.76-24.77,26.9l-.09.9c-1.73,16.14,6.57,30.25,18.52,31.53l2.9.31c6,.64,12.34-12.12,14.09-28.5S590.27,1740.2,584.24,1739.56Z"/><path class="cls-94" d="M577.9,1768.42c-1.26,11.83-7.06,20.91-12.95,20.28s-9.64-10.73-8.38-22.55,7.07-20.91,13-20.28S579.17,1756.6,577.9,1768.42Z"/><path class="cls-95" d="M719.85,2185a3,3,0,0,0-2.45,2.05c0,.16.4,5.76.38,5.93a2.82,2.82,0,0,0,1.93,2.91l105,34.11L1021,2153.18l-93.26,7.13Z"/><path class="cls-96" d="M719.8,2184.28a2.81,2.81,0,0,0-.46,5.46l105,34.11L1020.63,2147l-93.25,7.13Z"/><path class="cls-97" d="M819.71,2222.32l15.65-204.74a7.09,7.09,0,0,1,6-6.47l235.05-36.79a7.1,7.1,0,0,1,8.18,7.34l-8.82,190.83a7.09,7.09,0,0,1-5.8,6.65l-244.17,45.21Z"/><path class="cls-95" d="M824.74,2230l16.13-209.25a7.11,7.11,0,0,1,6-6.47l235.05-36.79a7.1,7.1,0,0,1,8.18,7.34l-8.82,190.86a7.09,7.09,0,0,1-5.76,6.64Z"/><path class="cls-98" d="M824.74,2230l250.76-47.67a7.09,7.09,0,0,0,5.76-6.64l2.66-57.56c-74.7,42.42-168.31,47.81-255.55,64.83Z"/><path class="cls-99" d="M1249.45,2187.15c-3.43-11.9-11-25.06,16-34.65,19.63-7,53.73-9.21,84.73-10.8,43.43-2.23,53.42,23.76-10,40.29C1298.6,2192.82,1254.33,2204.08,1249.45,2187.15Z"/><path class="cls-100" d="M1283.29,2168.93c.41,6.66-3.83,11.88-9.37,12.68-12.85,1.83-10.44-4.78-10.85-11.45s-5.6-11.28,9.38-12.68C1278,2157,1282.89,2162.27,1283.29,2168.93Z"/><path class="cls-101" d="M1151.41,2130.62l12.69-2s24.71,2.31,92.82,21.09c14.58,2.42,34.46,45-8.26,46.64s-94.72,33.48-94.72,33.48Z"/><path class="cls-102" d="M707.86,2328.6s6.22,55.22,134.62,50.2,357.78-138.32,356.33-208.26-86.8-42-175.17-1.58c-74.6,34.13-189.82,53.89-213.44,57.56C780,2231.21,700.56,2302.08,707.86,2328.6Z"/><g class="cls-59"><path class="cls-103" d="M875.86,2259.4c59.44-6.05,72.78-48.7,146.74-61,47.92-8,64.85,6.17,89.28-10.19,19.28-12.92,29.13-35.44,33.87-59.9-32.78,2.78-77,20.06-122.11,40.69-72.45,33.15-183.23,52.74-211.18,57.2-.82.13-19.56-6.57-19.56-6.57s-13.94,8-23.94,14.26C807.92,2254.73,854.16,2261.61,875.86,2259.4Z"/></g><polygon class="cls-104" points="1772.1 1263.41 2055.07 1295.78 2055.07 1207.89 1772.1 1201.24 1772.1 1263.41"/><polygon class="cls-105" points="2040.58 1278.28 2040.58 1223.38 1779.53 1212.91 1779.53 1252.77 2040.58 1278.28"/><polygon class="cls-106" points="1734.98 1259.13 1813.73 1268.14 1784.08 1173.72 1734.98 1174.53 1734.98 1259.13"/><polygon class="cls-105" points="1800.87 1254.82 1779.29 1185.29 1741.63 1185.28 1741.63 1249.03 1800.87 1254.82"/><polygon class="cls-58" points="2005.75 1266.87 2030.23 1269.05 2030.23 1231.19 2005.75 1230 2005.75 1266.87"/><polygon class="cls-58" points="1974.54 1264.09 1997.36 1266.12 1997.36 1229.59 1974.54 1228.47 1974.54 1264.09"/><polygon class="cls-58" points="1945.38 1261.49 1966.71 1263.39 1966.71 1228.09 1945.38 1227.05 1945.38 1261.49"/><polygon class="cls-58" points="1918.08 1259.06 1938.06 1260.84 1938.06 1226.69 1918.08 1225.71 1918.08 1259.06"/><polygon class="cls-107" points="1892.47 1256.78 1911.21 1258.45 1911.21 1225.38 1892.47 1224.46 1892.47 1256.78"/><polygon class="cls-108" points="1868.39 1254.64 1886.02 1256.21 1886.02 1224.15 1868.39 1223.29 1868.39 1254.64"/><polygon class="cls-109" points="1845.71 1252.62 1862.31 1254.1 1862.31 1222.99 1845.71 1222.18 1845.71 1252.62"/><polygon class="cls-110" points="1824.31 1250.72 1839.98 1252.11 1839.98 1221.9 1824.31 1221.13 1824.31 1250.72"/><polygon class="cls-111" points="1119.46 1822.1 823.97 1856.34 823.97 1785.02 1119.46 1762.97 1119.46 1822.1"/><polygon class="cls-105" points="836.98 1841.88 836.98 1796.99 1110.39 1774.54 1110.4 1812.27 836.98 1841.88"/><polygon class="cls-112" points="1165.93 1816.69 1069.76 1827.83 1104.9 1737.81 1165.93 1734.36 1165.93 1816.69"/><polygon class="cls-105" points="1084.85 1815.01 1110.69 1748.36 1157.45 1745.37 1157.45 1807.14 1084.85 1815.01"/><polygon class="cls-58" points="869.07 1831.74 846.39 1834.1 846.39 1802.98 869.07 1801.03 869.07 1831.74"/><polygon class="cls-58" points="898.85 1828.63 876.97 1830.91 876.97 1800.35 898.85 1798.46 898.85 1828.63"/><polygon class="cls-58" points="927.59 1825.63 906.48 1827.83 906.48 1797.81 927.59 1795.99 927.59 1825.63"/><polygon class="cls-113" points="955.35 1822.73 934.96 1824.86 934.96 1795.36 955.35 1793.6 955.35 1822.73"/><polygon class="cls-114" points="982.18 1819.93 962.47 1821.99 962.47 1792.99 982.18 1791.29 982.18 1819.93"/><polygon class="cls-115" points="1008.13 1817.23 989.07 1819.21 989.07 1790.7 1008.13 1789.06 1008.13 1817.23"/><polygon class="cls-116" points="1033.23 1814.61 1014.79 1816.53 1014.79 1788.48 1033.23 1786.89 1033.23 1814.61"/><polygon class="cls-117" points="1057.53 1812.07 1039.67 1813.93 1039.67 1786.34 1057.53 1784.8 1057.53 1812.07"/><path class="cls-118" d="M1603.74,641.67a31.14,31.14,0,0,1,31.12-31.12h21.54a2,2,0,0,1,0,4h-21.54A27.13,27.13,0,0,0,1607.74,642l1.77,165.13a27.22,27.22,0,0,0,27.13,26.83h17.46a31.16,31.16,0,0,1,31.12,31.13v90.2a2,2,0,0,1-4,0v-90.2a27.16,27.16,0,0,0-27.12-27.13h-17.46a31.23,31.23,0,0,1-31.13-30.79L1603.74,642Z"/><circle class="cls-119" cx="1660.75" cy="606.91" r="30.17" transform="translate(57.27 1352.09) rotate(-45)"/><circle class="cls-120" cx="1660.75" cy="606.91" r="29.17"/><circle class="cls-121" cx="1662.72" cy="604.94" r="22.09" transform="translate(799.25 2149.29) rotate(-80.78)"/><circle class="cls-122" cx="1656.4" cy="421.86" r="30.17" transform="matrix(0.53, -0.85, 0.85, 0.53, 426.72, 1609.1)"/><circle class="cls-123" cx="1656.4" cy="421.86" r="29.17" transform="translate(186.85 1294.82) rotate(-45)"/><circle class="cls-124" cx="1658.37" cy="419.9" r="22.09"/><circle class="cls-125" cx="1546.4" cy="542.05" r="30.17" transform="translate(663.56 1922.55) rotate(-76.72)"/><circle class="cls-126" cx="1546.4" cy="542.05" r="29.17" transform="translate(663.56 1922.55) rotate(-76.72)"/><circle class="cls-127" cx="1548.37" cy="540.08" r="22.09"/><path class="cls-128" d="M1332.87,641.67a31.14,31.14,0,0,0-31.12-31.12h-21.54a2,2,0,0,0,0,4h21.54A27.13,27.13,0,0,1,1328.87,642L1327.1,807.1A27.22,27.22,0,0,1,1300,833.93h-17.46a31.16,31.16,0,0,0-31.12,31.13v90.2a2,2,0,0,0,4,0v-90.2a27.16,27.16,0,0,1,27.12-27.13H1300a31.23,31.23,0,0,0,31.13-30.79L1332.87,642Z"/><circle class="cls-129" cx="1275.86" cy="606.91" r="30.17" transform="translate(-55.46 1079.93) rotate(-45)"/><circle class="cls-130" cx="1275.86" cy="606.91" r="29.17"/><circle class="cls-131" cx="1273.89" cy="604.94" r="22.09" transform="translate(-80.45 211.87) rotate(-9.22)"/><circle class="cls-132" cx="1280.21" cy="421.86" r="30.17" transform="translate(-30.59 736.05) rotate(-31.72)"/><circle class="cls-133" cx="1280.21" cy="421.86" r="29.17" transform="translate(76.66 1028.8) rotate(-45)"/><circle class="cls-134" cx="1278.24" cy="419.9" r="22.09"/><circle class="cls-135" cx="1390.21" cy="542.05" r="30.17" transform="translate(-87.35 333.91) rotate(-13.28)"/><circle class="cls-136" cx="1390.21" cy="542.05" r="29.17" transform="translate(-87.35 333.91) rotate(-13.28)"/><circle class="cls-137" cx="1388.24" cy="540.08" r="22.09"/></g></g></svg>