<svg xmlns="http://www.w3.org/2000/svg" xmlns:xlink="http://www.w3.org/1999/xlink" viewBox="0 0 2481.7 2690.73"><defs><style>.cls-1{isolation:isolate;}.cls-2{fill:#f4f7fa;}.cls-3{fill:#bdd0fb;}.cls-4{fill:url(#linear-gradient);}.cls-5{fill:url(#linear-gradient-2);}.cls-6{fill:url(#linear-gradient-3);}.cls-7{fill:url(#linear-gradient-4);}.cls-8{fill:url(#linear-gradient-5);}.cls-9{fill:#91d9fa;}.cls-10{fill:url(#linear-gradient-6);}.cls-11,.cls-12,.cls-41,.cls-42,.cls-51,.cls-57{opacity:0.3;}.cls-11,.cls-12,.cls-41,.cls-51,.cls-57,.cls-61{mix-blend-mode:multiply;}.cls-11{fill:url(#linear-gradient-7);}.cls-12{fill:url(#linear-gradient-8);}.cls-13{fill:url(#linear-gradient-9);}.cls-14{fill:url(#linear-gradient-10);}.cls-15{fill:url(#linear-gradient-11);}.cls-16{fill:url(#linear-gradient-12);}.cls-17{fill:url(#linear-gradient-13);}.cls-18{fill:url(#linear-gradient-14);}.cls-19{fill:url(#linear-gradient-15);}.cls-20{fill:url(#linear-gradient-16);}.cls-21{fill:url(#linear-gradient-17);}.cls-22{fill:url(#linear-gradient-18);}.cls-23{fill:url(#linear-gradient-19);}.cls-24{fill:url(#linear-gradient-20);}.cls-25{fill:url(#linear-gradient-21);}.cls-26{fill:url(#linear-gradient-22);}.cls-27{fill:url(#linear-gradient-23);}.cls-28{fill:url(#linear-gradient-24);}.cls-29{fill:url(#linear-gradient-25);}.cls-30{fill:url(#linear-gradient-26);}.cls-31{fill:url(#linear-gradient-27);}.cls-32{fill:url(#linear-gradient-28);}.cls-33{fill:url(#linear-gradient-29);}.cls-34{fill:url(#linear-gradient-30);}.cls-35{fill:url(#linear-gradient-31);}.cls-36{fill:url(#linear-gradient-32);}.cls-37{fill:url(#linear-gradient-33);}.cls-38{fill:url(#linear-gradient-34);}.cls-39{fill:url(#linear-gradient-35);}.cls-40{fill:url(#linear-gradient-36);}.cls-41{fill:url(#linear-gradient-37);}.cls-42{mix-blend-mode:soft-light;fill:url(#linear-gradient-38);}.cls-43{fill:url(#linear-gradient-39);}.cls-44{fill:#87a5fe;}.cls-45{fill:url(#linear-gradient-40);}.cls-46{fill:url(#linear-gradient-41);}.cls-47{fill:url(#linear-gradient-42);}.cls-48{fill:url(#linear-gradient-43);}.cls-49{fill:url(#linear-gradient-44);}.cls-50{fill:url(#linear-gradient-45);}.cls-51{fill:url(#linear-gradient-46);}.cls-52{fill:url(#linear-gradient-47);}.cls-53{fill:url(#linear-gradient-48);}.cls-54{fill:url(#linear-gradient-49);}.cls-55{fill:url(#linear-gradient-50);}.cls-56{fill:url(#linear-gradient-51);}.cls-57{fill:url(#linear-gradient-52);}.cls-58{fill:url(#linear-gradient-53);}.cls-59{fill:url(#linear-gradient-54);}.cls-60{fill:url(#linear-gradient-55);}.cls-61{opacity:0.2;}.cls-62{fill:url(#linear-gradient-56);}.cls-63{fill:#fff;}.cls-64{fill:url(#linear-gradient-57);}.cls-65{fill:url(#linear-gradient-58);}.cls-66{fill:url(#linear-gradient-59);}.cls-67{fill:url(#linear-gradient-60);}.cls-68{fill:url(#linear-gradient-61);}.cls-69{fill:url(#linear-gradient-62);}.cls-70{fill:url(#linear-gradient-63);}.cls-71{fill:url(#linear-gradient-64);}.cls-72{fill:url(#linear-gradient-65);}.cls-73{fill:url(#linear-gradient-66);}.cls-74{fill:url(#linear-gradient-67);}.cls-75{fill:url(#linear-gradient-68);}.cls-76{fill:url(#linear-gradient-69);}</style><linearGradient id="linear-gradient" x1="1678.19" y1="1008.3" x2="2264.88" y2="1008.3" gradientUnits="userSpaceOnUse"><stop offset="0" stop-color="#dae3fe"/><stop offset="1" stop-color="#e9effd"/></linearGradient><linearGradient id="linear-gradient-2" x1="1843.77" y1="531.44" x2="2223.03" y2="531.44" xlink:href="#linear-gradient"/><linearGradient id="linear-gradient-3" x1="2110.49" y1="17.99" x2="1993.42" y2="266.77" gradientUnits="userSpaceOnUse"><stop offset="0" stop-color="#000a5d"/><stop offset="1" stop-color="#0f1e91"/></linearGradient><linearGradient id="linear-gradient-4" x1="1214.72" y1="463.41" x2="1343.99" y2="709.76" gradientUnits="userSpaceOnUse"><stop offset="0" stop-color="#4062e2"/><stop offset="1" stop-color="#4f75ff"/></linearGradient><linearGradient id="linear-gradient-5" x1="2281.65" y1="352.85" x2="2130.43" y2="533.34" xlink:href="#linear-gradient-4"/><linearGradient id="linear-gradient-6" x1="741.83" y1="1106.09" x2="1667.74" y2="2825.63" gradientUnits="userSpaceOnUse"><stop offset="0" stop-color="#4179e8"/><stop offset="1" stop-color="#294391"/></linearGradient><linearGradient id="linear-gradient-7" x1="1023.75" y1="1389.88" x2="1690.23" y2="1389.88" gradientUnits="userSpaceOnUse"><stop offset="0" stop-color="#3f4ea6"/><stop offset="1" stop-color="#5544ab"/></linearGradient><linearGradient id="linear-gradient-8" x1="1785.31" y1="1979.41" x2="2241.8" y2="1509.95" xlink:href="#linear-gradient-6"/><linearGradient id="linear-gradient-9" x1="812.11" y1="1770.76" x2="431.7" y2="1151.73" xlink:href="#linear-gradient-6"/><linearGradient id="linear-gradient-10" x1="804.88" y1="1873.07" x2="1242.62" y2="1873.07" xlink:href="#linear-gradient-6"/><linearGradient id="linear-gradient-11" x1="985.21" y1="1507.35" x2="1009.42" y2="1732.14" xlink:href="#linear-gradient-6"/><linearGradient id="linear-gradient-12" x1="1053.44" y1="1778.87" x2="1012.37" y2="2157.79" xlink:href="#linear-gradient-6"/><linearGradient id="linear-gradient-13" x1="1045.32" y1="1733.01" x2="1041.59" y2="2057.8" xlink:href="#linear-gradient-6"/><linearGradient id="linear-gradient-14" x1="1481.2" y1="1845.73" x2="1887.28" y2="1845.73" xlink:href="#linear-gradient-6"/><linearGradient id="linear-gradient-15" x1="1640.95" y1="1436.73" x2="1665.16" y2="1661.52" xlink:href="#linear-gradient-6"/><linearGradient id="linear-gradient-16" x1="1721.68" y1="1751.6" x2="1680.62" y2="2130.52" xlink:href="#linear-gradient-6"/><linearGradient id="linear-gradient-17" x1="1713.57" y1="1705.74" x2="1709.84" y2="2030.53" xlink:href="#linear-gradient-6"/><linearGradient id="linear-gradient-18" x1="886.4" y1="1151.09" x2="969.4" y2="1392.3" gradientUnits="userSpaceOnUse"><stop offset="0" stop-color="#8caeff"/><stop offset="1" stop-color="#7196e9"/></linearGradient><linearGradient id="linear-gradient-19" x1="1621.38" y1="898.19" x2="1704.38" y2="1139.41" xlink:href="#linear-gradient-18"/><linearGradient id="linear-gradient-20" x1="938.05" y1="1657.84" x2="871.48" y2="1593.86" xlink:href="#linear-gradient-18"/><linearGradient id="linear-gradient-21" x1="811.33" y1="1789.69" x2="744.76" y2="1725.71" xlink:href="#linear-gradient-18"/><linearGradient id="linear-gradient-22" x1="811.06" y1="1789.97" x2="744.49" y2="1725.99" xlink:href="#linear-gradient-18"/><linearGradient id="linear-gradient-23" x1="937.47" y1="1658.43" x2="870.9" y2="1594.46" xlink:href="#linear-gradient-18"/><linearGradient id="linear-gradient-24" x1="704.1" y1="1452.74" x2="844.16" y2="1750.15" xlink:href="#linear-gradient-18"/><linearGradient id="linear-gradient-25" x1="601.28" y1="1501.16" x2="741.34" y2="1798.58" xlink:href="#linear-gradient-18"/><linearGradient id="linear-gradient-26" x1="551.26" y1="1524.72" x2="691.32" y2="1822.13" xlink:href="#linear-gradient-18"/><linearGradient id="linear-gradient-27" x1="752.7" y1="1429.85" x2="892.76" y2="1727.27" xlink:href="#linear-gradient-18"/><linearGradient id="linear-gradient-28" x1="2162.27" y1="1728.09" x2="1757.65" y2="1067.56" xlink:href="#linear-gradient-6"/><linearGradient id="linear-gradient-29" x1="2348.05" y1="1660.07" x2="2257.27" y2="1569.29" xlink:href="#linear-gradient-18"/><linearGradient id="linear-gradient-30" x1="2189.4" y1="1818.73" x2="2098.62" y2="1727.95" xlink:href="#linear-gradient-18"/><linearGradient id="linear-gradient-31" x1="2191.72" y1="1816.4" x2="2100.94" y2="1725.62" xlink:href="#linear-gradient-18"/><linearGradient id="linear-gradient-32" x1="2344.51" y1="1663.62" x2="2253.73" y2="1572.84" xlink:href="#linear-gradient-18"/><linearGradient id="linear-gradient-33" x1="2055.78" y1="1414.51" x2="2219.18" y2="1974.75" xlink:href="#linear-gradient-18"/><linearGradient id="linear-gradient-34" x1="1970.49" y1="1439.38" x2="2133.89" y2="1999.62" xlink:href="#linear-gradient-18"/><linearGradient id="linear-gradient-35" x1="1873.09" y1="1467.79" x2="2036.49" y2="2028.03" xlink:href="#linear-gradient-18"/><linearGradient id="linear-gradient-36" x1="2150.96" y1="1386.74" x2="2314.37" y2="1946.98" xlink:href="#linear-gradient-18"/><linearGradient id="linear-gradient-37" x1="130.15" y1="1435.47" x2="1056.05" y2="3155.01" xlink:href="#linear-gradient-6"/><linearGradient id="linear-gradient-38" x1="1023.75" y1="1414.16" x2="1690.23" y2="1414.16" xlink:href="#linear-gradient-18"/><linearGradient id="linear-gradient-39" x1="-3823.31" y1="368.28" x2="-3030.99" y2="906.46" gradientTransform="matrix(-1, 0, 0, 1, -2801.46, 0)" gradientUnits="userSpaceOnUse"><stop offset="0" stop-color="#311944"/><stop offset="1" stop-color="#6b3976"/></linearGradient><linearGradient id="linear-gradient-40" x1="-4173.71" y1="1612.04" x2="-4067.01" y2="1612.04" xlink:href="#linear-gradient-39"/><linearGradient id="linear-gradient-41" x1="-4123.39" y1="1654.09" x2="-3964.19" y2="1176.5" gradientTransform="matrix(-1, 0, 0, 1, -2801.46, 0)" gradientUnits="userSpaceOnUse"><stop offset="0" stop-color="#ffc444"/><stop offset="1" stop-color="#f36f56"/></linearGradient><linearGradient id="linear-gradient-42" x1="-4156.73" y1="1416.11" x2="-4091.47" y2="1416.11" xlink:href="#linear-gradient-39"/><linearGradient id="linear-gradient-43" x1="-4194.55" y1="1595.3" x2="-4087.99" y2="1275.62" xlink:href="#linear-gradient-41"/><linearGradient id="linear-gradient-44" x1="-4063.25" y1="1056.71" x2="-3983.77" y2="1516.21" gradientTransform="matrix(-1, 0, 0, 1, -2801.46, 0)" gradientUnits="userSpaceOnUse"><stop offset="0" stop-color="#3252c7"/><stop offset="1" stop-color="#2d3a79"/></linearGradient><linearGradient id="linear-gradient-45" x1="-3951" y1="1601.28" x2="-3837.99" y2="1243.62" xlink:href="#linear-gradient-44"/><linearGradient id="linear-gradient-46" x1="-3950.99" y1="1601.29" x2="-3837.98" y2="1243.62" xlink:href="#linear-gradient-44"/><linearGradient id="linear-gradient-47" x1="-3791.97" y1="1010.34" x2="-3712.67" y2="1468.77" xlink:href="#linear-gradient-44"/><linearGradient id="linear-gradient-48" x1="5676.18" y1="-55.14" x2="5683.36" y2="-246.35" gradientTransform="translate(-4731.73 -260.55) rotate(10.28)" xlink:href="#linear-gradient-41"/><linearGradient id="linear-gradient-49" x1="5673.94" y1="-223.94" x2="5670.87" y2="23.63" gradientTransform="translate(-4731.73 -260.55) rotate(10.28)" xlink:href="#linear-gradient-41"/><linearGradient id="linear-gradient-50" x1="-2417.77" y1="1004.35" x2="-2109.91" y2="1004.35" gradientTransform="matrix(-1, 0, 0, 1, -1291.47, 0)" gradientUnits="userSpaceOnUse"><stop offset="0" stop-color="#40447e"/><stop offset="1" stop-color="#3c3b6b"/></linearGradient><linearGradient id="linear-gradient-51" x1="-2614.64" y1="810.15" x2="-2412.8" y2="1010.38" xlink:href="#linear-gradient-50"/><linearGradient id="linear-gradient-52" x1="-2614.64" y1="810.15" x2="-2412.8" y2="1010.38" xlink:href="#linear-gradient-50"/><linearGradient id="linear-gradient-53" x1="3965.25" y1="943.64" x2="3862.91" y2="1040.08" gradientTransform="translate(-3031.74)" xlink:href="#linear-gradient-41"/><linearGradient id="linear-gradient-54" x1="1429.28" y1="25.72" x2="1610.84" y2="390.08" gradientUnits="userSpaceOnUse"><stop offset="0" stop-color="#4475ff"/><stop offset="1" stop-color="#56f382"/></linearGradient><linearGradient id="linear-gradient-55" x1="1536.05" y1="265.04" x2="1712.4" y2="592.13" xlink:href="#linear-gradient-54"/><linearGradient id="linear-gradient-56" x1="1487.62" y1="286.78" x2="1658.94" y2="630.59" xlink:href="#linear-gradient-54"/><linearGradient id="linear-gradient-57" x1="984.53" y1="-132.04" x2="1242.34" y2="385.32" gradientTransform="matrix(1, 0, 0, 1, 0, 0)" xlink:href="#linear-gradient-41"/><linearGradient id="linear-gradient-58" x1="1136.14" y1="207.77" x2="1386.55" y2="672.21" gradientTransform="matrix(1, 0, 0, 1, 0, 0)" xlink:href="#linear-gradient-41"/><linearGradient id="linear-gradient-59" x1="1067.37" y1="238.64" x2="1310.64" y2="726.82" gradientTransform="matrix(1, 0, 0, 1, 0, 0)" xlink:href="#linear-gradient-41"/><linearGradient id="linear-gradient-60" x1="4334.07" y1="-1092.87" x2="4680.78" y2="-1092.87" gradientTransform="matrix(0, 1, 1, 0, 2851.52, -3344.94)" gradientUnits="userSpaceOnUse"><stop offset="0" stop-color="#fe7062"/><stop offset="1" stop-color="#ff928e"/></linearGradient><linearGradient id="linear-gradient-61" x1="4379.52" y1="-1156.91" x2="4287.29" y2="-1067.16" gradientTransform="matrix(-0.71, 0.71, 0.71, 0.71, 5588.73, -1292.3)" xlink:href="#linear-gradient-60"/><linearGradient id="linear-gradient-62" x1="4352.48" y1="-1142.46" x2="4232.8" y2="-961.65" xlink:href="#linear-gradient-60"/><linearGradient id="linear-gradient-63" x1="5167" y1="-1898.99" x2="4869" y2="-1618.99" gradientTransform="matrix(-0.16, 0.99, 0.99, 0.16, 3530.51, -3111.06)" gradientUnits="userSpaceOnUse"><stop offset="0" stop-color="#ff928e"/><stop offset="1" stop-color="#feb3b1"/></linearGradient><linearGradient id="linear-gradient-64" x1="4172.48" y1="-1152.57" x2="4080.24" y2="-1062.81" gradientTransform="matrix(-0.53, 0.85, 0.85, 0.53, 4854.31, -2148.29)" xlink:href="#linear-gradient-60"/><linearGradient id="linear-gradient-65" x1="4145.43" y1="-1138.11" x2="4025.75" y2="-957.31" gradientTransform="matrix(-0.71, 0.71, 0.71, 0.71, 5443.6, -1356.02)" xlink:href="#linear-gradient-60"/><linearGradient id="linear-gradient-66" x1="5072.08" y1="-2000.01" x2="4774.08" y2="-1720.01" gradientTransform="matrix(0, 1, 1, 0, 2851.52, -3344.94)" xlink:href="#linear-gradient-63"/><linearGradient id="linear-gradient-67" x1="4292.66" y1="-1042.57" x2="4200.43" y2="-952.81" gradientTransform="matrix(-0.23, 0.97, 0.97, 0.23, 3799.88, -3002.86)" xlink:href="#linear-gradient-60"/><linearGradient id="linear-gradient-68" x1="4265.62" y1="-1028.11" x2="4145.94" y2="-847.31" gradientTransform="matrix(-0.23, 0.97, 0.97, 0.23, 3799.88, -3002.86)" xlink:href="#linear-gradient-60"/><linearGradient id="linear-gradient-69" x1="5183.33" y1="-1881.61" x2="4885.33" y2="-1601.61" gradientTransform="matrix(0, 1, 1, 0, 2851.52, -3344.94)" xlink:href="#linear-gradient-63"/></defs><title>play</title><g class="cls-1"><g id="Illustration"><path class="cls-2" d="M288.48,1007.28C178.18,1106.12,86.32,1280,242.9,1445.2S438.82,1699,343.45,1810.46,212,2141.7,440.53,2234.9s331.79-356,507.25-312.35,221.63,366.27,523.5,337.91S1716.7,1891.2,1912.9,1971.9s407.33,167.37,488.3-13.32S2218,1639,2217.15,1420.4s283.6-240.73,150.6-514S1929,668.78,1697.84,824.52s-397.35,407.33-558,340.62S724,617,288.48,1007.28Z"/><path class="cls-3" d="M1636.88,1334.05a7.05,7.05,0,0,1-1.05-12.34c52.66-33.41,265.86-184.83,141.6-376.76C1636.33,727,1582.51,673,1642.72,535.15c54.82-125.51,144.25-165.32,228.41-171.5,5.87-.43,8.36,7.54,3.26,10.48-43.89,25.28-139.73,91.31-135.3,183.73,5.74,119.68,143.41,345.11,108.3,509.64-34.7,162.56-119.25,207.8-204,266a6.74,6.74,0,0,1-6.56.6Z"/><path class="cls-3" d="M2235.83,485.39a9.77,9.77,0,0,0-4.58-15.68c-18.43-5.5-52.09-19.29-88.33-52.54s-126-102-240.81-36.2-80.33,296.08-31,517.52-163.94,382.15-163.94,382.15L1651.4,1328s215.83-116.73,247.84-306.55-66.49-432,75.11-476.69C2110.28,501.87,2156.75,576.14,2235.83,485.39Z"/><path class="cls-3" d="M2343.42,719.62c7.91.39,11.7-9.56,5.58-14.75-35.05-29.72-110.07-80.81-185.6-52.21-103.52,39.19-163.85,113.46-204.94,317.85-39.94,198.65-242.61,333.4-302.26,355.85a6.13,6.13,0,0,0-3.83,6.9h0a6.18,6.18,0,0,0,8.32,4.7c41.54-16.82,258.85-107.81,350.23-206.33C2106.87,1028.2,2190.56,712.05,2343.42,719.62Z"/><path class="cls-4" d="M2264,691.68a118.38,118.38,0,0,0-14.23-.2c-4.76.14-9.5.59-14.23,1.09a199,199,0,0,0-28,5.31l-3.46.9c-1.15.29-2.27.69-3.41,1-2.27.71-4.56,1.37-6.81,2.12-4.47,1.63-9,3.14-13.34,5.06l-3.29,1.36-1.65.69-1.61.76-6.45,3.05c-2.17,1-4.22,2.18-6.32,3.28s-4.21,2.21-6.26,3.41a229.91,229.91,0,0,0-45.15,34.57,277.68,277.68,0,0,0-36.1,44l-7.67,12-7,12.43-1.76,3.11-1.59,3.2-3.16,6.4-3.17,6.4c-.55,1-1,2.15-1.48,3.24l-1.42,3.28-5.66,13.12-5,13.38-2.51,6.69-2.19,6.8-4.37,13.62c-.38,1.12-.68,2.28-1,3.43l-.94,3.45-1.87,6.9c-1.24,4.61-2.53,9.18-3.73,13.83l-3.64,13.91c-.61,2.31-1.2,4.64-1.84,6.95l-2,6.91-4,13.83-4.26,13.74-2.14,6.87c-.7,2.29-1.52,4.54-2.28,6.82l-4.64,13.62c-1.61,4.52-3.32,9-5,13.5l-2.5,6.75-2.71,6.67-2.7,6.67c-.92,2.22-1.76,4.46-2.76,6.65l-5.82,13.17a522.94,522.94,0,0,1-26.8,51,392.35,392.35,0,0,1-72.94,88.75c-28.46,25.85-60.38,47.52-93.38,66.93-16.5,9.74-33.28,19-50.17,28s-33.85,17.88-50.82,26.73a.46.46,0,0,1-.61-.19.45.45,0,0,1,.19-.61c16.87-9,33.75-18,50.53-27.25s33.44-18.59,49.8-28.48,32.45-20.23,48-31.34a467.48,467.48,0,0,0,44.52-35.94,390.71,390.71,0,0,0,39.16-41.59l4.44-5.6c1.49-1.87,3-3.72,4.36-5.66,2.8-3.86,5.67-7.67,8.4-11.57l8-11.85,7.55-12.14a517.42,517.42,0,0,0,26.47-50.67l5.76-13.1c1-2.17,1.82-4.41,2.73-6.62l2.67-6.64,2.67-6.64,2.48-6.71c1.63-4.49,3.33-8.95,4.92-13.45l4.58-13.56c.75-2.27,1.56-4.51,2.25-6.8l2.12-6.84,4.21-13.69,3.9-13.79,2-6.89c.63-2.3,1.21-4.62,1.82-6.93l3.59-13.87c1.17-4.62,2.51-9.26,3.76-13.89l1.9-6.95,1-3.47c.32-1.16.62-2.32,1-3.46l4.43-13.71,2.23-6.86,2.54-6.74,5.09-13.49,5.74-13.23,1.44-3.31c.47-1.1.95-2.21,1.51-3.27l3.21-6.46,3.21-6.46,1.61-3.23,1.78-3.14,7.11-12.56,7.78-12.16a271.42,271.42,0,0,1,36.84-44.38,232.92,232.92,0,0,1,46-34.71c2.08-1.2,4.25-2.27,6.37-3.41s4.22-2.32,6.43-3.28l6.56-3,1.64-.75,1.68-.68,3.35-1.34c4.44-1.88,9-3.36,13.57-4.94,2.29-.74,4.61-1.38,6.91-2.07,1.16-.33,2.3-.71,3.47-1l3.51-.87a200.86,200.86,0,0,1,28.39-5c4.79-.46,9.59-.81,14.4-.88a122.54,122.54,0,0,1,14.45.46.75.75,0,0,1-.13,1.5Z"/><path class="cls-5" d="M2222.71,477.66c-12.54,4.62-26,5.92-39.31,5.07a114.15,114.15,0,0,1-38.58-9.78,139.36,139.36,0,0,1-17.52-9.64c-2.75-1.88-5.54-3.72-8.16-5.78s-5.22-4.15-7.78-6.28c-1.29-1.06-2.48-2.23-3.72-3.34s-2.5-2.21-3.64-3.42l-7-7a136.16,136.16,0,0,0-14.88-12.63,201.41,201.41,0,0,0-33.63-20,191.05,191.05,0,0,0-36.85-13A145,145,0,0,0,1973,387.7a119.51,119.51,0,0,0-19.26,2.24,109.11,109.11,0,0,0-18.5,5.63l-2.24.93c-.74.3-1.48.62-2.2,1l-4.35,2.13-4.21,2.38c-.71.38-1.4.81-2.07,1.26l-2,1.32A101.53,101.53,0,0,0,1903,416.67c-.58.56-1.19,1.1-1.75,1.68l-1.67,1.76c-1.1,1.19-2.26,2.32-3.3,3.57-2.09,2.48-4.23,4.92-6.12,7.56l-1.46,1.95-.73,1-.68,1-2.72,4.05c-.94,1.32-1.72,2.76-2.57,4.15s-1.7,2.77-2.49,4.2a203.59,203.59,0,0,0-15.43,35.93,312.42,312.42,0,0,0-9.67,38.09c-2.51,12.89-4.18,25.95-5.44,39-.28,3.27-.67,6.54-.86,9.83l-.66,9.84c-.24,3.28-.31,6.58-.47,9.86s-.33,6.58-.37,9.87c-.77,26.33,0,52.71,1.57,79a.61.61,0,0,1-1.21.09c-2.31-26.31-3.42-52.74-3.18-79.19.19-13.22.73-26.45,1.89-39.64s2.66-26.36,5-39.41a296.87,296.87,0,0,1,9.44-38.69,207.93,207.93,0,0,1,15.64-36.74c.8-1.46,1.69-2.88,2.54-4.33s1.66-2.9,2.62-4.27l2.79-4.18.7-1,.75-1,1.5-2c2-2.74,4.15-5.27,6.3-7.85,1.07-1.29,2.28-2.47,3.41-3.71l1.73-1.83c.58-.61,1.21-1.17,1.81-1.75a106.24,106.24,0,0,1,15.7-12.66l2.12-1.38a24.91,24.91,0,0,1,2.16-1.32l4.39-2.51,4.54-2.24c.74-.38,1.52-.72,2.3-1l2.33-1a107.89,107.89,0,0,1,19.31-5.9,122.7,122.7,0,0,1,20-2.24,149.26,149.26,0,0,1,39.81,4.41,200,200,0,0,1,71.77,34.15A140.75,140.75,0,0,1,2099.52,435l6.88,7.09c1.11,1.2,2.35,2.26,3.53,3.4s2.35,2.27,3.6,3.32c2.48,2.12,4.92,4.3,7.54,6.24s5.24,3.89,7.91,5.77a136.91,136.91,0,0,0,17,9.65,112.16,112.16,0,0,0,37.58,10.34,106.06,106.06,0,0,0,19.6-.06,83.87,83.87,0,0,0,19.18-4h0a.48.48,0,0,1,.62.3A.5.5,0,0,1,2222.71,477.66Z"/><path class="cls-6" d="M2013.6,988.19a254.42,254.42,0,0,0,3.75-69.24c-5-57.33-30.3-105.17-73.58-139.42a137.8,137.8,0,0,0,1.77-45.56c-4-31.25-21-75.27-78.23-111.5-5.85-18.37-22.75-51.86-71-78.2-35.76-19.55-69.67-24.24-95.48-13.22a60.5,60.5,0,0,0-25.79,20.61,52.62,52.62,0,0,0-22.48,9.88c-8.76,6.67-15.48,16-20.16,27.78-4.69-11.8-11.4-21.11-20.16-27.78a52.65,52.65,0,0,0-22.49-9.88A60.41,60.41,0,0,0,1564,531.05c-25.81-11-59.72-6.33-95.48,13.22-48.2,26.34-65.1,59.83-71,78.2-57.2,36.23-74.21,80.25-78.23,111.49a137.84,137.84,0,0,0,1.77,45.57c-43.28,34.25-68.61,82.09-73.58,139.42a254.42,254.42,0,0,0,3.75,69.24c-28,31.72-34.08,100.19-13.89,177.42,10.64,40.69,28.84,70.49,54.1,88.59a97,97,0,0,0,12.76,7.75,51.62,51.62,0,0,0,5.68,22.44c20.78,41.48,94.59,63.61,158.53,67.14,3.26.18,6.44.27,9.56.27,31.45,0,56.4-9.09,74.26-27.09,14-14.06,20.42-30.53,23.39-43.88,25.23-3.07,43.65-12.24,54.9-27.36.67-.89,1.27-1.79,1.86-2.69.59.9,1.19,1.8,1.86,2.69,11.25,15.12,29.67,24.29,54.9,27.36,3,13.35,9.44,29.82,23.39,43.88,17.86,18,42.81,27.09,74.26,27.09,3.12,0,6.31-.09,9.55-.27,63.95-3.53,137.77-25.66,158.54-67.14a51.62,51.62,0,0,0,5.68-22.44,97,97,0,0,0,12.76-7.75c25.26-18.1,43.46-47.9,54.1-88.59C2047.68,1088.38,2041.59,1019.91,2013.6,988.19Z"/><path class="cls-7" d="M1615.9,639v571.91s14.7,47.35-62.4,46.59c0,0,4.7,74.45-83.66,69.57s-161.12-43.34-135.94-81.22c0,0-50.68-2-72.74-86.39s-8.48-148.42,17.46-162.22c0,0-41.28-133.67,70.88-207.92,0,0-38.63-88.77,69.5-151.06,0,0,4.52-41.36,61.31-72.4,53.36-29.17,87.62-14.33,94.22,10.16C1574.53,576,1615.9,564.52,1615.9,639Z"/><path class="cls-8" d="M1649,639v571.91s-14.71,47.35,62.4,46.59c0,0-4.7,74.45,83.66,69.57s161.12-43.34,135.93-81.22c0,0,50.69-2,72.75-86.39s8.48-148.42-17.46-162.22c0,0,41.28-133.67-70.89-207.92,0,0,38.64-88.77-69.49-151.06,0,0-4.52-41.36-61.31-72.4-53.36-29.17-87.62-14.33-94.22,10.16C1690.37,576,1649,564.52,1649,639Z"/><path class="cls-9" d="M1568.5,645.35l-.31,0c-.33-.06-33-6.74-29-39.6,3.74-31.07,34.86-31.37,35.39-31.37h0a1.63,1.63,0,0,1,0,3.25h0c-1.46,0-28.75.39-32.13,28.51-1.51,12.54,2.46,22.4,11.8,29.3a40.63,40.63,0,0,0,14.64,6.72,1.62,1.62,0,0,1-.31,3.22Z"/><path class="cls-9" d="M1502.36,753.65a50.9,50.9,0,0,1-18.22-3.36c-7.66-3-12.43-7.43-13.08-12.14a1.63,1.63,0,0,1,3.22-.45c.48,3.47,4.61,7,11,9.57,11.12,4.36,27.18,4.86,36.36-2.63,6.2-5.06,8.41-13,6.57-23.6-6-34.29-35.57-37-66.93-39.89-7-.64-14.16-1.3-21.16-2.31-13.11-1.89-21.43-6.54-24.74-13.8-4.68-10.28,2.57-21.72,2.88-22.2a1.63,1.63,0,0,1,2.73,1.77c-.11.18-6.58,10.48-2.64,19.1,2.82,6.18,10.3,10.19,22.24,11.91,6.91,1,14.07,1.66,21,2.3,32.63,3,63.46,5.82,69.84,42.56,2.56,14.76-2.79,22.66-7.72,26.68C1518.13,751.74,1510.28,753.65,1502.36,753.65Z"/><path class="cls-9" d="M1429.09,853.67c-7,0-12.93-2.86-15-7.64a1.62,1.62,0,1,1,3-1.29c2,4.59,9.85,6.84,17.53,5,4.55-1.08,19.32-6.3,18.08-28.28-.77-13.74-5.51-23.57-13.71-28.43-10-5.95-25.32-4.57-43.08,3.87-33.61,16-44.41-1.57-44.85-2.32a1.63,1.63,0,0,1,2.8-1.66c.39.65,9.9,15.66,40.66,1,19-9.05,35-10.34,46.13-3.73,9.17,5.44,14.46,16.17,15.3,31,1.1,19.48-9.91,29.11-20.59,31.63A26.8,26.8,0,0,1,1429.09,853.67Z"/><path class="cls-9" d="M1401.4,954.33a43.77,43.77,0,0,1-6.78-.53c-13.7-2.19-25.45-11.11-34.91-26.51s-12.34-30.38-8.51-44.41c6.49-23.75,29.63-36.23,30.61-36.75a1.63,1.63,0,0,1,1.52,2.88c-.23.12-22.9,12.37-29,34.75-3.58,13.12-.83,27.2,8.15,41.83s19.92,23,32.63,25a40.59,40.59,0,0,0,6.17.49c19.33,0,35.7-13.67,35.88-13.82a1.62,1.62,0,1,1,2.1,2.48C1438.49,940.38,1421.81,954.33,1401.4,954.33Z"/><path class="cls-9" d="M1553.44,964.84a1.58,1.58,0,0,1-.73-.18,1.63,1.63,0,0,1-.72-2.18c.1-.19,9.5-19.88-10.48-51.79s-57.88-24.94-58.26-24.86a1.63,1.63,0,0,1-.62-3.2,67.55,67.55,0,0,1,22.78.34c11.63,2.11,27.81,8.33,38.86,26,21,33.6,11.06,54.13,10.62,55A1.64,1.64,0,0,1,1553.44,964.84Z"/><path class="cls-9" d="M1507.41,1071.17a1.62,1.62,0,0,1-1.06-2.86c5.28-4.51,11.37-12,10.4-22.09-1.28-13.21-14.55-27.3-38.38-40.76-26-14.66-47.36-18.52-63.54-11.49-18.64,8.11-23.7,28.24-23.75,28.45a1.63,1.63,0,1,1-3.16-.77c.22-.89,5.5-21.92,25.61-30.66,17.17-7.47,39.52-3.55,66.44,11.64,25.15,14.2,38.62,28.76,40,43.27,1.1,11.5-5.66,19.88-11.53,24.88A1.63,1.63,0,0,1,1507.41,1071.17Z"/><path class="cls-9" d="M1538.39,1174.4a40.23,40.23,0,0,1-34.48-19.43,1.63,1.63,0,0,1,2.79-1.67,36.9,36.9,0,0,0,45.24,15.21c19.23-7.8,26.65-29.56,19.85-58.19-9.35-39.34-9.65-63.59-1-76.31,4.21-6.15,10.37-9.6,19.41-10.85,21.16-2.93,26.87,8,27.11,8.46a1.63,1.63,0,0,1-2.91,1.47c-.21-.41-5.1-9.29-23.76-6.71-8.06,1.12-13.51,4.13-17.16,9.46-8,11.75-7.57,35.87,1.42,73.73,3.83,16.11,3.41,30-1.23,41.17a37.17,37.17,0,0,1-20.56,20.79A39.32,39.32,0,0,1,1538.39,1174.4Z"/><path class="cls-9" d="M1394.39,1108.7c-31.1,0-46.31-41.43-58.82-75.48-3.29-9-6.4-17.44-9.58-24.62-5.17-11.69-11.75-18.45-19.56-20.11-11.24-2.39-21.5,6.74-21.6,6.83a1.62,1.62,0,0,1-2.18-2.41c.46-.42,11.56-10.33,24.44-7.61,8.89,1.88,16.25,9.28,21.87,22,3.23,7.28,6.36,15.8,9.67,24.82,6.9,18.81,14.73,40.12,25.41,54.78,12,16.42,25.71,21.85,42,16.61,13.81-4.43,22-11,24.38-19.54,3.82-13.76-8.82-28.42-9-28.57a1.63,1.63,0,0,1,2.45-2.14c.57.65,13.92,16.1,9.64,31.57-2.68,9.66-11.6,17-26.53,21.78A41.52,41.52,0,0,1,1394.39,1108.7Z"/><path class="cls-9" d="M1337.42,1244.13a1.63,1.63,0,0,1-1.41-2.44c25.77-44.73,64.72-59,65.11-59.09a1.63,1.63,0,0,1,1.09,3.07c-.38.13-38.24,14-63.38,57.64A1.64,1.64,0,0,1,1337.42,1244.13Z"/><path class="cls-9" d="M1550,1254.61a1.64,1.64,0,0,1-1.14-.47c-16.82-16.43-34.6-13.85-51.8-11.36-15.85,2.3-30.82,4.48-43.83-7.88-9.83-9.34-14.63-19.6-14.25-30.5.7-19.87,18.23-34.54,19-35.16a1.63,1.63,0,0,1,2.07,2.51c-.18.14-17.16,14.39-17.8,32.78-.34,9.92,4.12,19.35,13.24,28,11.87,11.27,26.08,9.21,41.12,7,17.15-2.49,36.57-5.31,54.54,12.25a1.62,1.62,0,0,1,0,2.3A1.65,1.65,0,0,1,1550,1254.61Z"/><path class="cls-9" d="M1724.84,649.55a47.75,47.75,0,0,1-19.17-4.34c-11.39-5-18.93-12.55-22.43-22.51-6.94-19.76,4.38-41.71,4.86-42.63a1.63,1.63,0,0,1,2.88,1.51c-.11.22-11.14,21.65-4.67,40,3.19,9.08,10.14,16,20.66,20.6,21.21,9.27,37.37,1.27,44-10.77,5.33-9.7,3.77-20.05-3.81-25.15a1.62,1.62,0,1,1,1.82-2.69c9,6.07,11,18.17,4.84,29.41C1748.67,642.37,1738.44,649.55,1724.84,649.55Z"/><path class="cls-9" d="M1755.69,708.21a1.62,1.62,0,0,1-1.53-1.09c-.25-.69-5.86-17.18,2.8-28.83,5.79-7.78,16.44-11.39,31.66-10.72,27.3,1.2,44-1.74,50.94-9,3.11-3.22,4.4-7.47,4-13a1.63,1.63,0,0,1,3.24-.26c.53,6.5-1.06,11.57-4.86,15.51-7.76,8.06-24.74,11.23-53.42,10-14.08-.62-23.81,2.55-28.91,9.41-7.64,10.28-2.4,25.67-2.34,25.82a1.63,1.63,0,0,1-1,2.07A1.7,1.7,0,0,1,1755.69,708.21Z"/><path class="cls-9" d="M1684.11,784.15h-.38a1.63,1.63,0,0,1,0-3.26h0c9.79.19,20.85-8.29,26.85-20.61,6.91-14.17,5.58-29.33-3.54-40.56-6.63-8.15-13.26-12.13-19.69-11.84-8.71.4-14.35,8.66-14.4,8.75a1.63,1.63,0,0,1-2.71-1.8c.26-.4,6.57-9.7,16.93-10.2,7.54-.36,15.07,4,22.4,13,9.94,12.24,11.41,28.7,3.94,44C1707,775.18,1695.2,784.15,1684.11,784.15Z"/><path class="cls-9" d="M1827.1,812.17c-9.14,0-20.56-2.7-34.08-11-11.46-7-19.62-16.72-23.59-28a50.36,50.36,0,0,1-.91-30.13c4-14.28,13.56-23.87,23.7-23.87h0c8.23,0,14.09,2.16,17.45,6.41,4.24,5.38,2.73,12,2.66,12.3a1.63,1.63,0,0,1-3.17-.75c0-.08,1.2-5.44-2.07-9.56-2.71-3.41-7.71-5.14-14.87-5.15h0c-8.53,0-17,8.84-20.57,21.51-4.7,16.62-1.11,39.67,23.07,54.5,16.88,10.36,32.88,13.14,46.27,8a36.31,36.31,0,0,0,15.37-11,1.63,1.63,0,1,1,2.64,1.9,38.89,38.89,0,0,1-16.69,12A42.05,42.05,0,0,1,1827.1,812.17Z"/><path class="cls-9" d="M1824.74,959.31c-10.4,0-23.28-3.54-37.82-15-22.33-17.55-22.91-39.15-19.47-54.18a82.63,82.63,0,0,1,12.84-28.43,1.63,1.63,0,0,1,2.61,1.95,80.84,80.84,0,0,0-12.3,27.3c-4.66,20.48,1.5,37.58,18.33,50.81s33.45,17.38,49.08,12.1A45.25,45.25,0,0,0,1856.44,942a1.62,1.62,0,1,1,2.48,2.09A47.74,47.74,0,0,1,1839.05,957,44.75,44.75,0,0,1,1824.74,959.31Z"/><path class="cls-9" d="M1903.63,911.35c-8.7,0-18.2-3.86-27.34-11.39-19.66-16.21-25.08-40.26-21.72-56.9,2.7-13.4,10.82-23.06,22.29-26.5,27.35-8.21,32.87-22.51,32.92-22.65a1.63,1.63,0,0,1,3.07,1.09c-.23.65-6,15.94-35.06,24.67-10.27,3.08-17.58,11.84-20,24-3.16,15.69,2,38.4,20.61,53.75,13.71,11.3,28.13,13.76,38.58,6.57,7-4.82,10.28-13,7.94-20a1.62,1.62,0,1,1,3.08-1c2.8,8.34-1,18.11-9.17,23.74A26.33,26.33,0,0,1,1903.63,911.35Z"/><path class="cls-9" d="M1868.2,1102.23H1868c-10.78-.06-19-3.22-24.31-9.38-8.36-9.63-6.66-23-6.59-23.52a1.63,1.63,0,1,1,3.23.43h0c0,.13-1.56,12.48,5.84,21,4.71,5.41,12.06,8.18,21.85,8.24h.18c31.57,0,57.88-49.47,63.55-70.16.44-1.6.87-3.28,1.31-5,3.1-12.12,7-27.21,18.68-32.59,8.2-3.76,18.86-2.29,32.56,4.51a1.63,1.63,0,1,1-1.44,2.92c-12.6-6.25-22.61-7.75-29.77-4.47-10.31,4.73-13.8,18.38-16.88,30.43-.45,1.75-.88,3.46-1.33,5.07C1929.77,1048.31,1903.47,1102.23,1868.2,1102.23Z"/><path class="cls-9" d="M1744.78,1161a2,2,0,0,1-.42,0c-19.71-5.18-35.5-13.58-46.93-25a68.94,68.94,0,0,1-19.34-36c-6.27-31.52,8.47-62.31,25.53-75.28,12.43-9.45,27.18-11.65,43.85-6.52,13.25,4.07,23.92,11.58,29,15.19,1,.68,2,1.38,2.31,1.57a1.63,1.63,0,0,1-.61,3.18c-.7-.07-1.25-.46-3.57-2.09-27.75-19.54-51-22.48-69.06-8.74-16.5,12.55-30.11,42.93-24.31,72.05,4,20,18.32,46.44,63.91,58.41a1.63,1.63,0,0,1-.41,3.2ZM1778.53,1035h0Z"/><path class="cls-9" d="M1712.24,1254.6a1.62,1.62,0,0,1-1.62-1.59,29.66,29.66,0,0,1,8.73-19.93c8-8.1,20.59-12.14,37.3-12,31.18.29,53.08-6.53,58.63-18.23,3.63-7.63.55-17.42-9.16-29.1a1.63,1.63,0,1,1,2.5-2.08c10.59,12.74,13.82,23.7,9.6,32.58-6.2,13.06-28.65,20.39-61.6,20.08-15.81-.15-27.53,3.55-34.91,11a26.88,26.88,0,0,0-7.84,17.63,1.62,1.62,0,0,1-1.6,1.65Z"/><path class="cls-9" d="M1927.5,1245.12a1.64,1.64,0,0,1-1.51-1c-18.36-44.45-58.67-49.6-59.08-49.64a1.63,1.63,0,0,1,.37-3.23c.44,0,10.82,1.29,23.68,8.28,11.84,6.44,28.06,19.18,38,43.34a1.64,1.64,0,0,1-.88,2.13A1.75,1.75,0,0,1,1927.5,1245.12Z"/><path class="cls-10" d="M2412.77,2153.72l-164.24-799.59c-32.61-158.74-184.42-256.35-334.81-212.76l-68,19.69a271.6,271.6,0,0,1-75.09,10.74l-151.74.33-624.35,1.34-164.42.35a316.12,316.12,0,0,1-83.36-11l-76.63-20.75c-173.68-47-355,59.92-394.77,235.8L70.57,2283.94c-34.26,151.53,51.88,296.37,199.77,337.95h0c164.52,46.25,342.26-56.63,387.55-221.65L728.22,2144c14.59-53.16,62.56-91.68,117-94.19l911.81-42c49.31-2.26,92.33,30.07,105.33,78.94l62.19,233.68c39.61,148.83,191.76,220.83,328.14,157.54h0C2371.76,2422.71,2439.64,2284.54,2412.77,2153.72Z"/><path class="cls-11" d="M1613.71,1593.58l-507.91,14.17c-45.22,1.26-82-40.5-82-93.29V1173.63l666.48-1.66v327.61C1690.23,1550.31,1656.05,1592.4,1613.71,1593.58Z"/><path class="cls-12" d="M2030.11,2276.29c-1.6-59.65,26.81-90.38,20.75-181.55-2.84-42.63-10.9-163.79-90.78-225.66-76.53-59.27-182.27-35.68-319-5.18-176.22,39.3-169.39,81.5-293.09,98.56-180.33,24.86-244.63-58-376.08-15.57C906.34,1968,856.31,2010,818.73,2054a123.69,123.69,0,0,1,26.47-4.23l911.81-42c49.31-2.26,92.33,30.07,105.33,78.94l62.19,233.68c32.14,120.77,138.39,190.94,250.18,179.29C2060.3,2409.26,2031.63,2333.12,2030.11,2276.29Z"/><path class="cls-13" d="M933.23,1512.34c0,148.13-121.23,272.16-272.81,277.09-153.89,5-280.37-114.29-280.37-266.53s126.48-276.37,280.37-277.24C812,1244.8,933.23,1364.2,933.23,1512.34Z"/><path class="cls-14" d="M1242.62,1864.89c0,119.74-96.33,221.46-216.46,227.28-121.6,5.88-221.28-88.53-221.28-210.93s99.68-224.26,221.28-227.46C1146.29,1650.62,1242.62,1745.15,1242.62,1864.89Z"/><path class="cls-15" d="M1200.9,1866.45c0,96.66-77.85,178.62-174.74,183.1-97.84,4.52-177.87-71.54-177.87-169.93s80-180.43,177.87-183.22C1123.05,1693.65,1200.9,1769.79,1200.9,1866.45Z"/><path class="cls-16" d="M1166.31,1868.4c0,67.33-54.16,124.53-121.72,127.8-68.38,3.31-124.42-49.78-124.42-118.61s56-126.1,124.42-127.9C1112.15,1747.91,1166.31,1801.07,1166.31,1868.4Z"/><path class="cls-17" d="M1142.85,1869.28c0,54.35-43.77,100.44-98.26,103-55,2.54-100-40.23-100-95.56s45-101.46,100-103C1099.08,1772.11,1142.85,1814.92,1142.85,1869.28Z"/><path class="cls-18" d="M1887.28,1838.14c0,115.37-89.41,213.23-200.88,218.62-112.79,5.46-205.2-85.61-205.2-203.45s92.41-215.82,205.2-218.78C1797.87,1631.59,1887.28,1722.77,1887.28,1838.14Z"/><path class="cls-19" d="M1848.55,1839.59c0,93.13-72.26,172-162.15,176.12-90.75,4.2-165-69.17-165-163.91s74.2-173.64,165-176.22C1776.29,1673,1848.55,1746.46,1848.55,1839.59Z"/><path class="cls-20" d="M1834.56,1841.13c0,67.33-54.17,124.53-121.72,127.8-68.38,3.31-124.43-49.78-124.43-118.61s56-126.1,124.43-127.9C1780.39,1720.64,1834.56,1773.8,1834.56,1841.13Z"/><path class="cls-21" d="M1811.1,1842c0,54.36-43.78,100.44-98.26,103-55,2.55-100-40.22-100-95.55s45-101.46,100-103C1767.32,1744.83,1811.1,1787.65,1811.1,1842Z"/><path class="cls-22" d="M933.29,1350.32h0A33.3,33.3,0,0,1,899.5,1317v-59.22a33.94,33.94,0,0,1,33.79-33.85h0A33.43,33.43,0,0,1,967,1257.36v59A34.06,34.06,0,0,1,933.29,1350.32Z"/><path class="cls-23" d="M1752.85,1340.41h0c-17,.18-30.8-14.07-30.8-31.83V1252c0-17.77,13.8-32.23,30.8-32.31h0c17-.08,30.7,14.21,30.7,31.92V1308C1783.55,1325.71,1769.82,1340.22,1752.85,1340.41Z"/><path class="cls-24" d="M689.42,1320.58l-58.09.55c-17.12.16-31,13.92-31,30.74V1418a29.66,29.66,0,0,0,5.19,16.76l26.27,38.42a30.49,30.49,0,0,0,25.77,13.14l5.77-.1a31.58,31.58,0,0,0,25.69-14l26.06-39.09a30.34,30.34,0,0,0,5.13-16.82v-65.72A30.17,30.17,0,0,0,689.42,1320.58Z"/><path class="cls-25" d="M689.42,1713.41l-58.09,1.67c-17.12.49-31-12.74-31-29.56V1619.4a30.6,30.6,0,0,1,5.19-17L631.76,1563a31.87,31.87,0,0,1,25.77-14.13l5.77-.11a30.22,30.22,0,0,1,25.69,13l26.06,38.09a29.45,29.45,0,0,1,5.13,16.63v65.72C720.18,1699,706.42,1712.92,689.42,1713.41Z"/><path class="cls-26" d="M458.36,1492.56v57.69c0,16.94,14.1,30.36,31.46,30l67.95-1.5a32.19,32.19,0,0,0,17.24-5.47l39.68-26.64A31,31,0,0,0,628.54,1521v-5.67a29.67,29.67,0,0,0-13.85-25.1L575,1465.09a31.3,31.3,0,0,0-17.24-4.81l-67.95,1.1C472.46,1461.66,458.36,1475.62,458.36,1492.56Z"/><path class="cls-27" d="M858.52,1485.48V1542a31,31,0,0,1-30.33,30.74L762,1574.24a30.37,30.37,0,0,1-16.92-4.68l-39.17-24.81a29.51,29.51,0,0,1-13.75-25v-5.66a30.84,30.84,0,0,1,13.75-25.5l39.17-26.31A31.14,31.14,0,0,1,762,1457l66.16-1.08A29.62,29.62,0,0,1,858.52,1485.48Z"/><path class="cls-28" d="M702.39,1323.46l-58.09.54c-17.13.16-31,13.93-31,30.75v66.11a29.66,29.66,0,0,0,5.19,16.77l26.27,38.42a30.49,30.49,0,0,0,25.77,13.14l5.77-.1a31.63,31.63,0,0,0,25.69-14L728,1436a30.33,30.33,0,0,0,5.12-16.82v-65.72A30.16,30.16,0,0,0,702.39,1323.46Z"/><path class="cls-29" d="M702.39,1716.28,644.3,1718c-17.13.49-31-12.75-31-29.57v-66.11a30.64,30.64,0,0,1,5.19-17l26.27-39.41a31.84,31.84,0,0,1,25.77-14.13l5.77-.12a30.25,30.25,0,0,1,25.69,13L728,1602.77a29.44,29.44,0,0,1,5.12,16.63v65.72C733.14,1701.84,719.39,1715.79,702.39,1716.28Z"/><path class="cls-30" d="M471.33,1495.44v57.69c0,16.94,14.09,30.36,31.46,30l67.95-1.49a32.28,32.28,0,0,0,17.24-5.47l39.67-26.64a31,31,0,0,0,13.86-25.63v-5.68a29.63,29.63,0,0,0-13.86-25.09L588,1468a31.22,31.22,0,0,0-17.24-4.81l-67.95,1.1C485.42,1464.54,471.33,1478.5,471.33,1495.44Z"/><path class="cls-31" d="M871.49,1488.36v56.56a31,31,0,0,1-30.33,30.74L775,1577.11a30.28,30.28,0,0,1-16.92-4.67l-39.17-24.81a29.5,29.5,0,0,1-13.75-25V1517a30.83,30.83,0,0,1,13.75-25.51l39.17-26.31a31.31,31.31,0,0,1,16.92-5.32l66.16-1.07A29.61,29.61,0,0,1,871.49,1488.36Z"/><path class="cls-32" d="M1777.9,1494.71c0,141.29,109,252.28,241.72,248,130.89-4.26,235.67-119.33,235.67-257.08s-104.78-248.82-235.67-248.08C1886.88,1238.27,1777.9,1353.42,1777.9,1494.71Z"/><path class="cls-33" d="M2080.22,1330.79c0,35.43-27.08,64.52-60.6,65s-61-28-61-63.7,27.35-64.75,61-65S2080.22,1295.37,2080.22,1330.79Z"/><path class="cls-34" d="M2080.22,1647.08c0,35.42-27.08,65-60.6,66s-61-27-61-62.66,27.35-65.22,61-66S2080.22,1611.65,2080.22,1647.08Z"/><path class="cls-35" d="M1868.51,1428.12c34.06-.54,61.58,28,61.58,63.68s-27.52,65.27-61.58,66-62-27.74-62-63.68S1834.33,1428.65,1868.51,1428.12Z"/><path class="cls-36" d="M2168.35,1423.42c33-.52,59.64,27.55,59.64,62.69s-26.65,64.24-59.64,65-60-27.32-60-62.69S2135.24,1423.94,2168.35,1423.42Z"/><path class="cls-37" d="M2093.19,1333.67c0,35.42-27.08,64.52-60.6,65s-61-28-61-63.69,27.36-64.75,61-65S2093.19,1298.25,2093.19,1333.67Z"/><path class="cls-38" d="M2093.19,1650c0,35.43-27.08,65-60.6,66s-61-27-61-62.67,27.36-65.21,61-66S2093.19,1614.53,2093.19,1650Z"/><path class="cls-39" d="M1881.48,1431c34.06-.53,61.58,28,61.58,63.69s-27.52,65.27-61.58,66-62-27.74-62-63.68S1847.29,1431.53,1881.48,1431Z"/><path class="cls-40" d="M2181.31,1426.29c33-.51,59.65,27.56,59.65,62.7s-26.66,64.23-59.65,65-60-27.32-60-62.69S2148.21,1426.81,2181.31,1426.29Z"/><path class="cls-41" d="M349.39,2520.1c5.19-65.64,93.58-75.41,111.53-158.21,24.61-113.51-125-171.1-111.53-293.09,13.17-119.31,167.8-168.71,145.25-241.22-11.21-36-51.45-30.59-106.35-80.4-77.16-70-94.71-168.84-98.56-197.12-24-176,117.14-308.11,142.66-332A456.64,456.64,0,0,1,565,1131.81c-136.09,9.46-257.84,105.79-289.54,246L70.57,2283.94c-34.26,151.53,51.88,296.37,199.77,337.95h0a301.62,301.62,0,0,0,140.6,5.16C359.21,2582.33,347.27,2547,349.39,2520.1Z"/><path class="cls-42" d="M1506.18,1477.44c-73.6-40.63-117.24,7.79-170.64-29-62.26-43-23.58-123.05-86.14-170.68-52.69-40.11-103.08-.75-179.23-30.66a188.21,188.21,0,0,1-46.42-26.53v293.93c0,52.79,36.83,94.55,82,93.29l507.91-14.17a66.88,66.88,0,0,0,30.06-8.2,210.28,210.28,0,0,1-36-16.87C1554,1536.73,1555.73,1504.79,1506.18,1477.44Z"/><path class="cls-43" d="M978.32,654.55c14.9-9.67,1.32-37.78.52-98.16-1-74,18.67-87.79,2.88-116.82-19.3-35.5-67.89-50.19-100.08-50.88-7.1-.15-8.76-4-68.24,11.37-107.16,27.76-134-2-182,27.72-46.36,28.72-26.06,60.16-71.08,93.84-73,54.58-149.72-4.43-201.88,41.22C309.12,606,308,716.06,359.88,776.1c58.83,68.07,164.9,47.62,236,34.12,15-2.84,90.51-18.71,169.18-76.77a450.22,450.22,0,0,0,92.41-91.7c4.46-5,11.43-11.1,20.62-12.08,11-1.18,19.89,5.57,24.16,8.53C924.68,653.73,963.67,664,978.32,654.55Z"/><path class="cls-44" d="M918.43,623.52c19.16-17.46,87.55,16.19,132.88,60.86,53.24,52.47,49.15,95,95.62,160.2,23.1,32.41,62.71,76,132.88,114.25l-14.9,37.26c-33.93,2-100.54.84-162.69-39.74-43.17-28.19-65.38-65.54-108-139.1C951.36,743.44,894.47,645.35,918.43,623.52Z"/><path class="cls-45" d="M1350.38,1612,1297,1579.93h-24.1s-8.2,30.55-7.27,32.08c10.73,17.59,60.72,31,91.91,32.08,5.18.18,12.4.21,14.27-3.54C1375,1634.19,1360.83,1620.86,1350.38,1612Z"/><path class="cls-46" d="M1296,1544.92c-3.43,19.86.91,30.22,5.59,36,3.3,4.08,6.22,5.24,25.77,22.14,6.46,5.59,9.75,8.58,9,10.14-.86,1.8-6.56.82-18.88-2.14-26.85-6.45-40.34-9.81-43.63-16.27-3-5.85-.35-8.49-.52-24.43a82.76,82.76,0,0,0-3.93-24.22Z"/><path class="cls-47" d="M1334.64,1387.53s24.12,28.78,20.19,60.33-46.16-14.58-52-30.17-12.77-37.8-12.77-37.8S1319.63,1361.46,1334.64,1387.53Z"/><path class="cls-48" d="M1325.44,1342.49s-6.55,33.54,5.93,51.23c6.22,8.82,14.61,16.29,12.14,23.47-1.65,4.81-7.93,8.26-13.24,7.71-10.18-1-15.82-16.64-19.8-27.64-5.87-16.25-9.15-51-9.15-51Z"/><path class="cls-49" d="M1306.21,1370.76l22.26-8.11c11.57-26.43,25.69-69.84,21-122.61-12.14-135.71-137.65-207.62-151.59-215.31-34.2,17.15-68.84,41.36-70.09,71.87-1.58,38.31,50.61,58.55,99.66,114.57C1256.87,1244.79,1288.34,1294.88,1306.21,1370.76Z"/><path class="cls-50" d="M1298.22,1560.44c24.51-95.74,18.24-173.87,11.17-218.88-10.68-68-32.42-206.4-124.81-258-20.17-11.27-49-21.36-84.16-52.68a298.09,298.09,0,0,1-59.27-73.06c-123.56-36.24-237.52-21.55-287.81,44.71-5.81,7.66-20.36,24.26-23.17,48.75C723.82,1106.54,778.11,1173.06,839,1187c77.43,17.65,122.34-61.85,190.94-35.39,19.19,7.39,35.46,25.73,68,62.4a518.71,518.71,0,0,1,73.47,106.92c26.21,51.29,46.08,89.15,49,138.22.68,11.43,1.08,34.52,14.47,59.43,10.28,19.12,24.21,31.87,34.57,39.75Z"/><path class="cls-51" d="M730.17,1051.28c2.81-24.49,17.36-41.09,23.17-48.75,50.29-66.26,164.25-80.95,287.81-44.71a298.09,298.09,0,0,0,59.27,73.06c35.15,31.32,64,41.41,84.16,52.68,56.42,31.51,86.46,95.37,103.76,155.81-25.66-39.79-47.63-50.37-64.63-50.56-24.34-.27-35.21,20.54-64.27,17.7-31.06-3-38.16-28.72-63.34-31.67-7.53-.88-16.81.28-27.94,6.21-14.86-15.56-25.94-24.77-38.19-29.49-68.6-26.46-113.51,53-190.94,35.39C778.11,1173.06,723.82,1106.54,730.17,1051.28Z"/><path class="cls-52" d="M1234.2,1126.38a407.07,407.07,0,0,0-61.5,1.4c-123.28,12.18-157.27,73.16-259.16,88-24.1,3.52-131.41,19.2-177.9-42.84-33.36-44.54-28.32-121.29,8.18-151.47,15.45-12.78,30.74-12.42,129.67-11.53,37.26.34,74.52.46,111.77.93,157.71,2,187.87-8.91,216.56,17.18C1215.21,1040.25,1234.78,1066.39,1234.2,1126.38Z"/><path class="cls-44" d="M901.27,620.39s-184-53.67-203.12,81.06c-18.3,129.13,75.44,188.39,32.79,319.18-4.94,15.16,350.31-54.29,350.31-54.29-47.42-59.16-58.44-108-59.57-141.9-1.25-37.21,9.48-54.12,0-98.1,0,0-10.58-49.07-48.75-91.21C967.45,629.08,960.92,622.78,901.27,620.39Z"/><path class="cls-53" d="M860.8,546c1.5,7,9.1,44.45-6.22,54.09-3.33,2.09-9.71,3.28-22.48,5.68-8.36,1.56-15.38,2.52-20.32,3.12.71,6.28,2.83,16.5,10.08,25.8,20.32,26.08,61.07,19.33,66.88,18.27,20.5-3.73,40.67-10.06,45.54-13.93,7.42-5.9,13.25-10.32,16.7-14.81-7.93-3.83-24-13.94-34.69-17.25a198.56,198.56,0,0,0-22.43-5.5l-3.39-21.71Z"/><path class="cls-54" d="M860.08,564.64s2.77,27.46,29.46,32.3c23.9,4.33,41.89-53.42,29.66-68.36-4.08-5-14.15-9.72-22.88-9.47-6.14.18-26.88,8.08-29.78,28.83-4.13-4.35-9.27-5.6-11.81-3.78-3.22,2.31-1.5,9-1.1,10.56A19.33,19.33,0,0,0,860.08,564.64Z"/><path class="cls-55" d="M1118.76,981.47,837.1,995.18a11.8,11.8,0,0,0-9.46,5.56l-7.8,12.51a9.15,9.15,0,0,0,8.12,14l298.34-11.36Z"/><path class="cls-56" d="M1411.71,824.62l-291,5.64A24.42,24.42,0,0,0,1100,842.6L999.21,1019.89l307.32-12.24A25.05,25.05,0,0,0,1327,995.5l93.35-156A9.85,9.85,0,0,0,1411.71,824.62Z"/><path class="cls-57" d="M1100,842.61a24.41,24.41,0,0,1,20.74-12.35l6.38-.12c1,9.39,3.83,18,9.58,24.92,18,21.66,47.76,8.3,70,31.22,24.41,25.18,1.86,55.15,23.69,78.58,23,24.67,60.11,4.58,102.8,20.37L1327,995.5a25.05,25.05,0,0,1-20.47,12.15l-307.32,12.24Z"/><path class="cls-44" d="M860.05,972.06q5.51-14.52,11-29C830.53,931.9,774.5,915.49,717,895c-9-3.21-19.7-7.2-23.2-16.67-9.83-26.57,52.65-54.11,76.94-112.12,22.47-53.66,10.1-128.13-16-136.93-54.25-18.3-246.63,221.16-177.92,322.11C615.71,1008.4,735.45,1017.49,860.05,972.06Z"/><path class="cls-58" d="M871.05,943c25.44-13.51,55.89.34,57.85,1.27A76.17,76.17,0,0,1,950.84,960c.93,1.27,12,16.56,7.94,21.46-3.22,3.92-15.7.67-30.69-8.66a116.26,116.26,0,0,0-26.86-.65c-20.58,1.89-30,8.4-37.49,2.78-5.47-4.1-7.34-12.79-5.37-19.25C860.49,948.75,866.75,945.3,871.05,943Z"/><path class="cls-59" d="M1715.57,353.29c0-63-58.08-112.12-127.25-109.87-39.4,1.28-73.67,19-95.07,45.26v0l-.39.5c-.37.46-.73.93-1.09,1.39-.66.84-1.31,1.7-2,2.56l-1.11,1.54c-.61.86-1.2,1.73-1.79,2.6-.33.51-.67,1-1,1.51-.65,1-1.27,2-1.89,3.07-.22.38-.46.74-.68,1.12q-1.21,2.1-2.33,4.25c-.2.38-.38.77-.58,1.15-.54,1.08-1.07,2.16-1.57,3.25q-.37.81-.72,1.62c-.43,1-.85,1.94-1.24,2.92-.23.57-.46,1.14-.68,1.71-.39,1-.75,2-1.11,3-.18.54-.38,1.07-.55,1.6-.42,1.29-.82,2.58-1.19,3.88-.07.27-.16.54-.24.81-.43,1.57-.82,3.16-1.18,4.75-.11.47-.19.95-.29,1.42-.24,1.14-.47,2.29-.67,3.45-.1.59-.19,1.18-.28,1.77-.16,1.07-.31,2.14-.44,3.22-.07.61-.14,1.21-.2,1.82-.12,1.14-.21,2.28-.29,3.43,0,.54-.08,1.07-.1,1.6-.09,1.68-.14,3.37-.14,5.06,0,40.41,24.47,76.05,61.15,95.13q5.07,2.63,10.43,4.84c1.79.73,3.61,1.43,5.44,2.09a135,135,0,0,0,41.76,7.82h0q3,.09,6.08,0c.68,0,1.35,0,2-.06,1.33,0,2.67-.08,4-.16.81-.05,1.61-.12,2.42-.18,1.18-.09,2.36-.18,3.53-.3.86-.09,1.72-.2,2.57-.3,1.11-.13,2.22-.27,3.32-.43.88-.13,1.75-.27,2.63-.42,1.06-.18,2.13-.36,3.18-.56.89-.17,1.76-.35,2.64-.54,1-.21,2.06-.45,3.09-.69s1.75-.42,2.62-.64,2-.54,3-.82,1.73-.49,2.58-.75l1-.28,0,0C1680.81,442.47,1715.57,401.83,1715.57,353.29Z"/><path class="cls-60" d="M1706.06,353.3c0,62.8-57.78,112-126.61,110-66.26-1.93-118.2-51-118.2-109.6s51.94-107.85,118.2-110C1648.28,241.47,1706.06,290.5,1706.06,353.3Z"/><g class="cls-61"><path class="cls-62" d="M1609.39,436c-14.94-32.89.16-63.27-20-84.36s-46.23-1.38-73.77-18.33c-10.54-6.49-22.17-18.89-30.77-44.48-14.83,18.21-23.59,40.67-23.59,64.89,0,58.62,51.94,107.67,118.2,109.6a134.86,134.86,0,0,0,44.44-6.08A75.35,75.35,0,0,1,1609.39,436Z"/></g><path class="cls-63" d="M1640.33,345.6l-3.23-12.54a.88.88,0,0,0-.78-.67l-10.76-.86a47,47,0,0,0-9.15-12.18l2.16-10.57a.9.9,0,0,0-.42-.95L1607,301.25a.88.88,0,0,0-1,.09l-8.22,7a47,47,0,0,0-15.09-2.14l-5.94-9a.87.87,0,0,0-1-.37L1563.23,300a.89.89,0,0,0-.67.79l-.86,10.75a47.22,47.22,0,0,0-12.18,9.16L1539,318.58a.87.87,0,0,0-.94.42l-6.59,11.14a.89.89,0,0,0,.09,1l7,8.22a47.29,47.29,0,0,0-2.14,15.08l-9,5.95a.87.87,0,0,0-.37,1l3.22,12.54a.88.88,0,0,0,.79.66l10.75.87a47,47,0,0,0,9.16,12.17l-2.16,10.58a.87.87,0,0,0,.42.94l11.14,6.59a.91.91,0,0,0,1-.09l8.22-7a47,47,0,0,0,15.08,2.15l5.95,9a.9.9,0,0,0,1,.37l12.54-3.23a.87.87,0,0,0,.66-.78l.87-10.76a47,47,0,0,0,12.18-9.15l10.57,2.16a.89.89,0,0,0,.94-.42l6.59-11.15a.87.87,0,0,0-.09-1l-7-8.22A47.07,47.07,0,0,0,1631,352.5l9-5.94A.89.89,0,0,0,1640.33,345.6Zm-57.75,28.25a20.62,20.62,0,1,1,20.62-20.62A20.62,20.62,0,0,1,1582.58,373.85Z"/><path class="cls-64" d="M1391,333.07c0-89.4-82.46-159.19-180.69-156-55.93,1.82-104.6,27-135,64.26v0c-.19.23-.36.47-.55.7-.53.66-1,1.32-1.55,2q-1.41,1.8-2.76,3.63c-.54.73-1.06,1.45-1.58,2.19-.87,1.22-1.71,2.45-2.54,3.7-.48.71-1,1.42-1.42,2.14-.92,1.44-1.81,2.9-2.69,4.36-.32.53-.65,1.05-1,1.59-1.15,2-2.26,4-3.32,6-.28.54-.53,1.09-.81,1.64q-1.15,2.28-2.24,4.61c-.35.76-.68,1.53-1,2.3-.61,1.37-1.2,2.75-1.76,4.15q-.5,1.2-1,2.43c-.55,1.43-1.07,2.87-1.58,4.31-.26.76-.53,1.51-.78,2.28q-.9,2.73-1.69,5.5c-.11.39-.23.77-.34,1.15-.62,2.23-1.17,4.48-1.68,6.75-.15.66-.27,1.34-.41,2-.34,1.62-.66,3.25-.94,4.9-.15.83-.27,1.67-.4,2.51-.24,1.52-.44,3-.63,4.58-.1.86-.2,1.72-.29,2.58-.17,1.62-.29,3.24-.4,4.87,0,.76-.12,1.52-.16,2.28-.12,2.38-.19,4.77-.19,7.18,0,57.37,34.75,108,86.84,135.07q7.18,3.75,14.8,6.88,3.81,1.56,7.73,3a191.6,191.6,0,0,0,59.28,11.1h0c2.9.09,5.77.1,8.64.06,1,0,1.92-.07,2.88-.09,1.9-.06,3.79-.12,5.67-.23,1.15-.06,2.29-.17,3.43-.25,1.68-.13,3.36-.26,5-.43,1.22-.12,2.43-.28,3.64-.42,1.58-.19,3.15-.39,4.72-.62,1.24-.18,2.48-.38,3.72-.59,1.52-.25,3-.51,4.52-.8,1.26-.24,2.51-.49,3.75-.76,1.47-.31,2.93-.64,4.39-1,1.24-.29,2.49-.6,3.72-.92,1.44-.37,2.87-.76,4.29-1.16,1.23-.35,2.45-.7,3.66-1.07.45-.13.91-.25,1.35-.39l0,0C1341.69,459.7,1391,402,1391,333.07Z"/><path class="cls-65" d="M1377.55,333.1c0,89.17-82,159.06-179.78,156.21-94.09-2.75-167.83-72.39-167.83-155.64s73.74-153.13,167.83-156.19C1295.5,174.3,1377.55,243.92,1377.55,333.1Z"/><path class="cls-63" d="M1186.53,241.47l-26.33,48.44-53.12,6.38c-7.66.92-11.29,10.47-6.14,16.2l35.88,39.9-12.23,54.92c-1.8,8.07,6,14.76,13.27,11.29l50-24,48.5,29.44a9.94,9.94,0,0,0,15-10l-7.43-57.26,42-38.27a10,10,0,0,0-5-17.2l-55.16-9.62-22.12-49.94C1200.46,234.58,1190.36,234.42,1186.53,241.47Z"/><g class="cls-61"><path class="cls-66" d="M1240.27,450.5c-21.21-46.69.24-89.83-28.4-119.78s-65.65-2-104.76-26c-14.95-9.21-31.47-26.82-43.68-63.15-21.07,25.86-33.49,57.74-33.49,92.13,0,83.25,73.74,152.89,167.83,155.64a191.66,191.66,0,0,0,63.09-8.64A107.32,107.32,0,0,1,1240.27,450.5Z"/></g><path class="cls-67" d="M1799.39,1020.25a31.12,31.12,0,0,0-31.13-31.11h-21.54a2,2,0,0,0,0,4h21.54a27.13,27.13,0,0,1,27.13,27.41l-1.78,165.13a27.21,27.21,0,0,1-27.12,26.84H1749a31.16,31.16,0,0,0-31.13,31.12v90.21a2,2,0,0,0,4,0v-90.21a27.16,27.16,0,0,1,27.13-27.12h17.46a31.23,31.23,0,0,0,31.12-30.79l1.78-165.13Z"/><circle class="cls-68" cx="1742.38" cy="985.49" r="30.17" transform="translate(-186.52 1520.69) rotate(-45)"/><circle class="cls-69" cx="1742.38" cy="985.49" r="29.17"/><circle class="cls-70" cx="1740.41" cy="983.53" r="22.09" transform="translate(-135.07 291.48) rotate(-9.22)"/><circle class="cls-71" cx="1746.72" cy="778.45" r="30.17" transform="translate(-148.38 1034.57) rotate(-31.72)"/><circle class="cls-72" cx="1746.72" cy="778.45" r="29.17" transform="translate(-38.84 1463.12) rotate(-45)"/><circle class="cls-73" cx="1744.75" cy="776.48" r="22.09"/><circle class="cls-74" cx="1856.72" cy="898.63" r="30.17" transform="translate(-156.79 450.63) rotate(-13.28)"/><circle class="cls-75" cx="1856.72" cy="898.63" r="29.17" transform="translate(-156.79 450.63) rotate(-13.28)"/><circle class="cls-76" cx="1854.75" cy="896.67" r="22.09"/></g></g></svg>