<svg xmlns="http://www.w3.org/2000/svg" xmlns:xlink="http://www.w3.org/1999/xlink" viewBox="0 0 2481.7 2690.73"><defs><style>.cls-1{fill:url(#linear-gradient);}.cls-2{fill:url(#linear-gradient-2);}.cls-3{isolation:isolate;}.cls-4{fill:#f4f7fa;}.cls-5{clip-path:url(#clip-path);}.cls-11,.cls-12,.cls-15,.cls-17,.cls-6{mix-blend-mode:soft-light;}.cls-11,.cls-12,.cls-15,.cls-7{fill:#fff;}.cls-8{clip-path:url(#clip-path-2);}.cls-9{fill:#bfc8d6;}.cls-10{fill:#d8dee8;}.cls-12{opacity:0.48;}.cls-13{fill:url(#linear-gradient-5);}.cls-14{fill:url(#linear-gradient-6);}.cls-15{opacity:0.74;}.cls-16{fill:url(#linear-gradient-7);}.cls-17{opacity:0.5;}.cls-18{fill:#7d97f4;}.cls-19{fill:url(#linear-gradient-8);}.cls-20{fill:url(#linear-gradient-9);}.cls-21{fill:url(#linear-gradient-10);}.cls-22{fill:url(#linear-gradient-11);}.cls-23{fill:url(#linear-gradient-12);}.cls-24{fill:url(#linear-gradient-13);}.cls-25{fill:url(#linear-gradient-14);}.cls-26{fill:url(#linear-gradient-15);}.cls-27{fill:url(#linear-gradient-16);}.cls-28{fill:url(#linear-gradient-17);}.cls-29{fill:url(#linear-gradient-18);}.cls-30{fill:url(#linear-gradient-19);}.cls-31{fill:url(#linear-gradient-20);}.cls-32{fill:url(#linear-gradient-21);}.cls-33{fill:url(#linear-gradient-22);}.cls-34{fill:url(#linear-gradient-23);}.cls-35{fill:url(#linear-gradient-24);}.cls-36{fill:url(#linear-gradient-25);}.cls-37{fill:url(#linear-gradient-26);}.cls-38{fill:#bdd0fb;}</style><linearGradient id="linear-gradient" x1="1885.83" y1="1519.29" x2="4118.95" y2="1542.25" gradientUnits="userSpaceOnUse"><stop offset="0" stop-color="#81bff9"/><stop offset="1" stop-color="#475fd7"/></linearGradient><linearGradient id="linear-gradient-2" x1="664.54" y1="1014.71" x2="2563.92" y2="1034.24" gradientUnits="userSpaceOnUse"><stop offset="0" stop-color="#ff9085"/><stop offset="1" stop-color="#fb6fbb"/></linearGradient><clipPath id="clip-path"><path class="cls-1" d="M1295,1986.59c-128.15-172.52-71.59-439.35,29.88-484.8,52.78-23.65,95.87,22.38,147.17-9.66,56.84-35.5,32-109.54,79.67-240.86,24.62-67.85,69.26-190.89,155.7-212.79,85.72-21.73,127.09,77.66,220.62,59.38,88.43-17.28,85-112.71,202.37-164.15,10.91-4.79,134.35-57.14,202.79-.29,69.53,57.76,57.73,207.83-10.58,283.81-62.06,69-152.53,56.61-161.91,105.42-10.34,53.8,96.13,86.49,90.81,142.77-7.68,81.35-235.75,72.38-277.42,192-24.5,70.32,43.38,104.94,32,199.69-14.69,122.28-145.8,214.74-246.19,250.31C1614.43,2158.93,1406.09,2136.13,1295,1986.59Z"/></clipPath><clipPath id="clip-path-2"><path class="cls-2" d="M747.65,1721.13C535.12,1753,326.27,1577.6,333.9,1466.67c4-57.7,64.86-74.06,60.72-134.4-4.58-66.86-81.59-79.81-175-183.63C171.27,1095,83.71,997.73,105,911.14c21.16-85.86,128.33-75.61,156.2-166.74,26.36-86.16-59.44-128.08-49.64-255.8.91-11.88,12.79-145.44,95.15-179.08,83.68-34.18,210.55,46.83,245.46,142.86,31.71,87.24-21.8,161.22,16.86,192.47,42.6,34.43,121.54-44.14,168.7-13,68.17,45.06-47,242.08,38.87,335.11,50.53,54.71,113,11.1,191.26,65.72,101,70.5,120.89,229.68,105.05,335C1050,1520.35,931.86,1693.46,747.65,1721.13Z"/></clipPath><linearGradient id="linear-gradient-5" x1="173.03" y1="2228.99" x2="2325.45" y2="2228.99" gradientUnits="userSpaceOnUse"><stop offset="0.49" stop-color="#ebeff2"/><stop offset="1" stop-color="#fff"/></linearGradient><linearGradient id="linear-gradient-6" x1="1598.91" y1="199.21" x2="249" y2="2899.02" gradientUnits="userSpaceOnUse"><stop offset="0" stop-color="#78afe3"/><stop offset="1" stop-color="#1a47ba"/></linearGradient><linearGradient id="linear-gradient-7" x1="1015.07" y1="114.89" x2="1249.62" y2="1053.1" xlink:href="#linear-gradient-6"/><linearGradient id="linear-gradient-8" x1="895.27" y1="1977.37" x2="851.55" y2="2063.35" gradientUnits="userSpaceOnUse"><stop offset="0" stop-color="#09005d"/><stop offset="1" stop-color="#1a0f91"/></linearGradient><linearGradient id="linear-gradient-9" x1="812.14" y1="2011.58" x2="855.69" y2="2011.58" gradientUnits="userSpaceOnUse"><stop offset="0" stop-color="#ff928e"/><stop offset="1" stop-color="#feb3b1"/></linearGradient><linearGradient id="linear-gradient-10" x1="751.87" y1="1896.36" x2="936.94" y2="1636.97" gradientUnits="userSpaceOnUse"><stop offset="0" stop-color="#2b3582"/><stop offset="0.23" stop-color="#252a70"/><stop offset="0.73" stop-color="#19164f"/><stop offset="1" stop-color="#150e42"/></linearGradient><linearGradient id="linear-gradient-11" x1="869.9" y1="2064.3" x2="718.35" y2="2262.48" xlink:href="#linear-gradient-8"/><linearGradient id="linear-gradient-12" x1="794.05" y1="2107.22" x2="911.16" y2="2107.22" gradientUnits="userSpaceOnUse"><stop offset="0" stop-color="#4042e2"/><stop offset="1" stop-color="#4f52ff"/></linearGradient><linearGradient id="linear-gradient-13" x1="780.65" y1="2051.77" x2="821.52" y2="2051.77" xlink:href="#linear-gradient-9"/><linearGradient id="linear-gradient-14" x1="685.17" y1="2025.61" x2="695.37" y2="1678.79" xlink:href="#linear-gradient-8"/><linearGradient id="linear-gradient-15" x1="897.26" y1="1503.55" x2="661.32" y2="1895.72" gradientUnits="userSpaceOnUse"><stop offset="0" stop-color="#fe7062"/><stop offset="1" stop-color="#ff928e"/></linearGradient><linearGradient id="linear-gradient-16" x1="1114.01" y1="1239.61" x2="1037.49" y2="1437.28" xlink:href="#linear-gradient-9"/><linearGradient id="linear-gradient-17" x1="839.78" y1="1409.7" x2="519.19" y2="1642.86" xlink:href="#linear-gradient-15"/><linearGradient id="linear-gradient-18" x1="872.01" y1="1286.42" x2="735.98" y2="1490.46" xlink:href="#linear-gradient-9"/><linearGradient id="linear-gradient-19" x1="793.8" y1="1346.49" x2="473.21" y2="1579.64" xlink:href="#linear-gradient-15"/><linearGradient id="linear-gradient-20" x1="563.87" y1="1491.55" x2="843.65" y2="1475.52" gradientUnits="userSpaceOnUse"><stop offset="0" stop-color="#e1473d"/><stop offset="1" stop-color="#e9605a"/></linearGradient><linearGradient id="linear-gradient-21" x1="1098.35" y1="1322.91" x2="989.96" y2="1397.3" xlink:href="#linear-gradient-9"/><linearGradient id="linear-gradient-22" x1="1203.74" y1="1144.08" x2="946.57" y2="1265.22" xlink:href="#linear-gradient-9"/><linearGradient id="linear-gradient-23" x1="525.55" y1="1548.03" x2="1022.88" y2="1178.22" xlink:href="#linear-gradient-8"/><linearGradient id="linear-gradient-24" x1="741.87" y1="1239.83" x2="836.72" y2="1142.51" gradientTransform="translate(-291.14 411.41) rotate(-14.47)" xlink:href="#linear-gradient-9"/><linearGradient id="linear-gradient-25" x1="1808.14" y1="1994.74" x2="1622.7" y2="2045.56" gradientTransform="matrix(-1, -0.05, -0.05, 1, 2657.14, -328.36)" xlink:href="#linear-gradient-8"/><linearGradient id="linear-gradient-26" x1="1287.03" y1="1696" x2="1095.75" y2="1547.22" xlink:href="#linear-gradient-8"/></defs><title>play</title><g class="cls-3"><g id="Illustration"><path class="cls-4" d="M2043.41,872.23c47.27-430.51-370.11-580.08-666-469.85C1079.13,513.5,1010,329.3,590.53,381.93c-424.7,53.29-209.07,720-209.07,720S449,1681.62,529.1,1948.84c79.62,265.77,841.83,169.62,1027.25,161.68,184.35-7.88,344.54,7.34,504.94-284.48C2221.39,1534.76,1996.3,1301.31,2043.41,872.23Z"/><path class="cls-1" d="M1295,1986.59c-128.15-172.52-71.59-439.35,29.88-484.8,52.78-23.65,95.87,22.38,147.17-9.66,56.84-35.5,32-109.54,79.67-240.86,24.62-67.85,69.26-190.89,155.7-212.79,85.72-21.73,127.09,77.66,220.62,59.38,88.43-17.28,85-112.71,202.37-164.15,10.91-4.79,134.35-57.14,202.79-.29,69.53,57.76,57.73,207.83-10.58,283.81-62.06,69-152.53,56.61-161.91,105.42-10.34,53.8,96.13,86.49,90.81,142.77-7.68,81.35-235.75,72.38-277.42,192-24.5,70.32,43.38,104.94,32,199.69-14.69,122.28-145.8,214.74-246.19,250.31C1614.43,2158.93,1406.09,2136.13,1295,1986.59Z"/><g class="cls-5"><g class="cls-6"><path class="cls-7" d="M1345.23,2125.48l-5.79-3.58c138.44-224.52,281.52-428.35,425.28-605.85,115-142,230.75-267.62,343.94-373.27,192.89-180,313.3-240.57,314.49-241.16l3,6.1c-1.18.59-121,60.86-313.23,240.38C1935.48,1313.8,1658.24,1617.87,1345.23,2125.48Z"/><path class="cls-7" d="M2090.77,1160.69C2116.58,951.14,2231.88,809.6,2233,808.2l5.25,4.34c-1.15,1.39-115.2,141.49-140.76,349Z"/><path class="cls-7" d="M1743.6,1541.08c-44.31-225.69-32.13-372.18-14.12-455.33,19.63-90.56,49.49-127,50.75-128.56l5.23,4.37c-.3.36-30.27,37.14-49.48,126.38-17.75,82.45-29.68,227.77,14.3,451.82Z"/><path class="cls-7" d="M1461.38,1934.14c-164.16-367.06-103.1-596.15-102.46-598.42l6.56,1.84c-.16.57-15.81,60-9.89,165.41,5.21,92.83,28.87,242.5,112,428.39Z"/><path class="cls-7" d="M1859.3,1508a622.54,622.54,0,0,1-70.64-13.61l1.67-6.6c154.68,39.3,306.88,11.57,407.32-18.62,108.88-32.73,182-75.25,182.7-75.68l3.45,5.88c-.73.43-74.54,43.37-184.19,76.33C2113.69,1501.52,1990.16,1525.56,1859.3,1508Z"/><path class="cls-7" d="M1552.15,1869.16q-18.93-2.54-38.19-6.52l1.38-6.67c162.91,33.84,308.8-15.13,402.51-62.17,101.61-51,165.38-110.73,166-111.32l4.68,5c-.64.6-65.14,61-167.63,112.46C1833.61,1843.71,1701.43,1889.18,1552.15,1869.16Z"/></g></g><path class="cls-2" d="M747.65,1721.13C535.12,1753,326.27,1577.6,333.9,1466.67c4-57.7,64.86-74.06,60.72-134.4-4.58-66.86-81.59-79.81-175-183.63C171.27,1095,83.71,997.73,105,911.14c21.16-85.86,128.33-75.61,156.2-166.74,26.36-86.16-59.44-128.08-49.64-255.8.91-11.88,12.79-145.44,95.15-179.08,83.68-34.18,210.55,46.83,245.46,142.86,31.71,87.24-21.8,161.22,16.86,192.47,42.6,34.43,121.54-44.14,168.7-13,68.17,45.06-47,242.08,38.87,335.11,50.53,54.71,113,11.1,191.26,65.72,101,70.5,120.89,229.68,105.05,335C1050,1520.35,931.86,1693.46,747.65,1721.13Z"/><g class="cls-8"><g class="cls-6"><path class="cls-7" d="M893.83,1742.15l-5.89,3.43c-133-227.79-245.53-449.95-334.53-660.31C482.2,917,425.82,755.75,385.85,606.16,317.72,351.25,321,216.52,321,215.19l6.81.2c0,1.33-3.21,135.38,64.75,389.49C455.28,839.43,593.17,1227.13,893.83,1742.15Z"/><path class="cls-7" d="M393.24,630.37C220.47,509,149.82,340.68,149.13,339l6.3-2.59c.68,1.67,70.65,168.22,241.73,288.39Z"/><path class="cls-7" d="M565.56,1115.68C345.57,1048.6,222,968.94,157.14,913.92,86.45,854,68.31,810.48,67.57,808.66l6.31-2.56c.18.43,18.54,44.18,88.24,103.12,64.41,54.46,187,133.35,405.43,200Z"/><path class="cls-7" d="M779.63,1549.65c-401.13-27.84-574.55-189.5-576.25-191.13l4.7-4.93c.43.41,45.51,42.18,141.31,86.56,84.36,39.07,227.57,88.6,430.71,102.7Z"/><path class="cls-7" d="M590.81,998A623.51,623.51,0,0,1,545.56,1054l-5-4.59C648,931.38,695.12,784,715.73,681.2c22.35-111.48,19.21-196,19.17-196.83l6.81-.28c0,.85,3.2,86.18-19.3,198.44C704.78,770.5,667.87,890.81,590.81,998Z"/><path class="cls-7" d="M765,1439q-11.14,15.51-23.73,30.64l-5.23-4.36C842.55,1337.42,868,1185.64,870.55,1080.82c2.79-113.66-19.9-198-20.13-198.87l6.57-1.79c.23.85,23.19,86.17,20.37,200.83C875,1178.64,852.9,1316.67,765,1439Z"/></g></g><path class="cls-9" d="M2325.45,2213.11,173,2194.51v55c0,14.94,9.39,27.64,22.1,29.91l608.64,108.4a84.19,84.19,0,0,0,21.84,1l1476.45-123.6c13.19-1.1,23.39-13.85,23.39-29.2Z"/><path class="cls-9" d="M1533.36,2124.89l-1368,100.71c-24.48,1.8-44.38-17.35-44.38-42.77V1164.09c0-25.43,19.9-46,44.38-46l48.4,27.89,1319.64-27.89c20.17,0,36.47,18.63,36.47,41.62v920.92C1569.83,2103.57,1553.53,2123.41,1533.36,2124.89Z"/><path class="cls-7" d="M1555.17,2124.89l-1368,100.71c-24.48,1.8-44.38-17.35-44.38-42.77V1164.09c0-25.43,19.9-46,44.38-46h1368c20.17,0,36.48,18.63,36.48,41.62v920.92C1591.65,2103.57,1575.34,2123.41,1555.17,2124.89Z"/><path class="cls-10" d="M1512.55,2060,238.37,2147.44c-19.92,1.37-36.11-14.34-36.11-35.1V1220.43c0-20.76,16.19-37.66,36.11-37.74l1274.18-5.5c16.64-.07,30.1,15.2,30.1,34.11v812.37C1542.65,2042.57,1529.19,2058.83,1512.55,2060Z"/><g class="cls-6"><polygon class="cls-11" points="690.28 1266.39 346.41 1267.29 346.36 1234.5 690.23 1234.61 690.28 1266.39"/><polygon class="cls-11" points="852.21 1256.9 772.77 1257.04 772.73 1234.64 852.17 1234.66 852.21 1256.9"/><polygon class="cls-11" points="852.25 1287.79 772.82 1288.16 772.78 1265.76 852.22 1265.56 852.25 1287.79"/><polygon class="cls-7" points="1248.12 1285.95 939.94 1287.38 939.91 1265.33 1248.09 1264.54 1248.12 1285.95"/><polygon class="cls-7" points="1298.7 1315.32 993.59 1317.62 993.55 1295.68 1298.67 1294.01 1298.7 1315.32"/><polygon class="cls-7" points="1298.75 1344.92 993.64 1348.1 993.6 1326.16 1298.72 1323.62 1298.75 1344.92"/><polygon class="cls-11" points="1298.8 1374.52 993.68 1378.59 993.65 1356.65 1298.76 1353.22 1298.8 1374.52"/><polygon class="cls-11" points="852.3 1318.68 772.86 1319.28 772.83 1296.88 852.27 1296.45 852.3 1318.68"/><polygon class="cls-11" points="852.35 1349.58 772.91 1350.4 772.88 1328.01 852.31 1327.34 852.35 1349.58"/><polygon class="cls-11" points="852.4 1380.47 772.96 1381.53 772.93 1359.13 852.36 1358.23 852.4 1380.47"/><polygon class="cls-11" points="852.44 1411.36 773.01 1412.65 772.97 1390.25 852.41 1389.13 852.44 1411.36"/><polygon class="cls-11" points="1065.31 1407.91 869.78 1411.08 869.75 1388.88 1065.27 1386.12 1065.31 1407.91"/><polygon class="cls-11" points="852.49 1442.25 773.06 1443.77 773.02 1421.37 852.46 1420.02 852.49 1442.25"/><polygon class="cls-11" points="852.54 1473.15 773.11 1474.89 773.07 1452.49 852.5 1450.91 852.54 1473.15"/><polygon class="cls-11" points="852.59 1504.04 773.15 1506.02 773.12 1483.62 852.55 1481.8 852.59 1504.04"/><polygon class="cls-7" points="1156.96 1436.44 940.18 1440.58 940.14 1418.53 1156.93 1414.84 1156.96 1436.44"/><polygon class="cls-11" points="1269.63 1463.97 993.82 1470.04 993.79 1448.1 1269.6 1442.61 1269.63 1463.97"/><polygon class="cls-11" points="1269.68 1493.66 993.87 1500.52 993.84 1478.58 1269.64 1472.29 1269.68 1493.66"/><polygon class="cls-11" points="852.63 1534.93 773.2 1537.14 773.17 1514.74 852.6 1512.7 852.63 1534.93"/><polygon class="cls-11" points="852.68 1565.82 773.25 1568.26 773.21 1545.86 852.65 1543.59 852.68 1565.82"/><polygon class="cls-11" points="852.73 1596.71 773.3 1599.38 773.26 1576.98 852.7 1574.48 852.73 1596.71"/><polygon class="cls-11" points="852.78 1627.61 773.35 1630.5 773.31 1608.1 852.74 1605.37 852.78 1627.61"/><polygon class="cls-11" points="852.83 1658.5 773.39 1661.63 773.36 1639.22 852.79 1636.27 852.83 1658.5"/><polygon class="cls-11" points="852.87 1689.39 773.44 1692.75 773.41 1670.35 852.84 1667.16 852.87 1689.39"/><polygon class="cls-11" points="852.92 1720.28 773.49 1723.87 773.46 1701.47 852.89 1698.05 852.92 1720.28"/><polygon class="cls-11" points="852.97 1751.18 773.54 1754.99 773.5 1732.59 852.93 1728.94 852.97 1751.18"/><polygon class="cls-11" points="853.02 1782.07 773.59 1786.11 773.55 1763.71 852.98 1759.84 853.02 1782.07"/><polygon class="cls-11" points="853.07 1812.96 773.63 1817.23 773.6 1794.84 853.03 1790.73 853.07 1812.96"/><polygon class="cls-11" points="853.11 1843.85 773.68 1848.36 773.65 1825.96 853.08 1821.62 853.11 1843.85"/><polygon class="cls-11" points="853.16 1874.75 773.73 1879.48 773.7 1857.08 853.13 1852.51 853.16 1874.75"/><polygon class="cls-11" points="853.21 1905.64 773.78 1910.6 773.74 1888.2 853.17 1883.4 853.21 1905.64"/><polygon class="cls-11" points="853.26 1936.53 773.83 1941.72 773.79 1919.32 853.22 1914.3 853.26 1936.53"/><polygon class="cls-11" points="853.3 1967.42 773.87 1972.85 773.84 1950.44 853.27 1945.19 853.3 1967.42"/><polygon class="cls-11" points="853.35 1998.32 773.92 2003.97 773.89 1981.57 853.32 1976.08 853.35 1998.32"/><polygon class="cls-11" points="853.4 2029.21 773.97 2035.09 773.94 2012.69 853.37 2006.97 853.4 2029.21"/><polygon class="cls-11" points="853.45 2060.1 774.02 2066.21 773.98 2043.81 853.41 2037.87 853.45 2060.1"/><polygon class="cls-7" points="1085.65 1256.49 869 1256.87 868.97 1234.67 1085.62 1234.74 1085.65 1256.49"/><polygon class="cls-11" points="1249.04 1880.91 940.89 1900.16 940.85 1878.11 1249.01 1859.5 1249.04 1880.91"/><polygon class="cls-7" points="1299.62 1907.35 994.53 1927.3 994.5 1905.36 1299.59 1886.05 1299.62 1907.35"/><polygon class="cls-7" points="1299.67 1936.95 994.58 1957.78 994.54 1935.84 1299.63 1915.65 1299.67 1936.95"/><polygon class="cls-7" points="1431.18 1957.2 1133.99 1978.35 1133.96 1956.7 1431.15 1936.17 1431.18 1957.2"/><polygon class="cls-11" points="1431.23 1986.42 1134.04 2008.43 1134.01 1986.78 1431.19 1965.39 1431.23 1986.42"/><polygon class="cls-11" points="1431.27 2015.65 1134.09 2038.51 1134.05 2016.86 1431.24 1994.61 1431.27 2015.65"/><polygon class="cls-7" points="1086.58 1860.84 869.95 1873.75 869.92 1851.55 1086.55 1839.09 1086.58 1860.84"/><polygon class="cls-7" points="1248.54 1553.68 940.37 1563.13 940.33 1541.08 1248.5 1532.27 1248.54 1553.68"/><polygon class="cls-11" points="1299.12 1581.73 994.01 1591.97 993.98 1570.03 1299.08 1560.43 1299.12 1581.73"/><polygon class="cls-7" points="1299.16 1611.34 994.06 1622.46 994.03 1600.52 1299.13 1590.03 1299.16 1611.34"/><polygon class="cls-7" points="1299.21 1640.94 994.11 1652.94 994.07 1631 1299.17 1619.63 1299.21 1640.94"/><polygon class="cls-7" points="1065.73 1680.4 870.21 1688.66 870.17 1666.46 1065.69 1658.61 1065.73 1680.4"/><polygon class="cls-11" points="1157.38 1706.55 940.6 1716.33 940.57 1694.28 1157.35 1684.94 1157.38 1706.55"/><polygon class="cls-11" points="1270.04 1731.15 994.25 1744.39 994.21 1722.45 1270.01 1709.78 1270.04 1731.15"/><polygon class="cls-7" points="1270.09 1760.84 994.29 1774.88 994.26 1752.94 1270.06 1739.47 1270.09 1760.84"/><polygon class="cls-7" points="1331.28 1787.23 1058.8 1801.89 1058.77 1780.09 1331.24 1765.99 1331.28 1787.23"/><polygon class="cls-7" points="1331.32 1816.74 1058.85 1832.19 1058.81 1810.38 1331.29 1795.5 1331.32 1816.74"/><polygon class="cls-7" points="1086.07 1528.45 869.43 1534.46 869.39 1512.27 1086.04 1506.7 1086.07 1528.45"/><polygon class="cls-11" points="690.36 1316.05 493.53 1317.46 493.48 1285.1 690.31 1284.27 690.36 1316.05"/><polygon class="cls-11" points="442.62 1317.83 479.69 1317.56 479.64 1285.16 442.57 1285.32 442.62 1317.83"/><polygon class="cls-11" points="690.43 1361.73 493.6 1363.97 493.55 1331.62 690.38 1329.95 690.43 1361.73"/><polygon class="cls-11" points="442.69 1364.55 479.77 1364.13 479.72 1331.73 442.64 1332.05 442.69 1364.55"/><polygon class="cls-11" points="690.5 1407.41 493.68 1410.48 493.63 1378.13 690.45 1375.63 690.5 1407.41"/><polygon class="cls-11" points="442.77 1411.28 479.84 1410.7 479.79 1378.3 442.72 1378.77 442.77 1411.28"/><polygon class="cls-11" points="691 1731.67 347.15 1747.32 347.1 1714.53 690.95 1699.89 691 1731.67"/><polygon class="cls-11" points="691.07 1781.32 494.26 1791.18 494.21 1758.83 691.02 1749.55 691.07 1781.32"/><polygon class="cls-11" points="443.36 1793.73 480.43 1791.87 480.38 1759.48 443.31 1761.23 443.36 1793.73"/><polygon class="cls-11" points="691.14 1827.01 494.33 1837.69 494.29 1805.34 691.1 1795.23 691.14 1827.01"/><polygon class="cls-11" points="443.43 1840.45 480.5 1838.44 480.45 1806.05 443.38 1807.95 443.43 1840.45"/><polygon class="cls-11" points="691.22 1872.69 494.41 1884.2 494.36 1851.85 691.17 1840.91 691.22 1872.69"/><polygon class="cls-11" points="443.5 1887.18 480.57 1885.01 480.52 1852.62 443.45 1854.68 443.5 1887.18"/><polygon class="cls-11" points="690.57 1453.4 346.7 1460.22 346.65 1427.44 690.52 1421.62 690.57 1453.4"/><polygon class="cls-11" points="690.64 1503.06 493.83 1507.86 493.78 1475.51 690.6 1471.28 690.64 1503.06"/><polygon class="cls-11" points="442.92 1509.11 479.99 1508.2 479.94 1475.8 442.87 1476.6 442.92 1509.11"/><polygon class="cls-11" points="690.72 1548.74 493.9 1554.37 493.85 1522.02 690.67 1516.96 690.72 1548.74"/><polygon class="cls-11" points="442.99 1555.83 480.06 1554.77 480.01 1522.37 442.94 1523.33 442.99 1555.83"/><polygon class="cls-11" points="690.86 1640.69 494.04 1648 493.99 1615.64 690.81 1608.91 690.86 1640.69"/><polygon class="cls-11" points="443.14 1649.89 480.2 1648.51 480.15 1616.12 443.09 1617.38 443.14 1649.89"/><polygon class="cls-11" points="690.93 1686.38 494.11 1694.51 494.06 1662.15 690.88 1654.6 690.93 1686.38"/><polygon class="cls-11" points="443.21 1696.61 480.28 1695.08 480.23 1662.68 443.16 1664.11 443.21 1696.61"/><polygon class="cls-11" points="690.79 1594.42 493.97 1600.88 493.92 1568.53 690.74 1562.64 690.79 1594.42"/><polygon class="cls-11" points="443.06 1602.56 480.13 1601.34 480.08 1568.94 443.01 1570.05 443.06 1602.56"/><polygon class="cls-11" points="691.29 1918.35 347.45 1939.92 347.39 1907.13 691.24 1886.58 691.29 1918.35"/><polygon class="cls-11" points="691.36 1968.01 494.56 1981.25 494.51 1948.9 691.31 1936.23 691.36 1968.01"/><polygon class="cls-11" points="443.65 1984.68 480.72 1982.18 480.67 1949.79 443.6 1952.17 443.65 1984.68"/><polygon class="cls-11" points="691.43 2013.69 494.63 2027.76 494.58 1995.41 691.38 1981.91 691.43 2013.69"/><polygon class="cls-11" points="443.73 2031.4 480.79 2028.75 480.74 1996.36 443.68 1998.9 443.73 2031.4"/><polygon class="cls-11" points="691.5 2059.37 494.7 2074.27 494.65 2041.92 691.46 2027.59 691.5 2059.37"/><polygon class="cls-11" points="443.8 2078.13 480.87 2075.32 480.81 2042.92 443.75 2045.62 443.8 2078.13"/><polygon class="cls-11" points="733.29 2056.37 725.71 2056.94 724.44 1234.62 732.02 1234.63 733.29 2056.37"/></g><path class="cls-7" d="M919.47,1145.91c0,9.47-7,17.16-15.74,17.19S888,1155.46,888,1146s7.07-17.18,15.77-17.19S919.47,1136.44,919.47,1145.91Z"/><path class="cls-12" d="M187.13,2225.6l1361.12-100.2,6.92-.51c9.26-.68,17.67-5.25,24.1-12.19-98-5.36-158.79-40.12-198-76-78.81-72.12-65.14-143.25-150.13-190.67-106-59.15-189.35,15.8-269.79-58.15-48.77-44.84-24.83-78.27-84.84-145.27-66.46-74.2-109.73-49.26-176.52-116-84.46-84.45-42.22-150.15-115-210.78-88.25-73.55-183.43-5.47-267.44-76-36.23-30.42-56.12-74.66-66.5-121.7H187.13c-24.48,0-44.38,20.62-44.38,46V2182.83C142.75,2208.25,162.65,2227.4,187.13,2225.6Z"/><path class="cls-13" d="M1619.63,2119.31,173,2225.31l630.74,112.34a84.19,84.19,0,0,0,21.84,1l1499.84-125.56L1642.64,2120A110.7,110.7,0,0,0,1619.63,2119.31Z"/><polygon class="cls-10" points="384.11 2226.22 1588.45 2136.66 1961.18 2187.06 767.22 2282.8 384.11 2226.22"/><path class="cls-14" d="M1762.17,515.75,516.59,474.82c-41.77-1.38-75.78,31.57-75.78,73.6v1214c0,42,34,74.64,75.78,72.86l1245.58-53.19c36-1.54,65.12-34.23,65.12-73V588.14C1827.29,549.34,1798.2,516.93,1762.17,515.75Z"/><path class="cls-15" d="M516.59,1811.08a49.13,49.13,0,0,1-51.51-49.59V549.11A49.73,49.73,0,0,1,516.59,499l1245.58,39.26c24.54.77,44.38,22.83,44.38,49.28v1122.3c0,26.45-19.84,48.71-44.38,49.72Z"/><path class="cls-16" d="M1762.17,515.75,516.59,474.82c-41.77-1.38-75.78,31.57-75.78,73.6V603l1386.48,35.54v-50.4C1827.29,549.34,1798.2,516.93,1762.17,515.75Z"/><path class="cls-7" d="M575.54,545A23.84,23.84,0,0,1,551,569a25.57,25.57,0,0,1-24.64-25.47,23.84,23.84,0,0,1,24.64-24A25.57,25.57,0,0,1,575.54,545Z"/><path class="cls-7" d="M661.29,547.45A23.67,23.67,0,0,1,637,571.38,25.37,25.37,0,0,1,612.56,546,23.66,23.66,0,0,1,637,522.11,25.39,25.39,0,0,1,661.29,547.45Z"/><path class="cls-7" d="M746.23,549.92a23.5,23.5,0,0,1-24.1,23.82A25.2,25.2,0,0,1,698,548.52a23.5,23.5,0,0,1,24.17-23.82A25.21,25.21,0,0,1,746.23,549.92Z"/><polygon class="cls-7" points="1187.05 754.9 529.14 743.07 529.14 781.76 1187.05 792.17 1187.05 754.9"/><polygon class="cls-7" points="1681.68 763.79 1681.68 799.99 1751.28 801.1 1751.28 765.04 1681.68 763.79"/><g class="cls-6"><polygon class="cls-7" points="668.23 876.38 529.14 874.9 529.14 835.01 668.23 836.8 668.23 876.38"/><polygon class="cls-7" points="1411.29 884.29 757.02 877.33 757.02 837.94 1411.29 846.36 1411.29 884.29"/><polygon class="cls-7" points="892.63 945.53 757.02 944.6 757.02 905.22 892.63 906.45 892.63 945.53"/><polygon class="cls-7" points="1617.5 950.5 979.21 946.13 979.21 907.23 1617.5 913.03 1617.5 950.5"/><polygon class="cls-7" points="892.63 1012.29 757.02 1011.88 757.02 972.49 892.63 973.21 892.63 1012.29"/><polygon class="cls-7" points="1617.5 1014.52 979.21 1012.56 979.21 973.67 1617.5 977.04 1617.5 1014.52"/><polygon class="cls-7" points="668.23 1079.22 529.14 1079.32 529.14 1039.43 668.23 1039.63 668.23 1079.22"/><polygon class="cls-7" points="1411.29 1078.69 757.02 1079.15 757.02 1039.77 1411.29 1040.75 1411.29 1078.69"/><polygon class="cls-7" points="892.63 1145.82 757.02 1146.43 757.02 1107.04 892.63 1106.73 892.63 1145.82"/><polygon class="cls-7" points="1617.5 1142.56 979.21 1145.43 979.21 1106.54 1617.5 1105.08 1617.5 1142.56"/><polygon class="cls-7" points="892.63 1212.58 757.02 1213.7 757.02 1174.32 892.63 1173.5 892.63 1212.58"/><polygon class="cls-7" points="1617.5 1206.57 979.21 1211.86 979.21 1172.97 1617.5 1169.1 1617.5 1206.57"/><polygon class="cls-7" points="892.63 1279.34 757.02 1280.98 757.02 1241.6 892.63 1240.26 892.63 1279.34"/><polygon class="cls-7" points="1617.5 1270.59 979.21 1278.3 979.21 1239.41 1617.5 1233.11 1617.5 1270.59"/><polygon class="cls-7" points="1113.51 1342.6 981.3 1344.7 981.3 1305.81 1113.51 1304.01 1113.51 1342.6"/><polygon class="cls-7" points="1716.55 1333.04 1197.94 1341.26 1197.94 1302.86 1716.55 1295.78 1716.55 1333.04"/><polygon class="cls-7" points="668.23 1417.28 529.14 1420.01 529.14 1380.12 668.23 1377.7 668.23 1417.28"/><polygon class="cls-7" points="1411.29 1402.68 757.02 1415.53 757.02 1376.15 1411.29 1364.74 1411.29 1402.68"/><polygon class="cls-7" points="892.63 1479.63 757.02 1482.81 757.02 1443.42 892.63 1440.55 892.63 1479.63"/><polygon class="cls-7" points="1617.5 1462.64 979.21 1477.6 979.21 1438.71 1617.5 1425.16 1617.5 1462.64"/><polygon class="cls-7" points="892.63 1546.39 757.02 1550.09 757.02 1510.7 892.63 1507.31 892.63 1546.39"/><polygon class="cls-7" points="1617.5 1526.66 979.21 1544.04 979.21 1505.14 1617.5 1489.18 1617.5 1526.66"/><polygon class="cls-7" points="668.23 1620.11 529.14 1624.43 529.14 1584.54 668.23 1580.53 668.23 1620.11"/><polygon class="cls-7" points="1411.29 1597.07 757.02 1617.36 757.02 1577.98 1411.29 1559.14 1411.29 1597.07"/><polygon class="cls-7" points="892.63 1679.92 757.02 1684.64 757.02 1645.25 892.63 1640.83 892.63 1679.92"/><polygon class="cls-7" points="1617.5 1654.69 979.21 1676.9 979.21 1638.01 1617.5 1617.22 1617.5 1654.69"/></g><g class="cls-17"><path class="cls-7" d="M1278,982.45C1132.52,770.76,880.71,838.11,721.41,604.21a511.81,511.81,0,0,1-61.59-124.69l-143.23-4.7c-41.77-1.38-75.78,31.57-75.78,73.6v1214c0,42,34,74.64,75.78,72.86l1200-51.24c-27.49-39.65-266.91-186.5-328.76-412C1331.23,1165.88,1365.78,1110.17,1278,982.45Z"/></g><rect class="cls-18" x="684.68" y="1808.38" width="24.76" height="267.81"/><path class="cls-18" d="M588.61,2081.35h216.9v-11.51a4.61,4.61,0,0,0-4.6-4.61H593.57a5,5,0,0,0-5,5Z"/><rect class="cls-18" x="547.59" y="1744.6" width="289.83" height="82.2" rx="28.3"/><path class="cls-19" d="M835,2028.75s70.72,51,58.44,85.21c0,0-77.37-33.38-86.72-59.68s1.58-37.91,1.58-37.91Z"/><path class="cls-20" d="M824.37,1986l-11.57,33.43a11.63,11.63,0,0,0,4.52,13.64,30.59,30.59,0,0,0,9.56,3.7,13.55,13.55,0,0,0,15-6.79l13.83-26Z"/><path class="cls-21" d="M711.84,1685.15s145.25,25.17,207.55,82.73S862.21,2009,862.21,2009s-19.58-.12-43.31-20.45c0,0,70.85-138.09,9.79-178.35C760,1765,680.93,1754.76,680.93,1754.76l29.5-65.18Z"/><path class="cls-22" d="M881.14,2095c-15.55-7.2-59.58-38-67-39.38s-20.29,7.37-20.29,7.37-3.14,5.63.21,15.45c10.34,12.51,33.29,36.35,64.14,45.23,22.69,6.54,38.56.44,48.45-6.68A65.57,65.57,0,0,0,881.14,2095Z"/><path class="cls-23" d="M858.19,2123.69c-30.85-8.88-53.8-32.72-64.14-45.23,2.27,6.64,7.49,15.19,18.64,25.21,27.66,24.86,80.49,33.83,91.74,32.1,9-1.38,8.16-9.7,2.21-18.76C896.75,2124.13,880.88,2130.23,858.19,2123.69Z"/><path class="cls-24" d="M780.65,2041.25c.17,4.29,8.93,19,14.05,27.23a13.32,13.32,0,0,0,11.3,6.32,34.59,34.59,0,0,0,9.35-1.12,8.66,8.66,0,0,0,5.81-10.78l-10-34.15Z"/><path class="cls-25" d="M572,1641.55s-32.25,86.25,0,112.48,109.21,55.76,126.4,108,46.37,153.78,85.4,189.73c0,0,27.43-2.65,37.7-13.58,0,0-22.24-151.58-36.9-190.47-12.7-33.68-31.41-82.3-67.27-109.47-10.26-7.78-8.47-20.1-3.71-32.06l8.66-21.8Z"/><path class="cls-26" d="M908.45,1573.94c-54.09,3.27-37.23-83.14-36.26-86.58l-82.09,58s4.35,46.21,72.6,70.45c17.26,6.13,33,6.4,47,3.4A74.67,74.67,0,0,1,908.45,1573.94Z"/><path class="cls-27" d="M1013,1547.94c-20.16-14-43,0-43,0-26.95,17.62-46.88,25.12-61.59,26a74.67,74.67,0,0,0,1.25,45.25c30.19-6.48,51.79-28.33,61.17-39.54a9.75,9.75,0,0,1,13.5-1.48c4.19,3.31,8.27,7.85,7.53,12.63-1.46,9.42,9.47,12.41,10.3,9s-3.74-23.66-3.74-23.66,21.86,22,30.39,30.42,19.26,0,19.26,0S1033.18,1562,1013,1547.94Z"/><path class="cls-28" d="M656.25,1353.92s78.69-31.51,225.13,89.39c0,0,12.23,25.32-1.12,47.85s-140.48,132.34-158,193.23c0,0-75.74,24.62-154.08-33.75C568.22,1650.64,575.14,1481.17,656.25,1353.92Z"/><path class="cls-29" d="M811.81,1325.8l-38.74,47a15.42,15.42,0,0,0-2,16.57c5.37,11,18.13,26.94,46.42,24.73A23.78,23.78,0,0,0,837,1400.73l27.08-56Z"/><path class="cls-30" d="M595.33,1555c-9.13-37.2,83.39-120.14,83.39-120.14l-22.47-81s-199.79,133-148.87,240c7.3,15.33,17,26.07,28.23,33.25C551.7,1583.83,577.33,1564,595.33,1555Z"/><path class="cls-31" d="M595.27,1549.62a2.19,2.19,0,0,1-2.12-1.67c-9.34-38,80.23-118.86,84.05-122.29a2.19,2.19,0,0,1,2.92,3.26c-.91.82-91.45,82.48-82.73,118a2.18,2.18,0,0,1-1.6,2.64A1.86,1.86,0,0,1,595.27,1549.62Z"/><path class="cls-32" d="M735.47,1551.83s-109.7,42.59-136.47,10.55a18,18,0,0,1-3.67-7.35c-18,8.94-43.63,28.8-59.72,72.1,57.69,36.87,156.31-20.51,183-37.42a19.93,19.93,0,0,1,14.73-2.71c10.29,2.14,28,5.27,37.64,3.8,14-2.16,34.15,47.29,56.87,32C827.83,1622.83,808.37,1536.88,735.47,1551.83Z"/><path class="cls-33" d="M896.09,1256.83C896.48,1258.34,887,1361,887,1361l-58.5-6.66L823,1255.71S889.57,1231.55,896.09,1256.83Z"/><path class="cls-34" d="M838.27,1276.15l-1.18,52.14a7.27,7.27,0,0,0,.22,2c1,4,5.52,17.35,18.94,11.91,12.17-4.94,23.35-9.26,31.57-7.7a7.27,7.27,0,0,1,5.9,7.82c-.86,9.33-3.19,30.31-8,48.23a7.27,7.27,0,0,1-8.3,5.23c-11.17-2-34.62-6.78-52.57-15.07a7.27,7.27,0,0,1-4.25-6.13c-.88-13-3.69-52.64-6.18-63.55-2.33-10.25-15.75-15.07-21.53-16.69a7.17,7.17,0,0,1-4.4-3.54c-3.26-6.14-8.43-20.61,9.63-28.75a7.3,7.3,0,0,0,3.56-9.89c-3.62-7.41-6.08-19.07,7.69-27.15,14-8.21,25.86-1.57,32.49,4.16a7.31,7.31,0,0,0,9.36.07c1.57-1.25,3.72-1.85,6.54-.49a7.19,7.19,0,0,0,9.77-4.17c2.73-7.62,9.06-16.17,23.75-15.28,26.06,1.57,32.06,29.6,27.14,47s-33.08,14-47.78,7.18c-11.17-5.22-24,2.94-29.54,7.16A7.21,7.21,0,0,0,838.27,1276.15Z"/><path class="cls-35" d="M814.18,1330s7.29-30.6-4.31-36.63-27.18-.52-21.32,20.42C795.85,1339.83,814.18,1330,814.18,1330Z"/><path class="cls-36" d="M791.67,1635.82h.53l230.17-.25a10.31,10.31,0,0,0,0-20.61l-230.16.26a10.3,10.3,0,0,0-.51,20.59Z"/><path class="cls-37" d="M1229.27,1426.84H1037.59a36.53,36.53,0,0,0-33,21l-88.62,187.9h238.22a22.18,22.18,0,0,0,20.64-14l68.72-173.87A15.31,15.31,0,0,0,1229.27,1426.84Z"/><path class="cls-18" d="M1094.23,1523.19c-4.15,12.9-1.08,25.43,6.86,28s17.74-5.84,21.89-18.74,1.09-25.44-6.85-28S1098.39,1510.28,1094.23,1523.19Z"/><path class="cls-18" d="M1198.2,2129.48a10,10,0,0,0,3.82-.77,9.26,9.26,0,0,0,5.06-12.3l-202.85-456.53a9.8,9.8,0,0,0-12.71-4.9,9.26,9.26,0,0,0-5.06,12.3l202.85,456.53A9.69,9.69,0,0,0,1198.2,2129.48Z"/><path class="cls-18" d="M969.68,2129.48a9.69,9.69,0,0,0,8.89-5.67l202.85-456.53a9.26,9.26,0,0,0-5.06-12.3,9.8,9.8,0,0,0-12.71,4.9L960.8,2116.41a9.26,9.26,0,0,0,5.06,12.3A10,10,0,0,0,969.68,2129.48Z"/><path class="cls-18" d="M570.3,2129.48a9.86,9.86,0,0,0,3.81-.77,9.25,9.25,0,0,0,5.07-12.3L376.33,1659.88a9.8,9.8,0,0,0-12.71-4.9,9.26,9.26,0,0,0-5.06,12.3l202.85,456.53A9.69,9.69,0,0,0,570.3,2129.48Z"/><path class="cls-18" d="M341.78,2129.48a9.69,9.69,0,0,0,8.89-5.67l202.85-456.53a9.26,9.26,0,0,0-5.06-12.3,9.8,9.8,0,0,0-12.71,4.9L332.9,2116.41a9.26,9.26,0,0,0,5.06,12.3A10,10,0,0,0,341.78,2129.48Z"/><path class="cls-38" d="M318,1645.79a11.15,11.15,0,0,1,1.92-8.45,8.78,8.78,0,0,1,7-3.71h922.81a10.28,10.28,0,0,1,8.85,5.42,13,13,0,0,1,.68,11.27l-10,24.23c-2.29,5.55-7.25,9.1-12.71,9.1H333.28c-5.08,0-9.44-4-10.41-9.61Z"/></g></g></svg>