<svg xmlns="http://www.w3.org/2000/svg" viewBox="0 0 837.22 837.22"><defs><style>.cls-1{fill:none;stroke:#2ecb71;stroke-linecap:round;stroke-miterlimit:10;stroke-width:8.06px;stroke-dasharray:30.29 30.29;}.cls-2{fill:#0d69d5;}.cls-3{fill:#3498da;}.cls-4{fill:#094b8c;}.cls-5{fill:#f6f6f6;}</style></defs><title>shape</title><g id="Layer_2" data-name="Layer 2"><g id="Layer_1-2" data-name="Layer 1"><g id="orbit"><circle class="cls-1" cx="418.61" cy="418.61" r="414.58"/></g><circle id="bgCircle" class="cls-2" cx="418.61" cy="418.61" r="372.03"/><g id="brain"><path class="cls-3" d="M204,454.52c-.42,22.26,9.77,42.82,27.26,55,4.37,3,17.43,11.22,31.43,11.22a33.2,33.2,0,0,0,5.93-.54c-1.64,11.91,1.48,25,8.77,37C289.49,577,306.2,591,323.21,595.62a91,91,0,0,0,23.73,3.25c13.86,0,26.57-3.5,36.16-10.26,8.51-6,15.92-21,15.4-31V525.83a3.45,3.45,0,0,0,0-1.66V374.27h0v-131a1.5,1.5,0,0,0,0-.22c0-12-7.3-23.91-18.92-30.61-12.56-7.24-26.73-7.16-36.41-5.82-15.95,2.22-29.81,9.13-39,19.48-9.61,10.77-13.73,25.36-11.12,38.28-19.19-3.11-39.55,3.09-54.73,17.07-16.34,15-23.41,36.34-18.93,57,2.52,11.61,9.29,21.33,18.43,26.76a41.3,41.3,0,0,0-6.43,16.74,43.29,43.29,0,0,0,1.21,19.33C215.06,412.75,204.39,432.6,204,454.52Z"/><path class="cls-4" d="M604.69,433.7a43.29,43.29,0,0,0,1.21-19.33,41.45,41.45,0,0,0-6.43-16.74c9.14-5.43,15.91-15.15,18.43-26.76,4.48-20.64-2.6-41.94-18.93-57-15.18-14-35.54-20.18-54.73-17.07,2.61-12.93-1.51-27.51-11.12-38.28-9.24-10.35-23.11-17.27-39.06-19.48-9.67-1.34-23.84-1.43-36.4,5.82-11.62,6.7-18.91,18.59-18.92,30.61a1.5,1.5,0,0,0,0,.22v131h0V556.64a3.49,3.49,0,0,0,0,1.67v31.77c-.52,10,6.89,25,15.4,31,9.59,6.76,22.3,10.25,36.16,10.25A91.09,91.09,0,0,0,514,628.1c17-4.59,33.72-18.61,45.85-38.45,7.29-11.93,10.41-25,8.77-37a33.12,33.12,0,0,0,5.93.54c14,0,27.06-8.18,31.43-11.22,17.49-12.19,27.68-32.75,27.25-55C632.83,465.08,622.16,445.23,604.69,433.7Z"/><path class="cls-5" d="M414.16,543.32a3.87,3.87,0,0,0,0-1.76V391.72h0v-131a1.5,1.5,0,0,0,0-.22c0-12.15-7.38-24.16-19.11-30.93-12.64-7.29-26.9-7.21-36.63-5.86-16,2.23-30,9.19-39.27,19.6-9.56,10.71-13.74,25.17-11.31,38.08-19.16-2.93-39.4,3.31-54.52,17.24-16.43,15.13-23.55,36.56-19,57.33,2.51,11.57,9.21,21.29,18.27,26.81a41.7,41.7,0,0,0-6.28,16.55,43.94,43.94,0,0,0,1.13,19.24C230,430.15,219.33,450,218.91,472c-.43,22.38,9.82,43.06,27.41,55.31,4.39,3.07,17.53,11.29,31.64,11.29a33.24,33.24,0,0,0,5.52-.45C282,550,285.11,563,292.35,574.8c12.17,19.93,29,34,46.06,38.62a91.37,91.37,0,0,0,23.82,3.26c13.94,0,26.72-3.52,36.38-10.32,8.59-6.05,16.07-21.17,15.55-31.31V543.32ZM394,599.78c-13.06,9.2-33.05,11.4-53.47,5.88-15.13-4.09-30.19-16.86-41.3-35-6.38-10.42-9.11-21.76-7.72-31.92,1.55-11.23,8.54-21.05,17.81-25l.1-.06a35.32,35.32,0,0,0,7.59,4.46,36.43,36.43,0,0,0,14.18,2.82A37.21,37.21,0,0,0,352,514.65a4,4,0,0,0-4.51-6.66A28.63,28.63,0,0,1,312,463.18a4,4,0,0,0-5.43-5.93,37.55,37.55,0,0,0-11.4,33.24,36.9,36.9,0,0,0,8.07,17.2c-8.06,4.44-14.45,12.32-17.72,21.63-11.1,3.65-25.09-2-34.64-8.65-15.38-10.71-24.34-28.86-24-48.56.36-18.76,9.16-35.77,23.66-46a32.64,32.64,0,0,0,18.17,15.26,28.4,28.4,0,0,0,8.66,1.35,26.65,26.65,0,0,0,17-5.93,4,4,0,0,0-5.13-6.2,19.52,19.52,0,0,1-18.06,3.12,25.18,25.18,0,0,1-14.39-12.94,34.19,34.19,0,0,1-2.64-20.19c1.29-8.11,5.15-15.21,10.59-19.47,5.91-4.63,13.94-5.84,20-3a4,4,0,1,0,3.42-7.27c-8.72-4.11-20.11-2.52-28.36,3.94-.68.53-1.33,1.12-2,1.72-7.76-4.22-13.59-12.35-15.74-22.25-4-18.22,2.11-36.34,16.62-49.7,13.91-12.81,32.66-18.23,50.05-14.8a25.67,25.67,0,0,0-.08,25.38,4,4,0,0,0,3.47,2,4,4,0,0,0,2-.56,4,4,0,0,0,1.43-5.5,17,17,0,0,1,23.84-22.89,4,4,0,1,0,4.36-6.76,25.67,25.67,0,0,0-27.7.42c-2.83-10.94.58-23.74,9-33.16,8-9,20.23-15,34.38-17,8.48-1.17,20.83-1.29,31.51,4.87,9.47,5.46,15.53,15.52,15.08,25a3.39,3.39,0,0,0,0,.45v54.56c-8.85,1.83-17.64,1.17-25-2-8.5-3.64-15.14-10.92-17.35-19-2.33-8.51.45-18.08,6.74-23.28a4,4,0,1,0-5.12-6.2c-8.79,7.26-12.56,20-9.38,31.6,2.88,10.55,11.08,19.62,21.94,24.27a47.11,47.11,0,0,0,18.57,3.65,54.85,54.85,0,0,0,9.57-.87v66.17c-4.17,9.4-15.88,16.53-26,15.67s-19.22-8.65-21.85-18.35a36.93,36.93,0,0,0,9-14.57,37.86,37.86,0,0,0-9.82-38.6A4,4,0,1,0,352,340.9a29.18,29.18,0,1,1-44.65,36.89,4,4,0,1,0-6.78,4.32,38,38,0,0,0,31.63,17.2,35.57,35.57,0,0,0,19.4-5.72,33.63,33.63,0,0,0,27.87,21c.76.07,1.53.1,2.3.1,8.7,0,17.78-4.05,24.36-10.31V532.55c-9.82-7.35-23.55-9.7-35-5.12-14.73,5.9-24.34,22.81-21.87,38.49a4,4,0,0,0,4,3.4,4.46,4.46,0,0,0,.63-.05,4,4,0,0,0,3.34-4.6c-1.91-12.13,5.52-25.21,16.92-29.78,11-4.4,24.74-.53,32,8.78V575a.59.59,0,0,0,0,.13c0,.05,0,.09,0,.14C406.58,582,401,594.87,394,599.78Z"/><path class="cls-5" d="M365.45,481.58a30.55,30.55,0,0,0,24.48-49.14,4,4,0,1,0-6.38,4.89,22.52,22.52,0,1,1-39.25,20.75,4,4,0,1,0-7.64,2.52,31.37,31.37,0,0,0,26.18,20.86Q364.15,481.58,365.45,481.58Z"/><path class="cls-5" d="M590.32,418.52a43.79,43.79,0,0,0,1.14-19.24,41.85,41.85,0,0,0-6.28-16.55c9.06-5.52,15.76-15.24,18.27-26.81,4.51-20.77-2.6-42.2-19-57.33-15.13-13.93-35.37-20.17-54.52-17.24,2.42-12.91-1.75-27.37-11.31-38.08-9.29-10.41-23.24-17.37-39.27-19.6-9.73-1.35-24-1.43-36.64,5.86-11.73,6.77-19.09,18.78-19.1,30.93a1.46,1.46,0,0,0,0,.22v131h0V541.56a4.18,4.18,0,0,0,0,1.76v31.73c-.52,10.14,7,25.26,15.55,31.31,9.66,6.8,22.43,10.32,36.38,10.32a91.8,91.8,0,0,0,23.82-3.26c17.09-4.62,33.88-18.69,46.06-38.62,7.23-11.83,10.36-24.83,8.86-36.69a33.44,33.44,0,0,0,5.53.45c14.1,0,27.25-8.22,31.64-11.29C609,515,619.23,494.34,618.81,472,618.39,450,607.76,430.15,590.32,418.52ZM586.8,520.67c-9.54,6.65-23.53,12.3-34.63,8.65-3.27-9.31-9.66-17.19-17.72-21.63a36.88,36.88,0,0,0,8.06-17.2,37.52,37.52,0,0,0-11.39-33.24,4,4,0,1,0-5.43,5.93A28.63,28.63,0,0,1,490.27,508a4,4,0,0,0-4.52,6.66,37.26,37.26,0,0,0,20.79,6.23,36.36,36.36,0,0,0,14.18-2.82,35.5,35.5,0,0,0,7.59-4.46l.11.06c9.27,4,16.26,13.8,17.8,25,1.4,10.16-1.34,21.5-7.71,31.92-11.11,18.19-26.17,31-41.3,35-20.42,5.52-40.41,3.32-53.47-5.88-7-4.91-12.6-17.79-12.15-24.49,0,0,0-.09,0-.14s0-.09,0-.13V543.67c7.25-9.31,21-13.18,32-8.78,11.4,4.57,18.83,17.65,16.92,29.78a4,4,0,0,0,3.35,4.6,4.46,4.46,0,0,0,.63.05,4,4,0,0,0,4-3.4c2.47-15.68-7.14-32.59-21.88-38.49-11.41-4.58-25.14-2.23-35,5.12V404.38c6.59,6.26,15.66,10.31,24.37,10.31.77,0,1.54,0,2.3-.1a33.6,33.6,0,0,0,27.86-21,35.57,35.57,0,0,0,19.41,5.72,38,38,0,0,0,31.62-17.2,4,4,0,0,0-6.78-4.32,29.18,29.18,0,1,1-44.64-36.89,4,4,0,1,0-5.52-5.84,37.84,37.84,0,0,0-9.82,38.6,36.72,36.72,0,0,0,9,14.56c-2.63,9.71-11.82,17.51-21.85,18.36s-21.82-6.27-26-15.67V324.74a55,55,0,0,0,9.58.87A47,47,0,0,0,459.73,322c10.86-4.65,19.07-13.72,21.95-24.27,3.18-11.64-.59-24.34-9.39-31.6a4,4,0,0,0-5.12,6.2c6.3,5.2,9.07,14.77,6.75,23.28-2.21,8.08-8.86,15.36-17.35,19-7.33,3.14-16.13,3.8-25,2V262a3.4,3.4,0,0,0,0-.45c-.45-9.51,5.61-19.57,15.08-25,10.67-6.16,23-6,31.51-4.87,14.15,2,26.36,8,34.38,17,8.41,9.42,11.82,22.22,9,33.16a25.69,25.69,0,0,0-27.7-.42,4,4,0,0,0,4.35,6.76A17,17,0,0,1,522.08,311a4,4,0,0,0,1.43,5.5,4,4,0,0,0,2,.56,4,4,0,0,0,3.47-2,25.64,25.64,0,0,0-.09-25.38c17.4-3.43,36.15,2,50.05,14.8,14.52,13.36,20.58,31.48,16.62,49.7-2.15,9.9-8,18-15.74,22.25-.64-.6-1.28-1.19-2-1.72-8.25-6.46-19.65-8-28.36-3.94a4,4,0,1,0,3.42,7.27c6-2.84,14.06-1.63,20,3,5.44,4.26,9.3,11.36,10.59,19.47a34.26,34.26,0,0,1-2.64,20.19,25.16,25.16,0,0,1-14.4,12.94c-6.26,2-13.35.78-18.05-3.12a4,4,0,0,0-5.13,6.2,26.63,26.63,0,0,0,17,5.93,28.31,28.31,0,0,0,8.66-1.35,32.63,32.63,0,0,0,18.18-15.26c14.5,10.27,23.3,27.28,23.66,46C611.14,491.81,602.18,510,586.8,520.67Z"/><path class="cls-5" d="M498.5,455.52a4,4,0,0,0-5.08,2.56,22.52,22.52,0,1,1-39.25-20.75,4,4,0,1,0-6.38-4.89,30.55,30.55,0,0,0,24.48,49.14q1.31,0,2.61-.12a31.38,31.38,0,0,0,26.18-20.86A4,4,0,0,0,498.5,455.52Z"/></g></g></g></svg>