<?xml version="1.0" standalone="no"?>
<!DOCTYPE svg PUBLIC "-//W3C//DTD SVG 20010904//EN"
 "http://www.w3.org/TR/2001/REC-SVG-20010904/DTD/svg10.dtd">
<svg version="1.0" xmlns="http://www.w3.org/2000/svg"
 width="516.000000pt" height="516.000000pt" viewBox="0 0 516.000000 516.000000"
 preserveAspectRatio="xMidYMid meet">
<metadata>
Created by potrace 1.14, written by Peter Selinger 2001-2017
</metadata>
<g transform="translate(0.000000,516.000000) scale(0.100000,-0.100000)"
fill="#000000" stroke="none">
<path d="M2429 5156 c-2 -2 -35 -6 -74 -9 -113 -10 -199 -23 -335 -53 -482
-104 -895 -328 -1240 -673 -154 -154 -237 -255 -349 -422 -236 -351 -382 -753
-418 -1153 -14 -146 -5 -587 11 -616 2 -3 6 -28 10 -55 6 -52 33 -186 60 -290
22 -89 87 -267 135 -368 22 -49 41 -90 41 -92 0 -8 89 -159 138 -235 295 -454
729 -813 1215 -1003 219 -86 405 -134 657 -168 131 -18 185 -20 350 -15 107 3
209 8 225 10 17 3 50 7 75 11 135 19 193 31 326 65 141 37 263 84 436 166 175
83 213 87 383 40 71 -20 44 -13 280 -76 105 -27 206 -55 225 -60 159 -45 348
-90 380 -90 81 0 143 55 153 135 5 39 -2 71 -83 380 -18 66 -33 128 -35 137
-2 9 -28 108 -59 220 -30 112 -69 257 -87 323 -17 66 -37 132 -45 146 -21 42
-80 87 -121 94 -21 3 -49 8 -63 11 -77 17 -138 -14 -160 -80 -13 -40 -13 -38
80 -386 107 -400 142 -541 138 -545 -4 -4 -81 15 -498 127 -325 87 -344 90
-400 83 -25 -4 -112 -39 -195 -80 -265 -129 -368 -165 -590 -210 -518 -104
-1099 1 -1560 284 -191 117 -423 317 -541 466 -21 27 -45 56 -52 64 -20 20
-122 175 -170 256 -95 161 -212 468 -238 625 -3 14 -7 36 -9 50 -11 52 -21
123 -31 210 -6 51 -6 347 0 410 41 429 180 779 444 1120 82 105 301 326 404
407 311 246 597 368 1028 440 60 10 467 10 550 0 514 -60 933 -255 1274 -591
241 -237 444 -546 545 -831 18 -49 36 -101 41 -115 19 -53 54 -208 65 -285 3
-16 9 -59 14 -95 12 -84 12 -429 0 -500 -15 -88 -24 -171 -24 -222 0 -38 5
-52 29 -77 17 -17 34 -31 39 -31 5 0 29 -14 53 -32 109 -78 235 -14 259 132 4
25 9 52 10 60 2 8 6 40 9 70 4 30 10 80 15 110 11 69 12 381 1 441 -4 24 -11
71 -14 104 -4 33 -9 67 -11 75 -2 8 -6 37 -10 64 -14 114 -82 351 -147 516
-48 119 -142 308 -187 376 -17 25 -31 47 -31 50 0 5 -47 75 -77 114 -93 121
-156 194 -252 290 -176 176 -282 260 -526 415 -70 45 -189 106 -319 165 -150
67 -383 136 -556 164 -52 8 -111 18 -130 21 -37 7 -455 16 -461 11z"/>
<path d="M2395 4498 c-570 -66 -1052 -349 -1372 -803 -150 -213 -277 -514
-308 -731 -3 -21 -8 -44 -10 -51 -12 -35 -20 -178 -19 -333 1 -252 32 -412
129 -680 27 -73 122 -252 181 -341 191 -287 459 -520 759 -663 156 -74 349
-137 490 -160 38 -6 132 -19 165 -22 40 -5 311 -4 350 1 104 12 132 16 204 31
420 85 802 316 1085 658 93 112 162 220 236 371 140 284 197 547 190 875 -2
96 -6 184 -8 195 -3 11 -8 40 -11 65 -27 180 -109 421 -199 590 -184 342 -480
632 -822 802 -135 68 -338 140 -455 162 -14 3 -47 9 -75 14 -122 24 -388 34
-510 20z"/>
</g>
</svg>
