<svg xmlns="http://www.w3.org/2000/svg" viewBox="0 0 280 280"><defs><style>.cls-1{fill:#0d69d5;}</style></defs><title>blocks</title><g id="Layer_2" data-name="Layer 2"><g id="Layer_1-2" data-name="Layer 1"><rect class="cls-1" width="134.57" height="134.57" rx="20.77"/><rect class="cls-1" y="145.43" width="134.57" height="134.57" rx="20.77"/><path class="cls-1" d="M259.23,10A10.78,10.78,0,0,1,270,20.77v93a10.78,10.78,0,0,1-10.77,10.77h-93a10.78,10.78,0,0,1-10.77-10.77v-93A10.78,10.78,0,0,1,166.2,10h93m0-10h-93a20.77,20.77,0,0,0-20.77,20.77v93a20.77,20.77,0,0,0,20.77,20.77h93A20.77,20.77,0,0,0,280,113.8v-93A20.77,20.77,0,0,0,259.23,0Z"/><rect class="cls-1" x="145.43" y="145.43" width="134.57" height="134.57" rx="20.77"/></g></g></svg>