<svg xmlns="http://www.w3.org/2000/svg" viewBox="0 0 227 236"><defs><style>.cls-1{fill:#0d69d5;}</style></defs><title>sort</title><g id="Layer_2" data-name="Layer 2"><g id="Layer_1-2" data-name="Layer 1"><path class="cls-1" d="M223.23,46.91,160,1.28c-5-3.63-11.32.91-11.32,8.17V30.22H19.94c-4.17,0-7.55,4.23-7.55,9.44V70.51c0,5.21,3.38,9.43,7.55,9.43H148.71v20.78c0,7.26,6.29,11.8,11.32,8.17l63.2-45.63C228.26,59.62,228.26,50.54,223.23,46.91Z"/><path class="cls-1" d="M207.06,156.06H78.29V135.28c0-7.26-6.28-11.8-11.32-8.17L3.77,172.74c-5,3.64-5,12.72,0,16.35L67,234.72c5,3.63,11.32-.91,11.32-8.17V205.78H207.06c4.17,0,7.55-4.23,7.55-9.44V165.49C214.61,160.28,211.23,156.06,207.06,156.06Z"/></g></g></svg>