<svg xmlns="http://www.w3.org/2000/svg" viewBox="0 0 289.72 323.72"><defs><style>.cls-1{fill:#0d69d5;}</style></defs><title>unique</title><g id="Layer_2" data-name="Layer 2"><g id="Layer_1-2" data-name="Layer 1"><path class="cls-1" d="M142.86,9a50,50,0,0,1,35.32,85.27,50,50,0,0,1-70.64-70.64A49.64,49.64,0,0,1,142.86,9m0-9a59,59,0,1,0,41.68,17.27A58.78,58.78,0,0,0,142.86,0Z"/><circle class="cls-1" cx="230.77" cy="163.86" r="58.95"/><path class="cls-1" d="M144.86,214.82a49.95,49.95,0,1,1-35.32,14.63,49.61,49.61,0,0,1,35.32-14.63m0-9a58.95,58.95,0,1,0,41.68,17.26,58.75,58.75,0,0,0-41.68-17.26Z"/><path class="cls-1" d="M59,114.91a50,50,0,1,1-35.32,14.63A49.6,49.6,0,0,1,59,114.91m0-9a58.95,58.95,0,1,0,41.68,17.26A58.75,58.75,0,0,0,59,105.91Z"/></g></g></svg>